<?xml version="1.0" standalone="no"?>
<!DOCTYPE svg PUBLIC "-//W3C//DTD SVG 1.1//EN" "http://www.w3.org/Graphics/SVG/1.1/DTD/svg11.dtd" >
<svg xmlns="http://www.w3.org/2000/svg">
<metadata>Generated by IcoMoon</metadata>
<defs>
<font id="icomoon" horiz-adv-x="1024">
<font-face units-per-em="1024" ascent="960" descent="-64" />
<missing-glyph horiz-adv-x="1024" />
<glyph unicode="&#x20;" horiz-adv-x="512" d="" />
<glyph unicode="&#xe900;" d="M650.847-46.643h-277.694c-19.092 0-34.713 15.62-34.713 34.713s15.62 34.713 34.713 34.713h277.694c19.092 0 34.713-15.62 34.713-34.713s-15.62-34.713-34.713-34.713z" />
<glyph unicode="&#xe901;" d="M581.424 178.984h-138.848c-19.092 0-34.713 15.62-34.713 34.713s15.62 34.713 34.713 34.713h138.848c19.092 0 34.713-15.62 34.713-34.713s-15.622-34.713-34.713-34.713z" />
<glyph unicode="&#xe902;" d="M598.779 248.407h-52.068c19.092 0 34.713-15.62 34.713-34.713s-15.62-34.71-34.713-34.71h52.068c19.092 0 34.713 15.62 34.713 34.713s-15.62 34.71-34.713 34.71z" />
<glyph unicode="&#xe903;" d="M668.202 22.78h-52.068c19.092 0 34.713-15.62 34.713-34.713s-15.62-34.713-34.713-34.713h52.068c19.092 0 34.713 15.62 34.713 34.713s-15.62 34.713-34.713 34.713z" />
<glyph unicode="&#xe904;" d="M425.221 248.407h52.068c-19.092 0-34.713-15.62-34.713-34.713s15.62-34.71 34.713-34.71h-52.068c-19.092 0-34.713 15.62-34.713 34.713s15.62 34.71 34.713 34.71z" />
<glyph unicode="&#xe905;" d="M355.796 22.78h52.068c-19.092 0-34.713-15.62-34.713-34.713s15.62-34.713 34.713-34.713h-52.068c-19.092 0-34.713 15.62-34.713 34.713s15.622 34.713 34.713 34.713z" />
<glyph unicode="&#xe906;" d="M772.338 717.016c0 140.583 52.068 225.626 52.068 225.626h-624.813c0 0 52.068-85.043 52.068-225.626v-121.491c0 0-19.092-242.984 260.339-242.984s260.339 242.984 260.339 242.984v121.491z" />
<glyph unicode="&#xe907;" d="M772.338 717.016c0 140.583 52.068 225.626 52.068 225.626h-52.068c0 0-52.068-85.043-52.068-225.626v-121.491c0 0 19.092-227.363-234.305-242.984 8.679 0 17.355 0 26.034 0 279.431 0 260.339 242.984 260.339 242.984v121.491z" />
<glyph unicode="&#xe908;" d="M251.66 717.016c0 140.583-52.068 225.626-52.068 225.626h52.068c0 0 52.068-85.043 52.068-225.626v-121.491c0 0-19.092-227.363 234.305-242.984-8.679 0-17.355 0-26.034 0-279.431 0-260.339 242.984-260.339 242.984v121.491z" />
<glyph unicode="&#xe909;" d="M459.931 248.407h104.136v104.136h-104.136z" />
<glyph unicode="&#xe90a;" d="M529.356 248.407h34.71v104.136h-34.71z" />
<glyph unicode="&#xe90b;" d="M564.067 178.984h-104.136c0-157.938-57.275-152.731-86.78-156.203h277.696c-29.506 3.472-86.78-3.472-86.78 156.203z" />
<glyph unicode="&#xe90c;" d="M564.067 178.984h-34.713c0-157.938 57.275-152.731 86.78-156.203h34.713c-29.506 3.472-86.78-3.472-86.78 156.203z" />
<glyph unicode="&#xe90d;" d="M459.931 248.407h34.713v104.136h-34.713z" />
<glyph unicode="&#xe90e;" d="M459.931 178.984h34.713c0-157.938-57.275-152.731-86.78-156.203h-34.713c29.506 3.472 86.78-3.472 86.78 156.203z" />
<glyph unicode="&#xe90f;" d="M511.999 335.187c-93.722 0-166.617 26.034-215.213 78.102-69.423 76.367-62.481 178.765-62.481 183.972v119.756c0 133.641-48.596 215.215-50.333 216.95-3.472 5.207-3.472 12.148 0 17.355s8.679 8.679 15.62 8.679h624.813c6.942 0 12.148-3.472 15.62-8.679s3.472-12.148 0-17.355c0 0-50.333-83.308-50.333-216.95v-121.491c0-3.472 6.942-105.87-62.481-182.237-48.596-52.068-121.491-78.102-215.213-78.102zM227.363 925.287c17.355-36.447 41.654-109.342 41.654-208.271v-121.491c0-1.735-6.942-93.722 53.803-157.938 41.654-45.126 105.87-67.688 189.179-67.688 85.043 0 147.525 22.562 189.179 67.688 60.746 65.953 53.803 156.203 53.803 156.203v123.228c0 98.929 24.299 171.824 41.654 208.271h-569.271z" />
<glyph unicode="&#xe910;" d="M338.44 682.306c-10.414 0-17.355 6.942-17.355 17.355 0 59.009-5.207 111.077-17.355 150.997-1.735 10.414 3.472 19.092 12.148 22.562 10.414 1.735 19.092-3.472 22.562-12.148 12.148-43.389 17.355-98.929 17.355-161.41 0-10.414-6.942-17.355-17.355-17.355z" />
<glyph unicode="&#xe911;" d="M529.356 421.967c-74.63 0-128.434 19.092-163.145 57.275-50.333 52.068-45.126 133.641-45.126 135.376 0 10.414 8.679 17.355 19.092 15.62 10.414 0 17.355-8.679 15.62-19.092 0 0-3.472-67.688 34.713-109.342 27.769-29.506 74.63-45.126 138.848-45.126 10.414 0 17.355-6.942 17.355-17.355-0.002-10.414-6.944-17.355-17.357-17.355z" />
<glyph unicode="&#xe912;" d="M581.424 231.051h-138.848v138.848h138.848v-138.848zM477.288 265.764h69.423v69.423h-69.423v-69.423z" />
<glyph unicode="&#xe913;" d="M581.424 161.628h-138.848c-29.506 0-52.068 22.562-52.068 52.068s22.562 52.068 52.068 52.068h138.848c29.506 0 52.068-22.562 52.068-52.068s-22.564-52.068-52.068-52.068zM442.576 231.051c-10.414 0-17.355-6.942-17.355-17.355s6.942-17.355 17.355-17.355h138.848c10.414 0 17.355 6.942 17.355 17.355s-6.942 17.355-17.355 17.355h-138.848z" />
<glyph unicode="&#xe914;" d="M650.847-64h-277.694c-29.506 0-52.068 22.562-52.068 52.068s22.562 52.068 52.068 52.068h277.694c29.506 0 52.068-22.562 52.068-52.068 0-29.504-22.562-52.068-52.068-52.068zM373.153 5.425c-10.414 0-17.355-6.942-17.355-17.355s6.942-17.355 17.355-17.355h277.694c10.414 0 17.355 6.942 17.355 17.355s-6.942 17.355-17.355 17.355h-277.694z" />
<glyph unicode="&#xe915;" d="M650.847 5.425h-277.694c-8.679 0-17.355 6.942-17.355 15.62s5.207 17.355 15.62 19.092c1.735 0 5.207 0 6.942 0 27.769 3.47 64.216 6.942 64.216 138.846 0 10.414 6.942 17.355 17.355 17.355h104.136c10.414 0 17.355-6.942 17.355-17.355 0-131.904 36.447-135.376 64.216-138.848 3.472 0 5.207 0 6.942 0 8.679-1.735 15.62-8.679 15.62-19.092 0.002-8.677-8.675-15.618-17.353-15.618zM447.783 40.136h128.434c-17.355 22.562-27.769 59.009-29.506 121.491h-69.423c-1.737-62.479-13.885-98.927-29.506-121.491z" />
<glyph unicode="&#xe916;" d="M955.734 243.2c0 47.786-37.546 85.334-85.334 85.334-47.786 0-85.334-37.546-85.334-85.334 0-47.786 37.546-85.334 85.334-85.334 47.786 0 85.334 37.548 85.334 85.334z" />
<glyph unicode="&#xe917;" d="M870.4 89.6c-75.094 0-136.534-51.2-136.534-85.334v-51.2h273.066v51.2c0.002 34.134-61.438 85.334-136.532 85.334z" />
<glyph unicode="&#xe918;" d="M529.066 396.8c-10.24 0-17.066 6.826-17.066 17.066v273.068c0 10.24 6.826 17.066 17.066 17.066s17.066-6.826 17.066-17.066v-273.066c0.002-10.242-6.826-17.068-17.066-17.068z" />
<glyph unicode="&#xe919;" d="M887.466 396.8c-10.24 0-17.066 6.826-17.066 17.066v51.2c0 56.32-46.080 102.4-102.4 102.4h-477.866c-56.32 0-102.4-46.080-102.4-102.4v-51.2c0-10.24-6.826-17.066-17.066-17.066s-17.066 6.826-17.066 17.066v51.2c0 75.094 61.44 136.534 136.534 136.534h477.864c75.094 0 136.534-61.44 136.534-136.534v-51.2c0-10.24-6.828-17.066-17.068-17.066z" />
<glyph unicode="&#xe91a;" d="M785.066 704h-546.132c-18.774 0-34.134 15.36-34.134 34.134v170.666c0 18.774 15.36 34.134 34.134 34.134h546.134c18.774 0 34.134-15.36 34.134-34.134v-170.666c-0.002-18.774-15.362-34.134-34.136-34.134z" />
<glyph unicode="&#xe91b;" d="M785.066 942.934h-34.134c18.774 0 34.134-15.36 34.134-34.134v-170.666c0-18.774-15.36-34.134-34.134-34.134h34.134c18.774 0 34.134 15.36 34.134 34.134v170.666c0 18.774-15.36 34.134-34.134 34.134z" />
<glyph unicode="&#xe91c;" d="M238.934 942.934h34.134c-18.774 0-34.134-15.36-34.134-34.134v-170.666c0-18.774 15.36-34.134 34.134-34.134h-34.134c-18.774 0-34.134 15.36-34.134 34.134v170.666c0 18.774 15.36 34.134 34.134 34.134z" />
<glyph unicode="&#xe91d;" d="M238.934 243.2c0 47.786-37.546 85.334-85.334 85.334s-85.334-37.548-85.334-85.334c0-47.786 37.546-85.334 85.334-85.334s85.334 37.548 85.334 85.334z" />
<glyph unicode="&#xe91e;" d="M153.6 89.6c-75.094 0-136.534-51.2-136.534-85.334v-51.2h273.066v51.2c0.002 34.134-61.438 85.334-136.532 85.334z" />
<glyph unicode="&#xe91f;" d="M102.4 243.2c0 40.96 29.014 75.094 68.266 83.626-5.12 1.706-11.946 1.706-17.066 1.706-47.786 0-85.334-37.546-85.334-85.334 0-47.786 37.546-85.334 85.334-85.334 5.12 0 11.946 0 17.066 1.706-39.252 8.536-68.266 42.67-68.266 83.63z" />
<glyph unicode="&#xe920;" d="M170.666 87.894c-5.12 1.706-11.946 1.706-17.066 1.706-75.094 0-136.534-51.2-136.534-85.334v-51.2h34.134v51.2c0 30.72 51.2 76.8 119.466 83.628z" />
<glyph unicode="&#xe921;" d="M921.6 243.2c0 40.96-29.014 75.094-68.266 83.626 5.12 1.706 11.946 1.706 17.066 1.706 47.786 0 85.334-37.546 85.334-85.334 0-47.786-37.546-85.334-85.334-85.334-5.12 0-11.946 0-17.066 1.706 39.252 8.536 68.266 42.67 68.266 83.63z" />
<glyph unicode="&#xe922;" d="M853.334 87.894c5.12 0 11.946 1.706 17.066 1.706 75.094 0 136.534-51.2 136.534-85.334v-51.2h-34.134v51.2c0 30.72-51.2 76.8-119.466 83.628z" />
<glyph unicode="&#xe923;" d="M597.334 243.2c0 47.786-37.546 85.334-85.334 85.334s-85.334-37.546-85.334-85.334c0-47.786 37.546-85.334 85.334-85.334s85.334 37.548 85.334 85.334z" />
<glyph unicode="&#xe924;" d="M512 89.6c-75.094 0-136.534-51.2-136.534-85.334v-51.2h273.066v51.2c0.002 34.134-61.438 85.334-136.532 85.334z" />
<glyph unicode="&#xe925;" d="M153.6 140.8c-56.32 0-102.4 46.080-102.4 102.4s46.080 102.4 102.4 102.4 102.4-46.080 102.4-102.4-46.080-102.4-102.4-102.4zM153.6 311.466c-37.546 0-68.266-30.72-68.266-68.266s30.72-68.266 68.266-68.266 68.266 30.72 68.266 68.266-30.72 68.266-68.266 68.266z" />
<glyph unicode="&#xe926;" d="M290.134-64h-273.068c-10.24 0-17.066 6.826-17.066 17.066v51.2c0 46.080 71.68 102.4 153.6 102.4s153.6-56.32 153.6-102.4v-51.2c0-10.24-6.826-17.066-17.066-17.066zM34.134-29.866h238.934v34.134c0 22.186-51.2 68.266-119.466 68.266s-119.466-46.080-119.466-68.266v-34.134z" />
<glyph unicode="&#xe927;" d="M512 140.8c-56.32 0-102.4 46.080-102.4 102.4s46.080 102.4 102.4 102.4 102.4-46.080 102.4-102.4-46.080-102.4-102.4-102.4zM512 311.466c-37.546 0-68.266-30.72-68.266-68.266s30.72-68.266 68.266-68.266 68.266 30.72 68.266 68.266-30.72 68.266-68.266 68.266z" />
<glyph unicode="&#xe928;" d="M648.534-64h-273.068c-10.24 0-17.066 6.826-17.066 17.066v51.2c0 46.080 71.68 102.4 153.6 102.4s153.6-56.32 153.6-102.4v-51.2c0-10.24-6.826-17.066-17.066-17.066zM392.534-29.866h238.934v34.134c0 22.186-51.2 68.266-119.466 68.266s-119.466-46.080-119.466-68.266v-34.134z" />
<glyph unicode="&#xe929;" d="M870.4 140.8c-56.32 0-102.4 46.080-102.4 102.4s46.080 102.4 102.4 102.4c56.32 0 102.4-46.080 102.4-102.4s-46.080-102.4-102.4-102.4zM870.4 311.466c-37.546 0-68.266-30.72-68.266-68.266s30.72-68.266 68.266-68.266c37.546 0 68.266 30.72 68.266 68.266s-30.72 68.266-68.266 68.266z" />
<glyph unicode="&#xe92a;" d="M1006.934-64h-273.068c-10.24 0-17.066 6.826-17.066 17.066v51.2c0 46.080 71.68 102.4 153.6 102.4s153.6-56.32 153.6-102.4v-51.2c0-10.24-6.826-17.066-17.066-17.066zM750.934-29.866h238.934v34.134c0 22.186-51.2 68.266-119.466 68.266s-119.466-46.080-119.466-68.266v-34.134z" />
<glyph unicode="&#xe92b;" d="M512 413.866c-10.24 0-17.066 6.826-17.066 17.066v273.068c0 10.24 6.826 17.066 17.066 17.066s17.066-6.826 17.066-17.066v-273.066c0-10.24-6.826-17.068-17.066-17.068z" />
<glyph unicode="&#xe92c;" d="M870.4 413.866c-10.24 0-17.066 6.826-17.066 17.066v51.2c0 56.32-46.080 102.4-102.4 102.4h-477.868c-56.32 0-102.4-46.080-102.4-102.4v-51.2c0-10.24-6.826-17.066-17.066-17.066s-17.066 6.826-17.066 17.066v51.2c0 75.094 61.44 136.534 136.534 136.534h477.866c75.094 0 136.534-61.44 136.534-136.534v-51.2c-0.002-10.238-6.828-17.066-17.068-17.066z" />
<glyph unicode="&#xe92d;" d="M785.066 686.934h-546.132c-29.014 0-51.2 22.186-51.2 51.2v170.666c0 29.014 22.186 51.2 51.2 51.2h546.134c29.014 0 51.2-22.186 51.2-51.2v-170.666c-0.002-29.014-22.188-51.2-51.202-51.2zM238.934 925.866c-10.24 0-17.066-6.826-17.066-17.066v-170.666c0-10.24 6.826-17.066 17.066-17.066h546.134c10.24 0 17.066 6.826 17.066 17.066v170.666c0 10.24-6.826 17.066-17.066 17.066h-546.134z" />
<glyph unicode="&#xe92e;" d="M273.066 755.2c-10.24 0-17.066 6.826-17.066 17.066v102.4c0 10.24 6.826 17.066 17.066 17.066s17.066-6.826 17.066-17.066v-102.4c0.002-10.24-6.826-17.066-17.066-17.066z" />
<glyph unicode="&#xe92f;" d="M341.334 755.2c-10.24 0-17.066 6.826-17.066 17.066v102.4c0 10.24 6.826 17.066 17.066 17.066s17.066-6.826 17.066-17.066v-102.4c0-10.24-6.826-17.066-17.066-17.066z" />
<glyph unicode="&#xe930;" d="M443.734 755.2c-10.24 0-17.066 6.826-17.066 17.066v102.4c0 10.24 6.826 17.066 17.066 17.066s17.066-6.826 17.066-17.066v-102.4c0-10.24-6.826-17.066-17.066-17.066z" />
<glyph unicode="&#xe931;" d="M341.334 806.4h-68.266c-10.24 0-17.066 6.826-17.066 17.066s6.826 17.066 17.066 17.066h68.266c10.24 0 17.066-6.826 17.066-17.066s-6.826-17.066-17.066-17.066z" />
<glyph unicode="&#xe932;" d="M477.866 857.6h-68.266c-10.24 0-17.066 6.826-17.066 17.066s6.826 17.066 17.066 17.066h68.266c10.24 0 17.066-6.826 17.066-17.066s-6.826-17.066-17.066-17.066z" />
<glyph unicode="&#xe933;" d="M580.266 755.2c-10.24 0-17.066 6.826-17.066 17.066v102.4c0 10.24 6.826 17.066 17.066 17.066s17.066-6.826 17.066-17.066v-102.4c0.002-10.24-6.826-17.066-17.066-17.066z" />
<glyph unicode="&#xe934;" d="M614.4 857.6h-68.266c-10.24 0-17.066 6.826-17.066 17.066s6.826 17.066 17.066 17.066h68.266c10.24 0 17.066-6.826 17.066-17.066s-6.826-17.066-17.066-17.066z" />
<glyph unicode="&#xe935;" d="M682.666 755.2c-10.24 0-17.066 6.826-17.066 17.066v102.4c0 10.24 6.826 17.066 17.066 17.066h34.134c29.014 0 51.2-22.186 51.2-51.2s-22.186-51.2-51.2-51.2h-17.066v-17.066c0-10.24-6.828-17.066-17.068-17.066zM699.734 823.466h17.066c10.24 0 17.066 6.826 17.066 17.066s-6.826 17.068-17.066 17.068h-17.066v-34.134z" />
<glyph unicode="&#xe936;" d="M572.688 627.5l-47.868 49.575 47.868 47.868 49.575-47.868z" />
<glyph unicode="&#xe937;" d="M670.13 531.767l-47.868 47.866 47.868 47.868 47.866-47.868z" />
<glyph unicode="&#xe938;" d="M863.304 338.591l-47.866 47.868 47.866 47.866 47.868-47.866z" />
<glyph unicode="&#xe939;" d="M767.573 434.324l-49.577 47.866 49.577 49.577 47.866-49.577z" />
<glyph unicode="&#xe93a;" d="M960.747 241.148l-49.575 47.868 49.575 49.575 47.868-49.575z" />
<glyph unicode="&#xe93b;" d="M51.285 755.714h68.38v68.38h-68.38z" />
<glyph unicode="&#xe93c;" d="M188.047 755.714h68.38v68.38h-68.38z" />
<glyph unicode="&#xe93d;" d="M524.82 434.324c-34.191-34.191-87.185-34.191-121.376 0s-34.191 87.185 0 121.376 87.185 34.191 121.376 0 34.191-87.185 0-121.376z" />
<glyph unicode="&#xe93e;" d="M839.372 119.774c-34.191-34.191-87.185-34.191-121.376 0s-34.191 87.185 0 121.376c34.191 34.191 87.185 34.191 121.376 0 34.189-34.191 34.189-87.187 0-121.376z" />
<glyph unicode="&#xe93f;" d="M841.081 241.148c-20.514 20.514-49.577 29.062-76.928 23.934 15.386-3.42 30.771-10.257 42.737-23.934 34.191-34.191 34.191-87.185 0-121.376-11.966-11.966-27.352-20.514-42.737-23.934 27.352-5.129 56.414 1.709 76.928 23.934 34.191 34.191 34.191 87.187 0 121.376z" />
<glyph unicode="&#xe940;" d="M988.1 217.217l-483.794 483.792c-13.677 13.677-34.191 13.677-47.866 0l-97.442-97.442 47.866-47.866c34.191 34.191 87.185 34.191 121.376 0s34.191-87.185 0-121.376l193.176-193.176c34.191 34.191 87.185 34.191 121.376 0s34.191-87.185 0-121.376l47.866-47.866 97.442 97.442c13.675 11.968 13.675 34.191 0 47.868z" />
<glyph unicode="&#xe941;" d="M982.972 217.217l-15.386 15.386c3.42-11.966 1.709-25.643-8.548-35.9l-97.442-97.442-22.223 23.934c0-1.709-1.709-1.709-1.709-3.42l47.866-47.866 97.442 97.442c13.675 11.966 13.675 34.189 0 47.866z" />
<glyph unicode="&#xe942;" d="M17.094 413.81h273.524v170.951h-273.524z" />
<glyph unicode="&#xe943;" d="M17.094 242.859h273.524v170.951h-273.524z" />
<glyph unicode="&#xe944;" d="M17.094 71.906h273.524v170.953h-273.524z" />
<glyph unicode="&#xe945;" d="M290.618 584.761h-273.524v136.762c0 18.805 15.386 34.191 34.191 34.191h205.142c18.805 0 34.191-15.386 34.191-34.191v-136.762z" />
<glyph unicode="&#xe946;" d="M17.094 413.81h51.285v170.951h-51.285z" />
<glyph unicode="&#xe947;" d="M17.094 242.859h51.285v170.951h-51.285z" />
<glyph unicode="&#xe948;" d="M17.094 71.906h51.285v170.953h-51.285z" />
<glyph unicode="&#xe949;" d="M102.571 755.714h-51.285c-18.805 0-34.191-15.386-34.191-34.191v-136.762h51.285v136.762c0 18.805 15.386 34.191 34.191 34.191z" />
<glyph unicode="&#xe94a;" d="M572.688 610.404c-5.129 0-8.548 1.709-11.966 5.129l-47.868 47.868c-6.837 6.837-6.837 17.094 0 23.934l47.866 47.866c6.837 6.837 17.094 6.837 23.934 0l47.866-47.866c6.837-6.837 6.837-17.094 0-23.934l-47.866-47.866c-1.709-3.42-6.837-5.131-11.966-5.131zM548.754 677.075l23.934-23.934 25.643 23.934-23.934 23.934-25.643-23.934z" />
<glyph unicode="&#xe94b;" d="M670.13 514.672c-5.129 0-8.548 1.709-11.966 5.129l-47.868 47.866c-6.837 6.837-6.837 17.094 0 23.934l47.866 47.866c6.837 6.837 17.094 6.837 23.934 0l47.866-47.866c6.837-6.837 6.837-17.094 0-23.934l-47.866-47.866c-3.42-3.42-6.837-5.129-11.966-5.129zM646.197 579.632l23.934-23.934 23.934 23.934-23.934 23.934-23.934-23.934z" />
<glyph unicode="&#xe94c;" d="M863.304 321.496c-5.129 0-8.548 1.709-11.966 5.129l-47.866 47.866c-6.837 6.837-6.837 17.094 0 23.934l47.866 47.866c6.837 6.837 17.094 6.837 23.934 0l47.866-47.866c6.837-6.837 6.837-17.094 0-23.934l-47.866-47.866c-3.42-3.42-6.839-5.129-11.968-5.129zM839.372 386.458l23.934-23.934 23.934 23.934-23.934 23.934-23.934-23.934z" />
<glyph unicode="&#xe94d;" d="M767.573 417.23v0c-5.129 0-8.548 1.709-11.966 5.129l-47.868 47.866c-6.837 6.837-6.837 17.094 0 23.934l47.866 47.866c6.837 6.837 17.094 6.837 23.934 0l47.866-47.866c6.837-6.837 6.837-17.094 0-23.934l-47.866-47.866c-3.42-3.42-8.548-5.129-11.966-5.129zM741.93 482.19l23.934-23.934 23.934 23.934-23.934 23.934-23.934-23.934z" />
<glyph unicode="&#xe94e;" d="M960.747 224.054c-5.129 0-8.548 1.709-11.966 5.129l-49.577 47.866c-6.837 6.837-6.837 17.094 0 23.934l47.866 47.866c6.837 6.837 17.094 6.837 23.934 0l47.866-47.866c6.837-6.837 6.837-17.094 0-23.934l-47.866-47.866c-1.709-3.42-6.837-5.129-10.257-5.129zM936.815 289.016l23.934-23.934 23.934 23.934-23.934 23.934-23.934-23.934z" />
<glyph unicode="&#xe94f;" d="M403.446 634.337c-5.129 0-8.548 1.709-11.966 5.129l-83.768 85.476c-6.837 6.837-6.837 17.094 0 23.934 6.837 6.837 17.094 6.837 23.934 0l83.766-85.476c6.837-6.837 6.837-17.094 0-23.934-1.709-3.42-6.837-5.129-11.966-5.129z" />
<glyph unicode="&#xe950;" d="M464.989 393.296c-25.643 0-52.994 10.257-71.8 30.771-39.32 39.32-39.32 104.28 0 145.308 39.32 39.32 104.28 39.32 145.308 0 39.32-39.32 39.32-104.28 0-145.308v0c-20.514-22.223-47.866-30.771-73.508-30.771zM464.989 562.538c-17.094 0-34.191-6.837-47.866-20.514-27.352-27.352-27.352-70.091 0-97.442s70.091-27.352 97.442 0c27.352 27.352 27.352 70.091 0 97.442-15.388 15.386-32.482 20.514-49.577 20.514zM524.82 434.324v0 0z" />
<glyph unicode="&#xe951;" d="M779.539 78.746c-25.643 0-52.994 10.257-71.8 30.771-18.805 18.805-30.771 44.448-30.771 71.8s10.257 52.994 30.771 71.8c39.32 39.32 104.28 39.32 145.308 0 18.805-18.805 30.771-44.448 30.771-71.8s-10.257-52.994-30.771-71.8v0 0c-22.223-20.514-47.866-30.771-73.508-30.771zM779.539 249.697c-17.094 0-34.191-6.837-47.866-20.514s-20.514-30.771-20.514-47.866c0-18.805 6.837-35.9 20.514-47.866 27.352-27.352 70.091-27.352 97.442 0v0c13.677 13.677 20.514 30.771 20.514 47.866 0 18.805-6.837 35.9-20.514 47.866-15.386 13.677-32.482 20.514-49.577 20.514z" />
<glyph unicode="&#xe952;" d="M887.238 54.812c-5.129 0-8.548 1.709-11.966 5.129l-47.866 47.866c-6.837 6.837-6.837 17.094 0 23.934 27.352 27.352 27.352 70.091 0 97.442-25.643 25.643-70.091 25.643-97.442 0-6.837-6.837-17.094-6.837-23.934 0l-193.176 193.176c-3.42 3.42-5.129 6.837-5.129 11.966s1.709 8.548 5.129 11.966c13.677 13.677 20.514 30.771 20.514 47.866s-6.837 35.9-20.514 47.866c-13.677 13.677-30.771 20.514-47.866 20.514-18.805 0-35.9-6.837-47.866-20.514-6.837-6.837-17.094-6.837-23.934 0l-47.866 47.866c-3.42 3.42-5.129 6.837-5.129 11.966s1.709 8.548 5.129 11.966l97.442 97.442c20.514 20.514 52.994 20.514 71.8 0l483.792-483.792c20.514-20.514 20.514-52.994 0-71.8l-97.442-97.442c-5.129-1.707-8.548-3.416-13.677-3.416zM863.304 121.483l25.643-25.643 85.476 83.766c6.837 6.837 6.837 17.094 0 23.934l-485.503 485.503c-6.837 6.837-17.094 6.837-23.934 0l-83.766-83.766 25.643-25.643c17.094 11.966 37.609 18.805 59.834 18.805 27.352 0 52.994-10.257 71.8-30.771s30.771-44.448 30.771-71.8c0-22.223-6.837-42.737-18.805-59.834l170.951-170.951c17.094 11.966 37.609 18.805 59.834 18.805 27.352 0 52.994-10.257 71.8-30.771 34.191-35.902 37.611-92.316 10.257-131.635z" />
<glyph unicode="&#xe953;" d="M767.573 152.254c-5.129 0-8.548 1.709-11.966 5.129-6.837 6.837-6.837 17.094 0 23.934l23.934 23.934c6.837 6.837 17.094 6.837 23.934 0 6.837-6.837 6.837-17.094 0-23.934l-23.936-23.934c-3.42-3.42-8.548-5.129-11.966-5.129z" />
<glyph unicode="&#xe954;" d="M453.021 465.095c-5.129 0-8.548 1.709-11.966 5.129-6.837 6.837-6.837 17.094 0 23.934l23.934 23.934c6.837 6.837 17.094 6.837 23.934 0s6.837-17.094 0-23.934l-23.934-23.934c-3.42-3.42-8.548-5.129-11.968-5.129z" />
<glyph unicode="&#xe955;" d="M290.618 396.716h-273.524c-10.257 0-17.094 6.837-17.094 17.094v170.951c0 10.257 6.837 17.094 17.094 17.094h273.522c10.257 0 17.094-6.837 17.094-17.094v-170.951c0.002-10.257-6.835-17.094-17.092-17.094zM34.191 430.905h239.333v136.762h-239.333v-136.762z" />
<glyph unicode="&#xe956;" d="M290.618 225.763h-273.524c-10.257 0-17.094 6.837-17.094 17.094v170.953c0 10.257 6.837 17.094 17.094 17.094h273.522c10.257 0 17.094-6.837 17.094-17.094v-170.951c0.002-10.257-6.835-17.096-17.092-17.096zM34.191 259.954h239.333v136.762h-239.333v-136.762z" />
<glyph unicode="&#xe957;" d="M290.618 54.812h-273.524c-10.257 0-17.094 6.837-17.094 17.094v170.951c0 10.257 6.837 17.094 17.094 17.094h273.522c10.257 0 17.094-6.837 17.094-17.094v-170.951c0.002-10.257-6.835-17.094-17.092-17.094zM34.191 89.003h239.333v136.762h-239.333v-136.762z" />
<glyph unicode="&#xe958;" d="M119.665 738.617h-68.38c-10.257 0-17.094 6.837-17.094 17.094v68.382c0 10.257 6.837 17.094 17.094 17.094h68.38c10.257 0 17.094-6.837 17.094-17.094v-68.38c0.002-10.257-6.837-17.096-17.094-17.096zM68.38 772.808h34.191v34.191h-34.191v-34.191z" />
<glyph unicode="&#xe959;" d="M256.427 738.617h-68.38c-10.257 0-17.094 6.837-17.094 17.094v68.382c0 10.257 6.837 17.094 17.094 17.094h68.38c10.257 0 17.094-6.837 17.094-17.094v-68.38c0-10.257-6.837-17.096-17.094-17.096zM205.142 772.808h34.191v34.191h-34.191v-34.191z" />
<glyph unicode="&#xe95a;" d="M290.618 567.666h-273.524c-10.257 0-17.094 6.837-17.094 17.094v136.762c0 29.062 22.223 51.285 51.285 51.285h205.142c29.062 0 51.285-22.223 51.285-51.285v-136.762c0-10.257-6.837-17.094-17.094-17.094zM34.191 601.857h239.333v119.665c0 10.257-6.837 17.094-17.094 17.094h-205.144c-10.257 0-17.094-6.837-17.094-17.094v-119.665z" />
<glyph unicode="&#xe95b;" d="M295.747 695.88c-5.129 0-8.548 1.709-11.966 5.129-6.837 6.837-6.837 17.094 0 23.934l23.934 23.934c6.837 6.837 17.094 6.837 23.934 0 6.837-6.837 6.837-17.094 0-23.934l-23.936-23.934c-3.42-3.42-8.548-5.129-11.966-5.129z" />
<glyph unicode="&#xe95c;" d="M755.804-64h-546.472c-66.064 0-119.814 53.75-119.814 119.816v784.37c0 66.064 53.75 119.814 119.814 119.814h546.472c66.064 0 119.814-53.75 119.814-119.814v-784.372c0-66.064-53.748-119.814-119.814-119.814zM209.332 902.572c-34.4 0-62.386-27.984-62.386-62.386v-784.372c0-34.4 27.988-62.39 62.386-62.39h546.472c34.4 0 62.386 27.988 62.386 62.39v784.372c0 34.402-27.988 62.386-62.386 62.386h-546.472z" />
<glyph unicode="&#xe95d;" d="M685.91 50.858h-406.682c-41.276 0-74.854 33.578-74.854 74.852v644.584c0 41.276 33.578 74.854 74.854 74.854h406.682c41.276 0 74.854-33.578 74.854-74.854v-120.974h-57.428v120.974c0 9.61-7.818 17.426-17.426 17.426h-406.682c-9.608 0-17.426-7.818-17.426-17.426v-644.582c0-9.608 7.818-17.424 17.426-17.424h406.682c9.608 0 17.426 7.818 17.426 17.424v355.152h57.428v-355.156c0-41.272-33.582-74.85-74.854-74.85z" />
<glyph unicode="&#xe95e;" d="M33.348 793.508h199.734v-57.428h-199.734v57.428z" />
<glyph unicode="&#xe95f;" d="M33.348 635.104h179.462v-57.428h-179.462v57.428z" />
<glyph unicode="&#xe960;" d="M33.348 476.718h179.462v-57.428h-179.462v57.428z" />
<glyph unicode="&#xe961;" d="M33.348 318.304h179.462v-57.428h-179.462v57.428z" />
<glyph unicode="&#xe962;" d="M33.348 159.918h199.734v-57.428h-199.734v57.428z" />
<glyph unicode="&#xe963;" d="M913.368 678.596h-66.464v168.848h66.464c26.824 0 48.57-21.744 48.57-48.57v-71.706c0-26.826-21.744-48.572-48.57-48.572z" />
<glyph unicode="&#xe964;" d="M913.368 649.882h-95.178v226.276h95.178c42.614 0 77.284-34.67 77.284-77.284v-71.71c0-42.612-34.67-77.282-77.284-77.282zM875.618 707.31h37.75c10.948 0 19.856 8.91 19.856 19.856v71.71c0 10.948-8.906 19.856-19.856 19.856h-37.75v-111.422z" />
<glyph unicode="&#xe965;" d="M913.368 483.172h-95.178v226.278h95.178c42.614 0 77.284-34.67 77.284-77.284v-71.71c0-42.612-34.67-77.284-77.284-77.284zM875.618 540.6h37.75c10.948 0 19.856 8.91 19.856 19.856v71.71c0 10.948-8.906 19.856-19.856 19.856h-37.75v-111.422z" />
<glyph unicode="&#xe966;" d="M913.368 343.038h-66.464v168.848h66.464c26.824 0 48.57-21.744 48.57-48.57v-71.706c0-26.826-21.744-48.572-48.57-48.572z" />
<glyph unicode="&#xe967;" d="M913.368 314.324h-95.178v226.28h95.178c42.614 0 77.284-34.67 77.284-77.286v-71.708c0-42.616-34.67-77.286-77.284-77.286zM875.618 371.752h37.75c10.948 0 19.856 8.91 19.856 19.858v71.706c0 10.948-8.906 19.858-19.856 19.858h-37.75v-111.422z" />
<glyph unicode="&#xe968;" d="M636.45-64c-19.454 0-38.070 1.282-55.336 3.806l-0.354 0.054c-4.354 0.644-8.668 1.372-12.812 2.162l-0.464 0.092c-19.4 3.752-39.994 12.010-53.876 18.29-0.194 0.020-0.39 0-0.664-0.138-22.316-11.066-62.198-24.266-125.442-24.266-83.314 0-143.502 42.76-184.006 130.728-34.652 75.276-52.342 177.668-68.844 284.796-11.68 75.832 5.388 143.014 49.362 194.282 54.442 63.468 141.49 91.876 203.61 91.876 19.512 0 35.956-2.756 48.876-8.192 27.064-11.388 60.216-20.306 75.47-20.306s48.406 8.92 75.476 20.306c14.618 6.152 33.724 8.904 56.784 8.038 4.11-0.156 8.384-0.434 12.708-0.83 7.12-0.652 14.512-1.654 21.98-2.974 1.548-0.272 3.118-0.564 4.696-0.872 2.48-0.48 4.978-0.998 7.5-1.558 1.788-0.396 3.574-0.812 5.376-1.242 8.688-2.096 17.404-4.612 25.922-7.488 12.986-4.384 25.632-9.626 37.582-15.578l0.572-0.284c8.372-4.194 16.628-8.866 24.544-13.892 0.956-0.608 1.886-1.204 2.81-1.808 5.486-3.58 10.912-7.416 16.098-11.39 0.922-0.706 1.82-1.404 2.72-2.112 31.254-24.638 54.424-54.786 68.884-89.612 2.464-5.936 4.748-12.276 6.786-18.842 1.686-5.416 3.090-10.564 4.294-15.722 2.852-12.264 4.744-25.108 5.628-38.184 0.222-3.328 0.384-6.676 0.482-10.066 0.096-3.414 0.128-6.84 0.096-10.31l-0.016-0.632c-0.162-13.792-1.374-28.13-3.61-42.616-22.66-147.108-46.454-274.902-108.254-348.89-1.566-1.878-3.162-3.722-4.78-5.528-36.238-40.534-83.284-61.098-139.798-61.098zM589.98-0.948c14.332-2.088 29.974-3.148 46.472-3.148 39.828 0 70.072 13.074 95.174 41.146 1.174 1.312 2.316 2.636 3.444 3.986 51.914 62.154 73.748 181.52 95.024 319.616 1.818 11.804 2.804 23.398 2.92 34.458l0.008 0.566c0.020 2.596-0.006 5.164-0.074 7.698-0.074 2.602-0.2 5.202-0.372 7.77-0.668 9.85-2.078 19.486-4.206 28.624-0.862 3.716-1.896 7.482-3.148 11.508-1.5 4.834-3.15 9.422-4.912 13.66-10.488 25.264-27.522 47.31-50.632 65.53-0.686 0.542-1.39 1.084-2.090 1.624-3.974 3.042-8.152 5.996-12.396 8.766-0.736 0.482-1.462 0.944-2.186 1.408-6.178 3.92-12.648 7.58-19.202 10.866l-0.534 0.266c-9.512 4.736-19.606 8.916-30.010 12.426-6.84 2.31-13.828 4.328-20.774 6.002-1.428 0.344-2.87 0.676-4.306 0.998-1.998 0.44-3.986 0.856-5.958 1.236-1.24 0.242-2.47 0.47-3.696 0.686-5.858 1.036-11.59 1.812-17.054 2.316-3.25 0.3-6.44 0.506-9.476 0.62-1.928 0.072-3.822 0.11-5.676 0.11-16.068 0-23.688-2.68-25.64-3.502-29.576-12.438-71.564-24.99-98.702-24.99-27.144 0-69.13 12.552-98.7 24.99-1.952 0.824-9.578 3.504-25.646 3.504-46.848 0-116.316-22.212-158.146-70.974-32.706-38.13-44.692-87.306-35.626-146.162 32.9-213.57 66.054-364.746 193.644-364.746 54.358 0 85.246 11.298 98.82 18.030 8.434 4.182 17.83 6.394 27.174 6.394 8.62 0 16.962-1.798 24.796-5.344 15.538-7.030 29.992-12.032 40.694-14.082l0.41-0.080c3.304-0.626 6.754-1.204 10.262-1.722l0.32-0.054z" />
<glyph unicode="&#xe969;" d="M247.396 330.91c-9.176 59.576 9.976 111.278 53.936 145.584 45.52 35.528 109.866 45.18 141.394 31.924l-23.23-55.218 0.038-0.014c-8.138 3.136-49.802 1.51-82.556-24.874-25.962-20.912-36.18-50.614-30.376-88.286l-59.206-9.116z" />
<glyph unicode="&#xe96a;" d="M758.764 919.81c-65.148 22.562-140.344 7.844-192.368-44.18s-66.746-127.218-44.18-192.368c65.148-22.562 140.344-7.844 192.368 44.18s66.746 127.218 44.18 192.368z" />
<glyph unicode="&#xe96b;" d="M583.196 643.068c-0.006 0-0.004 0-0.006 0-24.186 0-47.996 4.002-70.776 11.89l-13.742 4.76-4.76 13.742c-26.886 77.626-6.748 165.294 51.306 223.348 40.756 40.75 94.938 63.192 152.574 63.192 24.182 0 47.996-3.998 70.776-11.89l13.742-4.76 4.76-13.742c26.886-77.626 6.748-165.298-51.302-223.348-40.756-40.748-94.944-63.192-152.572-63.192zM546.294 707.366c12.044-2.924 24.398-4.396 36.896-4.396 41.634 0 80.778 16.212 110.216 45.65 39.044 39.040 54.226 94.266 41.282 147.082-12.040 2.924-24.394 4.396-36.896 4.396-41.632 0-80.778-16.212-110.212-45.65-39.046-39.042-54.234-94.268-41.286-147.082z" />
<glyph unicode="&#xe96c;" d="M482.026 741.632h59.902v-179.704h-59.902v179.704z" />
<glyph unicode="&#xe96d;" d="M637.5 514.452h-251.004c-51.164 0-92.79 41.626-92.79 92.79v259.968c0 51.164 41.626 92.79 92.79 92.79h251.004c51.164 0 92.79-41.626 92.79-92.79v-259.968c-0.002-51.164-41.628-92.79-92.79-92.79zM386.496 903.060c-19.766 0-35.85-16.080-35.85-35.85v-259.968c0-19.766 16.080-35.85 35.85-35.85h251.004c19.766 0 35.85 16.080 35.85 35.85v259.968c0 19.766-16.080 35.85-35.85 35.85h-251.004z" />
<glyph unicode="&#xe96e;" d="M558.74 628.332h-93.484c-31.798 0-57.668 25.87-57.668 57.668v102.45c0 31.798 25.87 57.668 57.668 57.668h93.484v-56.94h-93.484c-0.402 0-0.728-0.328-0.728-0.728v-102.45c0-0.402 0.328-0.728 0.728-0.728h93.484v-56.94z" />
<glyph unicode="&#xe96f;" d="M483.536 567.37h56.94v-267.874h-56.94v267.874z" />
<glyph unicode="&#xe970;" d="M529.96 410.326l56.16-136.972 147.622-11.086c17.312-1.302 24.344-22.936 11.1-34.164l-112.912-95.74 35.076-143.822c4.114-16.868-14.292-30.24-29.062-21.116l-125.944 77.802-125.948-77.8c-14.77-9.124-33.176 4.248-29.062 21.116l35.076 143.822-112.912 95.74c-13.242 11.228-6.212 32.866 11.1 34.164l147.624 11.086 56.16 136.972c6.582 16.064 29.334 16.064 35.922-0.002z" />
<glyph unicode="&#xe971;" d="M648.122-64c-8.818 0-17.51 2.492-25.144 7.206l-110.98 68.562-110.98-68.562c-7.636-4.714-16.328-7.206-25.142-7.206-14.58 0-28.706 6.904-37.786 18.462-9.076 11.558-12.268 26.438-8.754 40.828l30.908 126.734-99.5 84.366c-14.882 12.616-20.6 32.758-14.574 51.312s22.494 31.494 41.954 32.954l130.082 9.77 49.492 120.698c7.402 18.052 24.788 29.718 44.302 29.718s36.9-11.664 44.306-29.718l49.49-120.698 130.082-9.77c19.46-1.464 35.926-14.4 41.954-32.954s0.304-38.7-14.574-51.314l-99.5-84.362 30.908-126.738c3.51-14.388 0.318-29.268-8.754-40.824-9.088-11.56-23.214-18.464-37.79-18.464zM314.416 235.534l109.478-92.826-34.008-139.444 122.114 75.434 122.114-75.434-34.008 139.444 109.478 92.826-143.13 10.744-54.452 132.802-54.452-132.802-143.134-10.744z" />
<glyph unicode="&#xe972;" d="M372.794 553.020c41.87 21.046 89.146 32.912 139.204 32.912 23.392 0 46.174-2.606 68.086-7.51l-300.852 342.21c-6.776 6.53-16.188 10.228-26.032 10.228h-141.098c-31.522 0-47.732-34.502-26.032-55.414l276.3-322.428 10.424 0.002z" />
<glyph unicode="&#xe973;" d="M379.706 523.88h-30.744l-284.244 331.7c-17.306 17.49-22.426 42.122-13.332 64.668 9.742 24.15 33.572 39.752 60.714 39.752h141.098c17.268 0 34.126-6.702 46.252-18.384l1.666-1.746 359.968-409.448-87.364 19.56c-20.172 4.516-40.936 6.808-61.722 6.808-44.34 0-86.772-10.028-126.118-29.808l-6.174-3.102zM112.1 901.718c-5.090 0-6.446-2.728-6.668-3.272-0.23-0.572-0.346-0.856 0.856-2.016l1.906-2.020 264.81-309.018c42.868 19.306 88.564 29.278 136.070 29.67l-250.592 285.036c-1.35 1.022-3.27 1.62-5.284 1.62h-141.098z" />
<glyph unicode="&#xe974;" d="M911.898 930.86h-141.098c-9.844 0-19.256-3.7-26.032-10.228l-300.856-342.21c21.914 4.904 44.696 7.51 68.088 7.51 50.054 0 97.336-11.866 139.204-32.912h10.426l276.3 322.428c21.7 20.908 5.49 55.412-26.032 55.412z" />
<glyph unicode="&#xe975;" d="M675.034 523.88h-30.744l-6.174 3.104c-39.342 19.778-81.774 29.808-126.114 29.808-20.784 0-41.548-2.29-61.722-6.808l-87.36-19.56 361.634 411.198c12.124 11.678 28.982 18.378 46.246 18.378h141.098c27.142 0 50.976-15.602 60.718-39.75 9.094-22.546 3.972-47.178-13.332-64.672l-284.25-331.698zM514.922 615.060c47.51-0.394 93.204-10.362 136.070-29.67l266.716 311.036c1.204 1.16 1.086 1.446 0.86 2.014-0.222 0.548-1.58 3.276-6.67 3.276h-141.098c-2.010 0-3.934-0.598-5.284-1.624l-250.594-285.032z" />
<glyph unicode="&#xe976;" d="M511.998 55.476c-121.342 0-220.060 98.72-220.060 220.060s98.716 220.060 220.060 220.060v-58.282c-89.206 0-161.78-72.572-161.78-161.78s72.574-161.78 161.78-161.78 161.78 72.572 161.78 161.78h58.282c0-121.338-98.72-220.058-220.062-220.058z" />
<glyph unicode="&#xe977;" d="M511.998-64c-187.222 0-339.538 152.318-339.538 339.538s152.318 339.534 339.538 339.534 339.538-152.318 339.538-339.538-152.318-339.534-339.538-339.534zM511.998 556.79c-155.084 0-281.256-126.17-281.256-281.256s126.172-281.254 281.256-281.254c155.086 0 281.256 126.17 281.256 281.256s-126.168 281.254-281.256 281.254z" />
<glyph unicode="&#xe978;" d="M226.908-57.864c-16.434 0-30.862 9.904-36.754 25.23l-45.812 119.106-119.108 45.808c-12.484 4.802-21.592 15.478-24.368 28.562s1.214 26.542 10.672 35.996l234.014 234.014 243.17-243.17-234.016-234.018c-7.436-7.434-17.306-11.528-27.798-11.528zM75.34 176.64l98.636-37.936c10.372-3.986 18.62-12.228 22.608-22.61l37.93-98.628 170.214 170.214-159.174 159.18-170.214-170.22z" />
<glyph unicode="&#xe979;" d="M797.066-57.87c-10.316 0-20.288 4.060-27.768 11.534l-51.976 51.974 41.998 41.998 30.17-30.17 37.936 98.636c3.988 10.376 12.232 18.62 22.614 22.608l98.624 37.932-191.214 191.214 41.998 41.996 213.018-213.018c9.454-9.456 13.444-22.91 10.67-35.99-2.776-13.084-11.884-23.762-24.368-28.564l-119.106-45.812-45.812-119.106c-4.798-12.48-15.478-21.592-28.558-24.368-2.736-0.58-5.494-0.864-8.226-0.864z" />
<glyph unicode="&#xe97a;" d="M868.33 393.522c12.774 39.35 77.62 72.174 77.62 115.782 0 43.61-64.846 76.436-77.62 115.786-13.242 40.78 19.462 105.366-5.242 139.314-24.954 34.286-96.646 23.014-130.934 47.968-33.948 24.704-45.244 96.508-86.024 109.748-39.35 12.774-90.518-38.256-134.126-38.256-43.61 0-94.776 51.034-134.126 38.256-40.784-13.242-52.076-85.044-86.024-109.748-34.286-24.954-105.98-13.68-130.934-47.968-24.706-33.944 8-98.53-5.242-139.314-12.774-39.35-77.62-72.174-77.62-115.786s64.846-76.436 77.62-115.786c13.242-40.784-19.462-105.366 5.242-139.314 24.954-34.286 96.646-23.014 130.934-47.968 33.948-24.706 45.244-96.51 86.024-109.752 39.35-12.776 90.518 38.256 134.126 38.256 43.61 0 94.776-51.034 134.126-38.256 40.784 13.242 52.076 85.044 86.024 109.748 34.286 24.954 105.98 13.68 130.934 47.964 24.704 33.956-8 98.544 5.242 139.326zM512.002 271.742c-131.204 0-237.564 106.36-237.564 237.564s106.36 237.564 237.564 237.564c54.622 0 104.938-18.434 145.068-49.422 56.26-43.444 92.496-111.562 92.496-188.142 0-131.202-106.36-237.564-237.564-237.564z" />
<glyph unicode="&#xe97b;" d="M632.586 64.744c-25.202 0-48.998 11.604-72.008 22.83-17.622 8.594-35.836 17.482-48.572 17.482s-30.954-8.888-48.572-17.482c-23.010-11.224-46.806-22.83-72.006-22.83-7.91 0-15.552 1.178-22.718 3.504-34.292 11.136-51.668 44.070-67.002 73.13-8.828 16.73-17.954 34.030-27.326 40.852-9.622 7.002-29.104 10.412-47.946 13.708-32.136 5.624-68.564 11.996-89.522 40.792-20.774 28.546-15.662 64.97-11.154 97.108 2.682 19.112 5.458 38.872 1.674 50.512-3.442 10.604-16.858 24.392-29.836 37.726-23.076 23.718-49.238 50.604-49.238 87.23s26.162 63.51 49.238 87.23c12.976 13.334 26.394 27.12 29.838 37.728 3.778 11.638 1.004 31.396-1.678 50.508-4.51 32.136-9.622 68.56 11.15 97.108 20.964 28.8 57.392 35.172 89.528 40.796 18.842 3.296 38.32 6.702 47.946 13.708 9.372 6.818 18.498 24.118 27.322 40.85 15.332 29.060 32.71 61.998 67.002 73.134 7.166 2.326 14.806 3.504 22.718 3.504 25.2 0 48.998-11.604 72.008-22.83 17.622-8.594 35.836-17.482 48.572-17.482 12.734 0 30.954 8.888 48.572 17.482 23.010 11.224 46.806 22.83 72.006 22.83 7.91 0 15.554-1.178 22.718-3.504 34.292-11.136 51.668-44.074 67.002-73.134 8.826-16.73 17.954-34.028 27.322-40.85 9.628-7.006 29.108-10.412 47.946-13.708 32.136-5.624 68.566-11.996 89.522-40.792 20.774-28.546 15.662-64.97 11.154-97.108-2.682-19.112-5.458-38.872-1.674-50.51 3.442-10.608 16.862-24.394 29.834-37.732 23.080-23.718 49.238-50.602 49.238-87.228s-26.162-63.51-49.238-87.228c-12.976-13.334-26.394-27.12-29.838-37.728-3.778-11.638-1.004-31.4 1.678-50.508 4.51-32.136 9.622-68.56-11.15-97.108-20.964-28.798-57.39-35.172-89.526-40.796-18.842-3.294-38.322-6.702-47.946-13.708-9.368-6.818-18.498-24.118-27.32-40.85-15.332-29.060-32.71-61.998-67.002-73.134-7.162-2.322-14.806-3.502-22.716-3.502zM512.002 164.444c26.446 0 50.93-11.944 74.61-23.492 16.954-8.268 34.482-16.82 45.972-16.82 1.696 0 3.13 0.196 4.378 0.602 11.356 3.688 22.756 25.294 32.814 44.36 11.988 22.722 24.386 46.224 44.902 61.158 20.766 15.112 47.148 19.726 72.662 24.19 21.052 3.682 44.912 7.858 51.742 17.242 6.64 9.126 3.3 32.914 0.356 53.904-3.62 25.778-7.362 52.436 0.65 77.104 7.718 23.766 26.040 42.596 43.756 60.808 15.192 15.614 32.412 33.31 32.412 45.808s-17.22 30.194-32.412 45.808c-17.72 18.21-36.042 37.040-43.756 60.808-8.008 24.668-4.27 51.326-0.65 77.104 2.942 20.988 6.284 44.778-0.36 53.904-6.826 9.384-30.688 13.556-51.738 17.238-25.514 4.464-51.896 9.078-72.662 24.19-20.52 14.934-32.918 38.432-44.906 61.158-10.058 19.062-21.458 40.668-32.816 44.36-1.244 0.404-2.676 0.602-4.374 0.602-11.49 0-29.016-8.55-45.968-16.82-23.68-11.548-48.164-23.492-74.61-23.492s-50.93 11.94-74.612 23.492c-16.95 8.268-34.48 16.82-45.968 16.82-1.696 0-3.13-0.196-4.378-0.602-11.356-3.688-22.756-25.298-32.814-44.36-11.988-22.726-24.386-46.224-44.902-61.158-20.766-15.112-47.148-19.726-72.662-24.19-21.052-3.682-44.912-7.858-51.742-17.242-6.64-9.126-3.3-32.914-0.356-53.904 3.62-25.778 7.362-52.436-0.65-77.104-7.718-23.766-26.040-42.596-43.756-60.804-15.192-15.614-32.412-33.31-32.412-45.812s17.22-30.198 32.412-45.812c17.72-18.21 36.042-37.040 43.756-60.804 8.008-24.67 4.27-51.326 0.65-77.108-2.942-20.988-6.284-44.778 0.36-53.904 6.826-9.384 30.688-13.556 51.738-17.238 25.514-4.464 51.896-9.078 72.658-24.19 20.522-14.934 32.92-38.432 44.908-61.158 10.058-19.062 21.458-40.67 32.814-44.36 1.248-0.404 2.678-0.602 4.378-0.602 11.486 0 29.016 8.55 45.966 16.82 23.68 11.552 48.162 23.496 74.61 23.496z" />
<glyph unicode="&#xe97c;" d="M512.002 242.048c-147.366 0-267.26 119.892-267.26 267.26s119.892 267.26 267.26 267.26c59.664 0 116.104-19.23 163.218-55.616 66.12-51.056 104.040-128.198 104.040-211.642 0-147.37-119.892-267.262-267.258-267.262zM512.002 717.174c-114.618 0-207.868-93.25-207.868-207.868s93.25-207.868 207.868-207.868 207.868 93.25 207.868 207.868c0 64.906-29.506 124.91-80.95 164.638-36.62 28.28-80.51 43.23-126.918 43.23z" />
<glyph unicode="&#xe97d;" d="M641.624 700.76h-259.24v184.060c0 41.456 33.728 75.18 75.18 75.18h108.88c41.452 0 75.18-33.724 75.18-75.18v-184.060zM434.232 752.608h155.544v132.212c0 12.864-10.466 23.332-23.332 23.332h-108.88c-12.866 0-23.332-10.468-23.332-23.332v-132.212z" />
<glyph unicode="&#xe97e;" d="M794.574-64h-565.144c-72.902 0-132.212 59.31-132.212 132.212v244.94c0 54.306 29.040 103.96 75.262 130.844v100.39c0 25.668 3.048 51.218 9.064 75.944 4.516 18.63 10.772 36.998 18.588 54.58 51.574 116.030 166.93 191.008 293.882 191.008h35.974c126.956 0 242.312-74.974 293.886-191.008 7.816-17.586 14.070-35.954 18.59-54.598 6.010-24.708 9.058-50.258 9.058-75.926v-100.39c46.222-26.884 75.262-76.536 75.262-130.844v-244.94c0.002-72.902-59.31-132.212-132.21-132.212zM494.018 814.070c-106.486 0-203.244-62.89-246.506-160.218-6.552-14.738-11.792-30.132-15.58-45.754-5.044-20.74-7.6-42.168-7.6-63.71v-133.226l-15.542-6.792c-36.278-15.856-59.722-51.662-59.722-91.216v-244.94c0-44.312 36.050-80.364 80.364-80.364h565.144c44.314 0 80.364 36.052 80.364 80.364v244.94c0 39.554-23.444 75.362-59.722 91.216l-15.542 6.792v133.226c0 21.542-2.554 42.972-7.596 63.692-3.792 15.638-9.032 31.034-15.586 45.774-43.262 97.326-140.022 160.218-246.506 160.218l-35.97-0.002z" />
<glyph unicode="&#xe97f;" d="M800.186 639.294c-45.986-118.242-149.676-200.702-270.196-200.702h-35.974c-120.52 0-224.21 82.46-270.196 200.702 45.986 118.242 149.676 200.702 270.196 200.702h35.974c120.524 0.002 224.21-82.46 270.196-200.702z" />
<glyph unicode="&#xe980;" d="M529.99 412.668h-35.974c-127.494 0-243.036 85.27-294.36 217.23l-3.652 9.398 3.652 9.398c51.324 131.96 166.864 217.228 294.36 217.228h35.974c127.494 0 243.036-85.266 294.36-217.228l3.652-9.398-3.652-9.398c-51.324-131.96-166.868-217.23-294.36-217.23zM251.8 639.296c45.164-106.522 139.264-174.778 242.218-174.778h35.974c102.954 0 197.054 68.258 242.218 174.778-45.164 106.52-139.264 174.778-242.218 174.778h-35.974c-102.954-0.004-197.054-68.258-242.218-174.778z" />
<glyph unicode="&#xe981;" d="M726.084-64h-428.164v246.696c0 44.726 36.39 81.12 81.118 81.12h265.928c44.73 0 81.118-36.39 81.118-81.12v-246.696zM349.768-12.152h324.472v194.848c0 16.14-13.13 29.27-29.27 29.27h-265.93c-16.14 0-29.27-13.13-29.27-29.27v-194.848z" />
<glyph unicode="&#xe982;" d="M527.056 338.24h-30.106c-19.398 0-35.122 15.726-35.122 35.122v105.368c0 19.398 15.726 35.122 35.122 35.122h30.106c19.398 0 35.122-15.726 35.122-35.122v-105.368c0-19.396-15.724-35.122-35.122-35.122z" />
<glyph unicode="&#xe983;" d="M527.058 312.316h-30.106c-33.66 0-61.046 27.386-61.046 61.046v105.37c0 33.66 27.384 61.046 61.046 61.046h30.106c33.66 0 61.046-27.386 61.046-61.046v-105.37c-0.002-33.66-27.386-61.046-61.046-61.046zM496.948 487.93c-5.070 0-9.198-4.128-9.198-9.198v-105.37c0-5.074 4.128-9.198 9.198-9.198h30.106c5.070 0 9.198 4.128 9.198 9.198v105.37c0 5.074-4.128 9.198-9.198 9.198h-30.106z" />
<glyph unicode="&#xe984;" d="M172.474 428.116h51.848v-290.582h-51.848v290.582z" />
<glyph unicode="&#xe985;" d="M799.68 428.116h51.848v-290.582h-51.848v290.582z" />
<glyph unicode="&#xe986;" d="M749.686 662.236h-59.422v120.634c0 45.072-36.67 81.74-81.74 81.74h-193.048c-45.072 0-81.74-36.67-81.74-81.74v-120.634h-59.422v120.634c0 77.836 63.326 141.162 141.162 141.162h193.048c77.836 0 141.162-63.326 141.162-141.162v-120.634z" />
<glyph unicode="&#xe987;" d="M901.354-28.032h-778.71c-67.626 0-122.644 55.018-122.644 122.644v531.664c0 67.624 55.018 122.644 122.644 122.644h778.714c67.624 0 122.644-55.018 122.644-122.644v-531.666c-0.004-67.624-55.020-122.642-122.648-122.642zM122.644 689.498c-34.862 0-63.222-28.362-63.222-63.222v-531.666c0-34.86 28.358-63.222 63.222-63.222h778.714c34.86 0 63.222 28.358 63.222 63.222v531.666c0 34.86-28.36 63.222-63.222 63.222h-778.714z" />
<glyph unicode="&#xe988;" d="M123.076 719.756c-53.848 0-93.82-50.446-80.908-102.722 46.376-187.776 216.772-328.084 418.348-328.084h102.962c201.576 0 371.974 140.31 418.348 328.084 12.912 52.276-27.060 102.722-80.908 102.722 0.002 0-777.842 0-777.842 0z" />
<glyph unicode="&#xe989;" d="M563.48 259.238h-102.962c-103.222 0-204.746 35.542-285.872 100.086-79.8 63.486-137.092 152.478-161.324 250.584-8.322 33.7-0.788 68.748 20.676 96.156 21.6 27.584 54.068 43.402 89.076 43.402h777.85c35.012 0 67.476-15.818 89.076-43.402 21.464-27.408 28.998-62.456 20.676-96.154-24.232-98.108-81.524-187.1-161.324-250.586-81.126-64.54-182.65-100.086-285.872-100.086zM123.074 690.044c-16.618 0-32.034-7.514-42.294-20.614-10.122-12.928-13.684-29.428-9.772-45.274 44.43-179.872 204.6-305.498 389.508-305.498h102.962c184.908 0 345.078 125.626 389.506 305.498 3.912 15.844 0.354 32.344-9.772 45.27-10.26 13.102-25.676 20.614-42.294 20.614l-777.844 0.004z" />
<glyph unicode="&#xe98a;" d="M321.274 202.71h-34.504c-22.232 0-40.252 18.022-40.252 40.252v120.76c0 22.232 18.022 40.252 40.252 40.252h34.504c22.232 0 40.252-18.022 40.252-40.252v-120.76c0-22.228-18.018-40.252-40.252-40.252z" />
<glyph unicode="&#xe98b;" d="M321.274 173h-34.504c-38.576 0-69.962 31.386-69.962 69.962v120.762c0 38.576 31.386 69.962 69.962 69.962h34.504c38.576 0 69.962-31.386 69.962-69.962v-120.762c0.004-38.576-31.382-69.962-69.962-69.962zM286.772 374.266c-5.814 0-10.542-4.73-10.542-10.542v-120.762c0-5.814 4.73-10.542 10.542-10.542h34.504c5.814 0 10.542 4.73 10.542 10.542v120.762c0 5.814-4.73 10.542-10.542 10.542h-34.504z" />
<glyph unicode="&#xe98c;" d="M737.226 202.71h-34.504c-22.232 0-40.252 18.022-40.252 40.252v120.76c0 22.232 18.022 40.252 40.252 40.252h34.504c22.232 0 40.252-18.022 40.252-40.252v-120.76c0-22.228-18.020-40.252-40.252-40.252z" />
<glyph unicode="&#xe98d;" d="M737.226 173h-34.504c-38.576 0-69.962 31.386-69.962 69.962v120.762c0 38.576 31.386 69.962 69.962 69.962h34.504c38.576 0 69.962-31.386 69.962-69.962v-120.762c0.004-38.576-31.384-69.962-69.962-69.962zM702.722 374.266c-5.814 0-10.542-4.73-10.542-10.542v-120.762c0-5.814 4.73-10.542 10.542-10.542h34.504c5.814 0 10.542 4.73 10.542 10.542v120.762c0 5.814-4.73 10.542-10.542 10.542h-34.504z" />
<glyph unicode="&#xe98e;" d="M851.464 167.988h-678.928v283.782c0 197.084 152.284 357.428 339.464 357.428s339.464-160.344 339.464-357.428v-283.782zM229.114 224.564h565.774v227.204c0 165.89-126.9 300.854-282.888 300.854-155.984 0-282.886-134.96-282.886-300.85v-227.208z" />
<glyph unicode="&#xe98f;" d="M634.038 91.508h-244.126c-4.090 0-5.090-4.9-4.95-7.322 3.794-66.854 59.208-119.898 127.014-119.898 38.23 0 72.52 16.862 95.842 43.556 0.118 0.138 0.232 0.282 0.35 0.422 1.168 1.35 2.32 2.716 3.432 4.116 0.212 0.266 0.408 0.546 0.616 0.814 1.004 1.284 2 2.574 2.956 3.898 0.116 0.162 0.224 0.33 0.34 0.496 2.182 3.046 4.238 6.186 6.148 9.426 0.048 0.084 0.094 0.172 0.142 0.254 0.954 1.624 1.876 3.268 2.756 4.94 0.026 0.048 0.048 0.1 0.074 0.15 1.824 3.466 3.494 7.024 4.998 10.668 0.028 0.066 0.050 0.132 0.076 0.2 2.252 5.482 4.136 11.158 5.61 16.99 0.26 1.036 0.476 2.088 0.712 3.132 0.212 0.942 0.45 1.878 0.642 2.828 0.108 0.538 0.186 1.090 0.288 1.63 0.514 2.732 0.936 5.496 1.274 8.288 0.286 2.362 0.514 4.742 0.668 7.142 0.032 0.472 0.084 0.936 0.11 1.408 0.014 0.282 0.032 0.606 0.036 0.948 0.046 2.398-0.398 5.914-5.008 5.914z" />
<glyph unicode="&#xe990;" d="M511.974-64c-82.396 0-150.592 64.388-155.256 146.586-0.572 9.998 2.998 20.108 9.544 27.038 6.196 6.56 14.596 10.172 23.65 10.172h244.126c9.208 0 17.678-3.46 23.848-9.746 4.436-4.52 9.678-12.52 9.448-24.982-0.008-0.592-0.036-1.206-0.060-1.756-0.042-0.758-0.084-1.356-0.142-1.946-0.182-2.804-0.456-5.746-0.814-8.69-0.416-3.446-0.942-6.862-1.558-10.128-0.124-0.738-0.23-1.34-0.348-1.932-0.196-0.97-0.402-1.858-0.612-2.746l-0.346-1.522c-0.22-1.010-0.444-2.022-0.696-3.022-1.756-6.94-4.006-13.786-6.702-20.41l-0.3-0.75c-1.746-4.238-3.754-8.532-5.944-12.71l-0.234-0.456c-1.018-1.934-2.084-3.842-3.188-5.726l-0.356-0.626c-2.22-3.77-4.688-7.562-7.332-11.274-0.184-0.272-0.362-0.526-0.54-0.776-1.182-1.638-2.36-3.172-3.544-4.69-0.322-0.432-0.612-0.81-0.906-1.18-1.278-1.606-2.642-3.234-4.026-4.834l-0.418-0.5c-29.706-33.994-72.402-53.394-117.294-53.394zM417.136 63.22c12.2-41.022 50.25-70.642 94.838-70.642 28.444 0 55.514 12.252 74.314 33.624l0.342 0.408c1.002 1.156 1.852 2.164 2.67 3.186 0.234 0.312 0.438 0.582 0.648 0.848 0.718 0.922 1.46 1.872 2.17 2.848l0.346 0.5c1.706 2.384 3.248 4.742 4.63 7.058 0.116 0.206 0.232 0.414 0.354 0.616 0.608 1.036 1.236 2.148 1.842 3.278l0.492 0.942c1.288 2.47 2.472 4.996 3.524 7.516l0.282 0.694c1.206 2.936 2.288 6.006 3.22 9.124h-189.672z" />
<glyph unicode="&#xe991;" d="M840.742 67.502h-74.144v56.578h74.144c5.912 0 10.722 4.81 10.722 10.722v22.63c0 5.912-4.81 10.724-10.722 10.724h-657.482c-5.912 0-10.724-4.81-10.724-10.724v-22.63c0-5.912 4.812-10.722 10.724-10.722h498.472v-56.578h-498.472c-37.11 0-67.302 30.19-67.302 67.298v22.63c0 37.11 30.19 67.302 67.302 67.302h657.484c37.11 0 67.298-30.19 67.298-67.302v-22.63c0-37.108-30.19-67.298-67.3-67.298z" />
<glyph unicode="&#xe992;" d="M512 780.91c29.366 0 57.844-4.368 84.866-12.52v78.456c0 46.676-38.19 84.866-84.866 84.866s-84.866-38.19-84.866-84.866v-78.456c27.024 8.152 55.5 12.52 84.866 12.52z" />
<glyph unicode="&#xe993;" d="M398.846 730.302v116.544c0 62.392 50.76 113.154 113.154 113.154s113.154-50.762 113.154-113.154v-116.544l-36.462 11.004c-49.768 15.022-103.628 15.022-153.386 0l-36.46-11.004zM512 809.198c19.012 0 37.936-1.678 56.578-5.004v42.652c0 31.196-25.38 56.578-56.578 56.578s-56.578-25.38-56.578-56.578v-42.65c18.642 3.326 37.568 5.002 56.578 5.002z" />
<glyph unicode="&#xe994;" d="M330.010 465.516h-56.578c0 128.892 99.83 233.752 222.538 233.752v-56.578c-91.51 0.002-165.96-79.478-165.96-177.174z" />
<glyph unicode="&#xe995;" d="M284.127 460.885c-8.506 0-16.414 1.366-23.72 4.090-7.308 2.726-13.576 6.544-18.814 11.452-5.232 4.906-9.38 10.68-12.432 17.338-3.058 6.652-4.576 13.906-4.576 21.758 0 8.506 1.798 16.248 5.396 23.228s8.67 12.976 15.214 17.994c6.544 5.014 14.286 8.942 23.228 11.778 8.942 2.83 18.864 4.252 29.774 4.252 7.196 0 14.174-0.604 20.938-1.8 6.756-1.2 12.648-3 17.666-5.4v7.852c0 19.846-11.452 29.774-34.352 29.774-9.38 0-18.322-1.584-26.828-4.746s-17.45-7.904-26.828-14.228l-15.376 32.714c11.338 7.416 23.114 12.976 35.334 16.684 12.214 3.71 25.192 5.562 38.934 5.562 25.956 0 46.016-6.104 60.196-18.32 14.174-12.218 21.266-30.098 21.266-53.656v-44.168c0-5.232 0.818-8.888 2.456-10.958 1.632-2.076 4.526-3.328 8.668-3.762v-44.168c-4.576-1.090-8.724-1.8-12.428-2.13-3.714-0.324-7.088-0.492-10.144-0.492-9.818 0-17.232 1.914-22.246 5.73-5.022 3.81-8.182 9.21-9.49 16.194l-0.982 7.852c-7.636-9.818-16.742-17.344-27.32-22.576-10.58-5.228-21.752-7.848-33.534-7.848zM299.509 498.509c5.666 0 11.172 0.982 16.52 2.946 5.342 1.962 9.76 4.582 13.252 7.852 5.014 3.924 7.524 8.068 7.524 12.432v16.358c-4.582 1.744-9.542 3.108-14.884 4.090-5.346 0.982-10.306 1.47-14.884 1.47-9.598 0-17.504-2.186-23.72-6.544-6.218-4.366-9.328-10.036-9.328-17.014 0-6.328 2.398-11.51 7.2-15.544 4.792-4.034 10.902-6.046 18.32-6.046z" />
<glyph unicode="&#xe996;" d="M530.155 460.885c-13.090 0-24.536 2.782-34.354 8.344-9.814 5.562-17.556 13.358-23.228 23.392v-28.466h-45.474v238.828h52.344v-95.2c5.672 9.814 13.252 17.5 22.736 23.060 9.49 5.562 20.662 8.344 33.536 8.344 10.904 0 20.938-2.342 30.098-7.032 9.162-4.69 17.014-11.072 23.558-19.138 6.544-8.072 11.666-17.618 15.376-28.628 3.704-11.018 5.562-22.738 5.562-35.168s-2.018-24.046-6.052-34.842c-4.036-10.8-9.652-20.18-16.846-28.136-7.2-7.966-15.704-14.18-25.522-18.652-9.814-4.47-20.394-6.706-31.734-6.706zM515.433 505.049c6.104 0 11.666 1.146 16.684 3.438 5.014 2.292 9.322 5.4 12.922 9.324 3.6 3.93 6.43 8.556 8.506 13.906 2.072 5.342 3.108 11.176 3.108 17.504 0 6.104-0.982 11.944-2.944 17.504-1.968 5.562-4.638 10.414-8.018 14.558-3.382 4.142-7.472 7.416-12.268 9.814-4.8 2.398-9.928 3.6-15.376 3.6-8.292 0-15.87-2.838-22.74-8.506-6.868-5.676-12.162-12.76-15.866-21.266v-35.99c3.486-7.418 8.556-13.252 15.214-17.504 6.654-4.252 13.578-6.382 20.778-6.382z" />
<glyph unicode="&#xe997;" d="M626.341 550.199c0 11.778 2.072 23.066 6.214 33.86 4.142 10.8 10.144 20.284 17.994 28.466s17.504 14.666 28.954 19.466c11.452 4.794 24.48 7.196 39.094 7.196 19.846 0 36.532-4.198 50.058-12.594 13.518-8.4 23.662-19.356 30.428-32.88l-51.042-15.376c-6.762 10.904-16.684 16.358-29.768 16.358-10.908 0-20.014-4.036-27.32-12.106-7.314-8.072-10.962-18.864-10.962-32.39 0-6.762 0.982-12.922 2.944-18.484 1.968-5.562 4.69-10.306 8.178-14.232 3.486-3.924 7.578-6.98 12.27-9.158 4.688-2.186 9.646-3.276 14.884-3.276 6.544 0 12.54 1.582 17.994 4.746 5.448 3.156 9.484 7.248 12.106 12.266l51.036-15.704c-6.328-13.304-16.414-24.208-30.26-32.712-13.856-8.508-30.704-12.76-50.55-12.76-14.394 0-27.32 2.452-38.766 7.362-11.452 4.906-21.162 11.452-29.118 19.628-7.966 8.178-14.018 17.666-18.16 28.466-4.136 10.792-6.208 22.082-6.208 33.858z" />
<glyph unicode="&#xe998;" d="M957.084 192.715h-890.17v638.027c0 55.566 45.21 100.776 100.78 100.776h688.613c55.57 0 100.78-45.21 100.78-100.776v-638.027zM123.692 249.495h776.614v581.247c0 24.262-19.74 43.998-44 43.998h-688.615c-24.262 0-44-19.736-44-43.998v-581.247z" />
<glyph unicode="&#xe999;" d="M220.988 222.067l-121.362-184.374c-14.24-20.316 5.162-44.824 35.486-44.824h76.48c14.862 0 28.508 6.22 35.486 16.176l141.26 213.022h-167.35z" />
<glyph unicode="&#xe99a;" d="M211.594-35.52h-76.48c-27.504 0-51.504 13.284-62.626 34.67-9.142 17.572-7.784 37.888 3.614 54.44l129.586 196.868h235.544l-170.9-257.701c-12.41-17.706-34.368-28.276-58.738-28.276zM124.542 23.91c1.88-1.216 5.314-2.652 10.572-2.652h76.48c6.442 0 10.978 2.512 12.144 3.96l111.712 168.46h-99.164l-111.744-169.768z" />
<glyph unicode="&#xe99b;" d="M803.010 222.067h-167.352l141.26-213.022c6.978-9.956 20.628-16.176 35.486-16.176h76.48c30.326 0 49.73 24.508 35.486 44.824l-121.36 184.374z" />
<glyph unicode="&#xe99c;" d="M888.884-35.52h-76.48c-24.37 0-46.326 10.57-58.732 28.272l-0.414 0.604-170.49 257.099h235.544l129.586-196.868c11.402-16.55 12.756-36.864 3.614-54.44-11.124-21.384-35.12-34.668-62.628-34.668zM800.258 25.22c1.166-1.448 5.706-3.96 12.146-3.96h76.48c5.258 0 8.692 1.436 10.572 2.652l-111.746 169.768h-99.164l111.712-168.46z" />
<glyph unicode="&#xe99d;" d="M0 249.501h1024v-56.778h-1024v56.778z" />
<glyph unicode="&#xe99e;" d="M853.164-64h-682.328c-65.574 0-118.92 53.348-118.92 118.92v786.16c0.002 65.572 53.35 118.92 118.92 118.92h682.328c65.574 0 118.92-53.348 118.92-118.92v-786.16c0-65.572-53.346-118.92-118.92-118.92zM170.836 903.002c-34.142 0-61.922-27.778-61.922-61.922v-786.16c0-34.142 27.778-61.922 61.922-61.922h682.328c34.142 0 61.922 27.778 61.922 61.922v786.16c0 34.142-27.778 61.922-61.922 61.922h-682.328z" />
<glyph unicode="&#xe99f;" d="M853.164 931.502h-682.328c-49.936 0-90.418-40.482-90.418-90.418v-786.164c0-49.936 40.482-90.418 90.418-90.418h682.328c49.936 0 90.418 40.482 90.418 90.418v786.162c0 49.936-40.478 90.42-90.418 90.42zM827.954 145.268c0-35.978-29.164-65.14-65.14-65.14h-501.626c-35.978 0-65.14 29.164-65.14 65.14v605.464c0 35.978 29.164 65.14 65.14 65.14h501.624c35.978 0 65.14-29.164 65.14-65.14v-605.464z" />
<glyph unicode="&#xe9a0;" d="M853.164-64h-682.328c-65.57 0-118.918 53.348-118.918 118.92v786.16c0.002 65.572 53.35 118.92 118.918 118.92h682.328c65.57 0 118.918-53.348 118.918-118.92v-786.16c0-65.572-53.348-118.92-118.918-118.92zM170.836 903.002c-34.142 0-61.92-27.778-61.92-61.922v-786.16c0-34.142 27.776-61.922 61.92-61.922h682.328c34.142 0 61.92 27.778 61.92 61.922v786.16c0 34.142-27.776 61.922-61.92 61.922h-682.328zM762.814 51.632h-501.628c-51.632 0-93.636 42.004-93.636 93.636v605.464c0 51.632 42.004 93.636 93.636 93.636h501.628c51.632 0 93.636-42.004 93.636-93.636v-605.464c0.004-51.632-42.004-93.636-93.636-93.636zM261.186 787.374c-20.202 0-36.638-16.438-36.638-36.638v-605.464c0-20.202 16.438-36.638 36.638-36.638h501.628c20.202 0 36.638 16.438 36.638 36.638v605.46c0 20.202-16.438 36.638-36.638 36.638l-501.628 0.004z" />
<glyph unicode="&#xe9a1;" d="M310.364 340.888c-7.526 0-14.524 1.208-20.986 3.62-6.466 2.412-12.012 5.788-16.646 10.134-4.632 4.34-8.302 9.454-11 15.342-2.704 5.886-4.050 12.302-4.050 19.252 0 7.526 1.59 14.378 4.774 20.554 3.186 6.176 7.672 11.482 13.462 15.922 5.788 4.438 12.64 7.914 20.554 10.424 7.914 2.506 16.694 3.762 26.348 3.762 6.366 0 12.542-0.536 18.528-1.594 5.98-1.064 11.192-2.654 15.632-4.78v6.948c0 17.562-10.134 26.348-30.398 26.348-8.302 0-16.214-1.402-23.74-4.2s-15.44-6.994-23.74-12.59l-13.606 28.946c10.032 6.56 20.454 11.482 31.264 14.766 10.806 3.284 22.292 4.922 34.45 4.922 22.968 0 40.72-5.404 53.268-16.21 12.542-10.812 18.818-26.632 18.818-47.476v-39.084c0-4.632 0.724-7.866 2.174-9.696 1.444-1.836 4.004-2.944 7.67-3.328v-39.084c-4.050-0.966-7.72-1.594-10.998-1.884-3.286-0.288-6.272-0.434-8.974-0.434-8.686 0-15.246 1.692-19.684 5.068-4.442 3.372-7.238 8.15-8.398 14.33l-0.87 6.948c-6.758-8.686-14.814-15.344-24.172-19.974-9.372-4.636-19.256-6.952-29.68-6.952zM323.972 374.178c5.016 0 9.886 0.87 14.618 2.608 4.728 1.736 8.638 4.052 11.728 6.948 4.438 3.472 6.658 7.14 6.658 11v14.474c-4.052 1.542-8.444 2.75-13.172 3.62-4.73 0.87-9.116 1.302-13.172 1.302-8.492 0-15.49-1.932-20.986-5.788-5.504-3.864-8.254-8.88-8.254-15.056 0-5.6 2.124-10.182 6.37-13.754 4.24-3.57 9.646-5.354 16.21-5.354z" />
<glyph unicode="&#xe9a2;" d="M528.068 340.888c-11.582 0-21.714 2.46-30.4 7.382-8.684 4.922-15.534 11.818-20.554 20.702v-25.188h-40.238v211.33h46.32v-84.24c5.018 8.684 11.728 15.486 20.12 20.406 8.398 4.922 18.282 7.382 29.676 7.382 9.65 0 18.528-2.072 26.632-6.224 8.108-4.15 15.056-9.796 20.844-16.934 5.788-7.142 10.322-15.588 13.606-25.332 3.278-9.75 4.922-20.12 4.922-31.12s-1.786-21.278-5.354-30.83c-3.574-9.556-8.542-17.858-14.908-24.896-6.37-7.048-13.896-12.548-22.582-16.504-8.69-3.956-18.052-5.934-28.084-5.934zM515.036 379.968c5.404 0 10.322 1.014 14.766 3.040 4.438 2.026 8.25 4.78 11.436 8.25 3.186 3.476 5.688 7.572 7.526 12.302 1.832 4.728 2.75 9.89 2.75 15.49 0 5.404-0.87 10.568-2.604 15.49-1.738 4.922-4.104 9.214-7.096 12.882-2.992 3.664-6.612 6.56-10.856 8.684-4.246 2.124-8.784 3.186-13.606 3.186-7.338 0-14.044-2.51-20.124-7.526-6.076-5.022-10.762-11.292-14.038-18.818v-31.844c3.084-6.564 7.572-11.728 13.462-15.49 5.89-3.764 12.014-5.646 18.384-5.646z" />
<glyph unicode="&#xe9a3;" d="M613.18 419.918c0 10.424 1.832 20.412 5.5 29.96 3.664 9.556 8.974 17.948 15.922 25.188 6.948 7.238 15.49 12.978 25.624 17.224 10.134 4.244 21.662 6.366 34.592 6.366 17.562 0 32.326-3.716 44.296-11.146 11.964-7.432 20.938-17.128 26.922-29.094l-45.166-13.606c-5.982 9.65-14.766 14.474-26.342 14.474-9.652 0-17.71-3.574-24.172-10.71-6.472-7.142-9.698-16.694-9.698-28.662 0-5.982 0.87-11.436 2.604-16.356 1.738-4.922 4.15-9.116 7.238-12.594 3.084-3.472 6.704-6.176 10.858-8.102 4.146-1.932 8.538-2.898 13.172-2.898 5.788 0 11.094 1.4 15.922 4.2 4.822 2.792 8.394 6.412 10.71 10.856l45.16-13.896c-5.6-11.772-14.524-21.422-26.778-28.946-12.26-7.53-27.168-11.292-44.73-11.292-12.736 0-24.172 2.168-34.302 6.514-10.134 4.34-18.724 10.134-25.766 17.368-7.048 7.238-12.402 15.632-16.070 25.188-3.666 9.556-5.496 19.546-5.496 29.964z" />
<glyph unicode="&#xe9a4;" d="M589.788 929.882h205.836v-328.62c0-7.056-8.586-11.842-16.388-9.138l-81.986 28.45c-2.91 1.008-6.178 1.008-9.086 0l-81.986-28.45c-7.8-2.708-16.386 2.082-16.386 9.138l-0.004 328.62z" />
<glyph unicode="&#xe9a5;" d="M783.794 561.242c-4.928 0-9.782 0.816-14.436 2.436l-76.65 26.594-76.658-26.596c-4.644-1.614-9.502-2.434-14.426-2.434-23.13 0-41.95 17.954-41.95 40.020v358.738h266.072v-358.738c-0.004-22.066-18.822-40.020-41.952-40.020zM692.706 651.448c4.936 0 9.786-0.814 14.414-2.418l58.386-20.26v270.994h-145.6v-270.996l58.384 20.258c4.63 1.608 9.48 2.422 14.416 2.422z" />
<glyph unicode="&#xe9a6;" d="M837.27-64h-611.388c-74.73 0-135.53 60.798-135.53 135.53v752.94c0 74.732 60.8 135.53 135.53 135.53h611.388c53.142 0 96.376-43.234 96.376-96.376v-831.248c0.002-53.142-43.232-96.376-96.376-96.376zM225.882 899.764c-41.518 0-75.294-33.776-75.294-75.294v-752.942c0-41.518 33.776-75.294 75.294-75.294h611.388c19.928 0 36.142 16.212 36.142 36.142v831.248c0 19.928-16.212 36.142-36.142 36.142h-611.388z" />
<glyph unicode="&#xe9a7;" d="M695.040 102.65h-233.566c-30.476 0-55.272 24.796-55.272 55.274v73.174h60.236v-68.21h223.638v63.248h-166.030v60.236h170.992c30.476 0 55.272-24.792 55.272-55.272v-73.174c0.002-30.48-24.79-55.276-55.27-55.276z" />
<glyph unicode="&#xe9a8;" d="M234.918 929.882h60.236v-963.764h-60.236v963.764z" />
<glyph unicode="&#xe9a9;" d="M190.948 103.72h180.276v-127.766c0-6.18-7.522-10.372-14.354-8.004l-71.804 24.916c-2.546 0.886-5.412 0.886-7.958 0l-71.804-24.916c-6.832-2.37-14.354 1.824-14.354 8.004l-0.002 127.766z" />
<glyph unicode="&#xe9aa;" d="M360.862-64c-4.858 0-9.65 0.806-14.24 2.402l-65.534 22.742-65.534-22.742c-4.592-1.596-9.384-2.402-14.24-2.402-22.962 0-41.644 17.922-41.644 39.952v159.048h242.832v-159.048c0-22.026-18.68-39.948-41.64-39.952zM281.088 24.81c4.866 0 9.652-0.804 14.222-2.386l44.64-15.492v65.512h-117.72v-65.512l44.628 15.486c4.58 1.588 9.362 2.392 14.23 2.392z" />
<glyph unicode="&#xe9ab;" d="M748.242 74.598h-561.68c-70.644 0-128.116 57.472-128.116 128.12v629.162c0.002 70.648 57.476 128.12 128.116 128.12h561.678c50.81 0 92.148-41.34 92.148-92.15v-701.1c0.006-50.812-41.334-92.152-92.146-92.152zM186.562 897.444c-36.15 0-65.562-29.41-65.562-65.564v-629.162c0-36.154 29.41-65.564 65.562-65.564h561.678c16.318 0 29.592 13.274 29.592 29.596v701.1c0 16.32-13.274 29.596-29.592 29.596h-561.678z" />
<glyph unicode="&#xe9ac;" d="M571.166 76.812c-71.654 0-139.020 27.902-189.688 78.57-50.666 50.666-78.57 118.030-78.57 189.688s27.902 139.020 78.57 189.688c50.666 50.664 118.032 78.566 189.688 78.566s139.020-27.902 189.688-78.566c50.666-50.666 78.572-118.032 78.572-189.688s-27.902-139.018-78.572-189.688c-50.664-50.666-118.034-78.57-189.688-78.57zM571.166 550.768c-54.946 0-106.6-21.394-145.454-60.248-38.85-38.854-60.248-90.508-60.248-145.454 0-54.942 21.398-106.6 60.248-145.452 38.854-38.854 90.508-60.25 145.454-60.25s106.6 21.398 145.452 60.25c38.854 38.85 60.25 90.508 60.25 145.45 0 54.946-21.398 106.6-60.25 145.454-38.85 38.856-90.506 60.25-145.452 60.25z" />
<glyph unicode="&#xe9ad;" d="M738.738 177.498c-20.528-20.528-43.888-36.492-68.824-47.914l123.494-123.494c32.104-32.104 84.634-32.104 116.734 0 32.104 32.104 32.104 84.634 0 116.734l-123.494 123.494c-11.416-24.93-27.384-48.292-47.91-68.82z" />
<glyph unicode="&#xe9ae;" d="M851.782-49.266c-30.468 0-59.050 11.802-80.484 33.236l-155.31 155.31 40.908 18.738c22.204 10.172 42.3 24.168 59.732 41.596 17.424 17.422 31.418 37.518 41.596 59.732l18.738 40.902 155.31-155.306c44.376-44.38 44.376-116.588 0-160.972-21.442-21.43-50.022-33.236-80.49-33.236zM721.138 122.598l94.39-94.39c9.618-9.618 22.492-14.916 36.25-14.916 13.76 0 26.634 5.296 36.25 14.916s14.916 22.492 14.916 36.25c0 13.76-5.298 26.634-14.916 36.25l-94.386 94.39c-9.58-14.188-20.534-27.462-32.788-39.714-12.254-12.256-25.532-23.212-39.716-32.786z" />
<glyph unicode="&#xe9af;" d="M246.124 763.95h407.644v-62.556h-407.644v62.556z" />
<glyph unicode="&#xe9b0;" d="M853.164-64h-682.328c-65.57 0-118.918 53.348-118.918 118.92v786.16c0 65.572 53.348 118.92 118.918 118.92h682.328c65.57 0 118.918-53.348 118.918-118.92v-786.16c0-65.572-53.344-118.92-118.918-118.92zM170.836 903.002c-34.142 0-61.92-27.778-61.92-61.922v-786.16c0-34.142 27.778-61.922 61.92-61.922h682.328c34.142 0 61.92 27.778 61.92 61.922v786.16c0 34.142-27.778 61.922-61.92 61.922h-682.328z" />
<glyph unicode="&#xe9b1;" d="M618.896 910.968h187.412v-405.062c0-13.38-13.602-22.458-25.96-17.328l-60.552 25.154c-4.608 1.916-9.786 1.916-14.394 0l-60.552-25.154c-12.354-5.132-25.96 3.948-25.96 17.328v405.062h0.006z" />
<glyph unicode="&#xe9b2;" d="M787.566 458.626c-6.232 0-12.338 1.226-18.142 3.634l-56.816 23.6-56.816-23.6c-5.808-2.412-11.91-3.634-18.142-3.634-26.054 0-47.248 21.208-47.248 47.28v433.56h244.41v-433.56c-0.002-26.068-21.196-47.278-47.246-47.28zM647.396 882.468v-361.974l47.080 19.556c11.544 4.8 24.708 4.802 36.262-0.002l47.074-19.554v361.974h-130.416z" />
<glyph unicode="&#xe9b3;" d="M281.72 931.502h-110.884c-49.936 0-90.418-40.482-90.418-90.418v-786.164c0-49.936 40.482-90.418 90.418-90.418h110.882l0.002 967z" />
<glyph unicode="&#xe9b4;" d="M310.218-64h-139.382c-65.57 0-118.918 53.348-118.918 118.92v786.16c0 65.572 53.348 118.92 118.918 118.92h139.382v-1024zM170.836 903.002c-34.142 0-61.92-27.778-61.92-61.922v-786.16c0-34.142 27.778-61.922 61.92-61.922h82.384v910.004h-82.384z" />
<glyph unicode="&#xe9b5;" d="M950.792 838.734h-383.118c-1.17 0-2.322-0.272-3.368-0.794l-48.936-24.468c-2.12-1.062-4.616-1.062-6.736 0l-48.938 24.468c-1.046 0.522-2.198 0.794-3.368 0.794h-383.12c-25.548 0-46.26-20.712-46.26-46.26v-688.956c0-25.544 20.712-46.256 46.26-46.256h877.586c25.548 0 46.26 20.712 46.26 46.26v688.952c-0.002 25.548-20.714 46.26-46.262 46.26zM889.264 176.382c0-6.26-5.074-11.332-11.332-11.332h-724.332c-10.418 0-18.864 8.446-18.864 18.864v528.168c0 10.418 8.446 18.864 18.864 18.864h277.28c1.17 0 2.322-0.272 3.368-0.794l74.382-37.192c2.12-1.060 4.616-1.060 6.736 0v0l74.382 37.192c1.046 0.522 2.198 0.794 3.368 0.794h284.812c6.258 0 11.332-5.074 11.332-11.332l0.004-543.232z" />
<glyph unicode="&#xe9b6;" d="M950.792 30.316h-877.584c-40.368 0-73.208 32.84-73.208 73.202v688.958c0 40.364 32.84 73.206 73.208 73.206h383.118c5.314 0 10.636-1.256 15.396-3.628l40.278-20.138 40.254 20.126c4.784 2.384 10.106 3.64 15.42 3.64h383.118c40.368 0 73.208-32.842 73.208-73.206v-688.958c0-40.362-32.84-73.202-73.208-73.202zM73.208 811.786c-10.65 0-19.314-8.664-19.314-19.31v-688.958c0-10.646 8.664-19.31 19.314-19.31h877.586c10.65 0 19.314 8.664 19.314 19.31v688.958c0 10.646-8.664 19.31-19.314 19.31h-378.536l-44.838-22.416c-9.526-4.764-21.312-4.764-30.838 0l-44.838 22.418h-378.536zM877.932 138.106h-724.332c-25.26 0-45.81 20.55-45.81 45.81v528.168c0 25.26 20.55 45.81 45.81 45.81h277.28c5.308 0 10.628-1.254 15.384-3.622l65.736-32.87 65.698 32.848c4.792 2.388 10.11 3.64 15.42 3.64h284.812c21.108 0 38.282-17.17 38.282-38.278v-543.232c-0.002-21.104-17.174-38.274-38.28-38.274zM161.684 192h700.632v512h-264.616l-70.282-35.142c-9.528-4.764-21.312-4.764-30.838 0l-70.28 35.142h-264.616v-512z" />
<glyph unicode="&#xe9b7;" d="M220.57 729.148h129.746v-223.068c0-9.262-9.418-15.548-17.972-11.994l-41.92 17.414c-3.19 1.326-6.774 1.326-9.966 0l-41.92-17.414c-8.554-3.554-17.972 2.732-17.972 11.994 0.004 0 0.004 223.068 0.004 223.068z" />
<glyph unicode="&#xe9b8;" d="M337.338 466.132c-5.268 0-10.426 1.034-15.328 3.070l-36.568 15.19-36.564-15.19c-4.902-2.034-10.060-3.070-15.328-3.070-22.016 0-39.926 17.92-39.926 39.95v250.012h183.638v-250.012c0.002-22.026-17.908-39.95-39.924-39.95zM247.516 702.2v-175.206l22.606 9.392c9.768 4.050 20.874 4.052 30.632 0.002l22.614-9.394v175.206h-75.852z" />
<glyph unicode="&#xe9b9;" d="M481.684 692.952h53.894v-527.898h-53.894v527.898z" />
<glyph unicode="&#xe9ba;" d="M249.11 69.612h155.19v-99.216c0-5.32-6.476-8.928-12.356-6.89l-61.816 21.448c-2.192 0.762-4.658 0.762-6.85 0l-61.812-21.448c-5.88-2.040-12.356 1.57-12.356 6.89 0-0.002 0 99.216 0 99.216z" />
<glyph unicode="&#xe9bb;" d="M395.376-64c-4.184 0-8.306 0.694-12.26 2.066l-56.414 19.578-56.412-19.574c-3.956-1.37-8.078-2.068-12.26-2.068-19.768 0-35.848 15.428-35.848 34.392v126.142h209.040v-126.142c0.002-18.964-16.080-34.392-35.846-34.394zM326.704 12.452c4.194 0 8.318-0.692 12.256-2.060l38.414-13.33v45.624h-101.338v-45.624l38.416 13.33c3.936 1.364 8.058 2.060 12.252 2.060z" />
<glyph unicode="&#xe9bc;" d="M802.792 44.542h-546.582c-66.81 0-121.164 54.354-121.164 121.164v673.13c0 66.81 54.354 121.164 121.164 121.164h546.582c47.51 0 86.16-38.652 86.16-86.16v-743.138c0.002-47.51-38.652-86.16-86.16-86.16zM256.21 906.15c-37.116 0-67.314-30.196-67.314-67.314v-673.132c0-37.116 30.196-67.314 67.314-67.314h546.582c17.816 0 32.31 14.494 32.31 32.31v743.14c0 17.816-14.494 32.31-32.31 32.31h-546.582z" />
<glyph unicode="&#xe9bd;" d="M688.11 529.196h-352.222c-18.45 0-33.408 14.956-33.408 33.408v151.276c0 18.45 14.956 33.408 33.408 33.408h352.222c18.45 0 33.408-14.956 33.408-33.408v-151.28c0-18.448-14.956-33.404-33.408-33.404z" />
<glyph unicode="&#xe9be;" d="M688.11 502.27h-352.22c-33.266 0-60.334 27.066-60.334 60.332v151.28c-0.002 33.268 27.066 60.334 60.334 60.334h352.22c33.266 0 60.334-27.066 60.334-60.334v-151.28c0-33.266-27.068-60.332-60.334-60.332zM335.89 720.366c-3.576 0-6.484-2.908-6.484-6.484v-151.28c0-3.572 2.908-6.48 6.484-6.48h352.22c3.576 0 6.484 2.908 6.484 6.48v151.28c0 3.576-2.908 6.484-6.484 6.484h-352.22z" />
<glyph unicode="&#xe9bf;" d="M616.402 193.526h-208.808c-27.246 0-49.414 22.168-49.414 49.414v65.418h53.85v-60.98h199.93v56.542h-148.43v53.85h152.87c27.246 0 49.414-22.164 49.414-49.414v-65.418c0.002-27.244-22.166-49.412-49.412-49.412z" />
<glyph unicode="&#xe9c0;" d="M740.694 748.638c0.018 1.886 0 3.744-0.052 5.582s-0.14 3.65-0.26 5.442c-0.484 7.16-1.504 13.95-2.998 20.376-0.662 2.846-1.428 5.606-2.272 8.312-1.060 3.408-2.242 6.716-3.566 9.904-8.194 19.738-21.242 35.324-36.44 47.304-0.486 0.384-0.974 0.762-1.466 1.138-2.834 2.172-5.738 4.224-8.698 6.154-0.5 0.328-1.004 0.65-1.51 0.972-4.394 2.79-8.896 5.328-13.462 7.612-0.038 0.020-0.076 0.038-0.114 0.056-6.844 3.416-13.812 6.262-20.722 8.596-4.796 1.618-9.556 2.984-14.232 4.11-0.99 0.24-1.976 0.466-2.96 0.686-1.378 0.304-2.746 0.588-4.104 0.852-0.86 0.166-1.716 0.324-2.564 0.478-4.090 0.724-8.072 1.258-11.894 1.61-2.316 0.214-4.576 0.36-6.766 0.442-11.152 0.416-20.558-0.832-26.866-3.486-16.474-6.93-39.708-13.812-53.11-13.812v0 0c-13.406 0-36.636 6.882-53.11 13.812-36.876 15.514-179.436-16.934-158.952-149.906 20.488-132.972 42.198-237.93 136.148-237.93 36.346 0 58.008 7.752 68.386 12.9 5.044 2.504 10.918 2.684 16.050 0.364 7.486-3.388 18.736-7.936 28.908-9.886 0.044-0.008 0.084-0.018 0.132-0.026 2.272-0.434 4.66-0.838 7.16-1.206 0.032-0.006 0.058-0.008 0.090-0.014 8.874-1.3 19.2-2.132 31.102-2.132 30.828 0 53.88 11.3 71.658 31.182 0.846 0.946 1.68 1.912 2.504 2.898 34.57 41.388 48.542 116.586 61.986 203.85 1.27 8.252 1.912 16.114 1.99 23.606 0.002 0.050 0.004 0.106 0.004 0.16z" />
<glyph unicode="&#xe9c1;" d="M602.55 457.664c-12.118 0-23.752 0.784-34.602 2.334l-0.418 0.062c-0.108 0.014-0.214 0.030-0.32 0.046l-0.548 0.082c-2.776 0.416-5.43 0.866-7.964 1.35l-0.308 0.062c-9.026 1.734-19.386 5.070-30.736 9.928-15.252-6.748-40.078-13.856-76.926-13.856-54.784 0-95.906 28.978-122.218 86.134-21.732 47.204-32.678 110.48-42.866 176.616-7.63 49.518 3.654 93.548 32.628 127.328 35.476 41.362 92.126 59.872 132.532 59.872 13.374 0 24.838-1.97 34.078-5.856 16.382-6.892 34.818-11.524 41.76-11.524s25.376 4.628 41.76 11.524c10.408 4.376 23.57 6.33 39.314 5.756 2.662-0.096 5.472-0.282 8.334-0.544 4.664-0.428 9.48-1.078 14.33-1.938 0.958-0.166 1.98-0.358 3.006-0.554 1.642-0.316 3.268-0.658 4.904-1.022 1.162-0.258 2.34-0.526 3.518-0.81 5.554-1.34 11.184-2.966 16.694-4.822 8.42-2.846 16.622-6.248 24.384-10.112l0.51-0.258c5.372-2.7 10.666-5.698 15.736-8.918 0.624-0.396 1.248-0.794 1.87-1.204 3.552-2.316 7.088-4.818 10.46-7.4l1.78-1.382c20.548-16.198 35.804-36.074 45.354-59.074 1.628-3.92 3.136-8.106 4.482-12.44 1.122-3.604 2.046-7.002 2.832-10.382 1.874-8.056 3.114-16.48 3.688-25.032 0.146-2.152 0.252-4.356 0.314-6.584 0.062-2.182 0.082-4.414 0.062-6.67l-0.018-0.568c-0.112-8.886-0.892-18.104-2.328-27.4-14.078-91.376-28.948-170.864-68.45-218.16-1.018-1.224-2.076-2.448-3.15-3.644-24.294-27.166-55.744-40.94-93.478-40.94zM576.166 517.97c8.13-1.162 17.004-1.754 26.384-1.754 20.93 0 36.768 6.806 49.84 21.422 0.618 0.694 1.23 1.402 1.832 2.128 29.824 35.702 43.29 110.040 55.542 189.562 1.030 6.684 1.586 13.23 1.652 19.454l0.008 0.436c0.008 1.402-0.006 2.79-0.046 4.164-0.042 1.464-0.108 2.89-0.204 4.298-0.366 5.436-1.142 10.724-2.304 15.732-0.46 1.982-1.018 4.022-1.71 6.25-0.814 2.62-1.706 5.096-2.646 7.366-5.668 13.652-14.93 25.608-27.528 35.542l-1.182 0.916c-2.166 1.66-4.48 3.296-6.848 4.842l-1.21 0.778c-3.466 2.198-7.082 4.246-10.756 6.086l-0.568 0.284c-5.282 2.612-10.878 4.924-16.65 6.872-3.864 1.302-7.81 2.444-11.726 3.388-0.844 0.202-1.64 0.386-2.432 0.56-1.128 0.252-2.236 0.484-3.34 0.696-0.664 0.128-1.352 0.258-2.038 0.378-3.314 0.586-6.502 1.018-9.536 1.296-1.754 0.162-3.48 0.276-5.156 0.336-1.062 0.040-2.084 0.062-3.080 0.062-6.74 0-10.486-0.92-11.362-1.276-17.656-7.428-45.134-16.102-64.466-16.102-19.33 0-46.806 8.674-64.466 16.102-0.87 0.354-4.626 1.276-11.37 1.276-26.132 0-64.844-12.342-88.088-39.44-17.758-20.706-24.218-47.72-19.202-80.296 22.246-144.392 43.964-213.112 107.214-213.112 32.052 0 49.404 6.892 55.378 9.852 6.654 3.3 14.076 5.044 21.466 5.044 6.834 0 13.446-1.422 19.658-4.236 8.706-3.94 16.644-6.71 22.352-7.804l0.296-0.058c1.484-0.284 3.176-0.574 4.956-0.846l1.336-0.198z" />
<glyph unicode="&#xe9c2;" d="M497.372 960h58.552v-109.598h-58.552v109.598z" />
<glyph unicode="&#xe9c3;" d="M945.908 194.666h-717.964c-82.628 0-149.852 67.224-149.852 149.852v17.246c0 82.632 67.224 149.856 149.852 149.856h717.962v-58.552c-50.344 0-91.3-40.958-91.3-91.304v-17.246c0-50.34 40.958-91.3 91.3-91.3v-58.552zM227.944 453.064c-50.344 0-91.3-40.958-91.3-91.304v-17.246c0-50.34 40.958-91.3 91.3-91.3h599.208c-19.492 25.294-31.1 56.972-31.1 91.3v17.246c0 34.334 11.602 66.006 31.1 91.304h-599.208z" />
<glyph unicode="&#xe9c4;" d="M1008.994-64h-844.136c-82.628 0-149.852 67.224-149.852 149.856v17.244c0 82.632 67.224 149.856 149.852 149.856h844.136v-58.552c-50.344 0-91.3-40.958-91.3-91.304v-17.244c0-50.344 40.958-91.304 91.3-91.304v-58.552zM164.858 194.396c-50.344 0-91.3-40.958-91.3-91.304v-17.244c0-50.344 40.958-91.304 91.3-91.304h725.384c-19.494 25.298-31.1 56.968-31.1 91.304v17.244c0 34.334 11.602 66.006 31.1 91.304h-725.384z" />
<glyph unicode="&#xe9c5;" d="M371.514 416.958h468.504v-58.552h-468.504v58.552z" />
<glyph unicode="&#xe9c6;" d="M243.9 147.97h646.268v-58.552h-646.268v58.552z" />
<glyph unicode="&#xe9c7;" d="M956.338 498.518h-888.678c-29.886 0-55.116 18.382-64.274 46.832-9.156 28.448 0.614 58.092 24.886 75.524l444.34 319.142c11.548 8.296 25.17 12.68 39.388 12.68s27.84-4.384 39.388-12.68l444.342-319.144c24.268-17.432 34.040-47.076 24.882-75.524-9.156-28.448-34.388-46.83-64.274-46.83zM512 898.134c-1.902 0-4.758-0.422-7.56-2.436l-444.336-319.142c-6.672-4.79-5.854-11.136-4.776-14.492 1.080-3.356 4.12-8.99 12.334-8.99h888.676c8.216 0 11.254 5.63 12.334 8.99 1.080 3.352 1.896 9.702-4.774 14.492l-444.34 319.142c-2.798 2.014-5.654 2.436-7.558 2.436z" />
<glyph unicode="&#xe9c8;" d="M116.428 521.652h163.684v-411.94h-163.684v411.94z" />
<glyph unicode="&#xe9c9;" d="M307.394 82.436h-218.246v466.502h218.246v-466.502zM143.708 136.998h109.124v357.378h-109.124c0 0 0-357.378 0-357.378z" />
<glyph unicode="&#xe9ca;" d="M430.162 521.652h163.684v-411.94h-163.684v411.94z" />
<glyph unicode="&#xe9cb;" d="M621.122 82.436h-218.246v466.502h218.246v-466.502zM457.438 136.998h109.124v357.378h-109.124v-357.378z" />
<glyph unicode="&#xe9cc;" d="M743.892 521.652h163.684v-411.94h-163.684v411.94z" />
<glyph unicode="&#xe9cd;" d="M934.852 82.436h-218.248v466.502h218.246v-466.502zM771.166 136.998h109.124v357.378h-109.124v-357.378z" />
<glyph unicode="&#xe9ce;" d="M956.002-56.696h-888.002c-32.084 0-58.188 26.102-58.188 58.188v74.594c0 32.084 26.102 58.184 58.188 58.184h888.002c32.084 0 58.188-26.1 58.188-58.184v-74.594c-0.002-32.086-26.104-58.188-58.188-58.188zM68 79.708c-1.996 0-3.626-1.626-3.626-3.622v-74.594c0-1.996 1.628-3.626 3.626-3.626h888.002c1.996 0 3.626 1.628 3.626 3.626v74.594c0 1.996-1.628 3.622-3.626 3.622h-888.002z" />
<glyph unicode="&#xe9cf;" d="M694.296 115.17h-364.516l-2.988 22.896c-4.596 35.24-20.776 50.892-47.584 76.82-2.024 1.956-4.078 3.944-6.16 5.974-45.338 44.176-107.426 104.672-107.426 248.612 0 92.35 36.742 176.472 103.458 236.864 63.81 57.76 150.082 89.572 242.924 89.572s179.116-31.81 242.926-89.572c14.456-13.088 27.712-27.516 39.398-42.884 6.64-8.736 12.868-17.902 18.516-27.25 2.832-4.684 5.564-9.488 8.128-14.284 5.136-9.614 9.824-19.632 13.934-29.776 3.068-7.57 5.888-15.4 8.38-23.272 10.024-31.698 15.102-65.136 15.102-99.398 0-60.076-10.574-110.208-32.324-153.256-1.294-2.556-2.608-5.060-3.952-7.51-3.84-7.032-8.086-14.024-12.616-20.77-1.454-2.166-2.924-4.292-4.408-6.374-5.54-7.778-11.502-15.328-18.23-23.084-12.128-13.982-24.662-26.15-35.724-36.886-2.214-2.148-4.396-4.252-6.544-6.322-26.748-25.754-42.89-41.3-47.394-77.084l-2.9-23.016zM374.338 167.76h275.178c10.718 39.288 34.080 61.78 58.596 85.386 2.098 2.020 4.228 4.074 6.392 6.172 10.804 10.49 21.978 21.336 32.624 33.608 5.616 6.48 10.566 12.74 15.122 19.138 1.204 1.69 2.398 3.418 3.582 5.18 3.636 5.42 7.048 11.034 10.132 16.678 1.078 1.972 2.132 3.974 3.16 6.014 17.946 35.516 26.674 77.892 26.674 129.534 0 28.874-4.258 56.978-12.656 83.536-2.072 6.556-4.422 13.080-6.976 19.384-3.418 8.436-7.312 16.76-11.578 24.744-2.128 3.984-4.4 7.976-6.748 11.864-4.688 7.758-9.864 15.37-15.378 22.624-9.722 12.788-20.768 24.81-32.824 35.722-54.12 48.99-127.86 75.97-207.634 75.97s-153.514-26.978-207.63-75.97c-55.562-50.294-86.16-120.568-86.16-197.872 0-121.754 48.63-169.138 91.538-210.944 2.036-1.982 4.046-3.926 6.024-5.84 24.442-23.648 47.742-46.186 58.562-84.928z" />
<glyph unicode="&#xe9d0;" d="M416.521 394.574l115.677-202.44-45.653-26.087-115.677 202.44 45.653 26.087z" />
<glyph unicode="&#xe9d1;" d="M607.495 394.581l45.653-26.087-115.677-202.44-45.653 26.087 115.677 202.44z" />
<glyph unicode="&#xe9d2;" d="M485.702 960h52.59v-105.18h-52.59v105.18z" />
<glyph unicode="&#xe9d3;" d="M906.422 591.87h92.032v-52.59h-92.032v52.59z" />
<glyph unicode="&#xe9d4;" d="M25.546 591.87h92.032v-52.59h-92.032v52.59z" />
<glyph unicode="&#xe9d5;" d="M835.234 847.106l37.186-37.186-52.581-52.581-37.186 37.186 52.581 52.581z" />
<glyph unicode="&#xe9d6;" d="M188.779 847.097l52.581-52.581-37.186-37.186-52.581 52.581 37.186 37.186z" />
<glyph unicode="&#xe9d7;" d="M338.64 180.454v-90.234c0-16.112 13.060-29.174 29.174-29.174h20.78v-69.576c0-16.112 13.060-29.174 29.174-29.174h188.47c16.11 0 29.174 13.060 29.174 29.174v69.576h20.78c16.11 0 29.174 13.060 29.174 29.174v90.234h-346.726z" />
<glyph unicode="&#xe9d8;" d="M606.24-64h-188.47c-30.586 0-55.47 24.882-55.47 55.47v43.552c-28.004 2.776-49.956 26.472-49.956 55.196v116.53h399.316v-116.53c0-28.724-21.948-52.42-49.952-55.196v-43.552c0.002-30.588-24.882-55.47-55.468-55.47zM364.936 154.16v-63.94c0-1.588 1.292-2.88 2.88-2.88h47.076v-95.87c0-1.588 1.292-2.88 2.88-2.88h188.47c1.588 0 2.88 1.292 2.88 2.88v95.87h47.076c1.588 0 2.876 1.292 2.876 2.88v63.94h-294.138z" />
<glyph unicode="&#xe9d9;" d="M819.912-64h-615.824c-53.72 0-97.422 43.702-97.422 97.422v829.156c0 53.72 43.702 97.422 97.422 97.422h615.822c53.72 0 97.422-43.702 97.422-97.422v-829.156c0.002-53.72-43.7-97.422-97.42-97.422zM204.088 903.112c-22.348 0-40.534-18.184-40.534-40.534v-829.156c0-22.348 18.184-40.534 40.534-40.534h615.822c22.348 0 40.534 18.184 40.534 40.534v829.156c0 22.348-18.184 40.534-40.534 40.534h-615.822z" />
<glyph unicode="&#xe9da;" d="M736.712 618.666h-449.424c-17.28 0-31.288 14.008-31.288 31.288v108.088c0 17.28 14.008 31.288 31.288 31.288h449.422c17.28 0 31.288-14.008 31.288-31.288v-108.088c0.002-17.278-14.006-31.288-31.286-31.288z" />
<glyph unicode="&#xe9db;" d="M736.712 590.222h-449.424c-32.938 0-59.734 26.798-59.734 59.734v108.088c0 32.936 26.794 59.734 59.734 59.734h449.422c32.938 0 59.734-26.798 59.734-59.734v-108.088c0-32.936-26.794-59.734-59.732-59.734zM287.288 760.888c-1.568 0-2.844-1.274-2.844-2.844v-108.088c0-1.57 1.278-2.844 2.844-2.844h449.422c1.568 0 2.844 1.274 2.844 2.844v108.088c0 1.57-1.278 2.844-2.844 2.844h-449.422z" />
<glyph unicode="&#xe9dc;" d="M759.466 105.952h-172.088c-32.938 0-59.734 26.798-59.734 59.734v294.4c0 32.936 26.794 59.734 59.734 59.734h172.088v-56.888h-172.088c-1.568 0-2.844-1.274-2.844-2.844v-294.4c0-1.57 1.278-2.844 2.844-2.844h172.088v-56.892z" />
<glyph unicode="&#xe9dd;" d="M631.012 386.36h134.628v-56.888h-134.628v56.888z" />
<glyph unicode="&#xe9de;" d="M631.012 296.306h134.628v-56.888h-134.628v56.888z" />
<glyph unicode="&#xe9df;" d="M297.244 466.944h56.888v-134.628h-56.888v134.628z" />
<glyph unicode="&#xe9e0;" d="M258.39 428.088h134.628v-56.888h-134.628v56.888z" />
<glyph unicode="&#xe9e1;" d="M258.39 187.25h134.628v-56.888h-134.628v56.888z" />
<glyph unicode="&#xe9e2;" d="M885.768-64h-747.534c-66.090 0-119.862 53.77-119.862 119.862v784.276c0.004 66.092 53.772 119.862 119.862 119.862h747.532c66.090 0 119.862-53.77 119.862-119.862v-784.28c0.002-66.090-53.768-119.858-119.86-119.858zM138.234 901.926c-34.068 0-61.788-27.716-61.788-61.788v-784.28c0-34.068 27.716-61.788 61.788-61.788h747.532c34.068 0 61.788 27.716 61.788 61.788v784.28c0 34.068-27.716 61.788-61.788 61.788h-747.532z" />
<glyph unicode="&#xe9e3;" d="M583.242 634.63v-34.76c0-18.914 15.334-34.248 34.25-34.248h205.486c18.914 0 34.25 15.334 34.25 34.248v34.76c0 18.914-15.334 34.248-34.25 34.248h-205.488c-18.916-0.002-34.248-15.334-34.248-34.248z" />
<glyph unicode="&#xe9e4;" d="M822.974 536.584h-205.486c-34.896 0-63.284 28.39-63.284 63.286v34.76c0 34.896 28.39 63.282 63.284 63.282h205.486c34.896 0 63.286-28.39 63.286-63.282v-34.76c0-34.894-28.39-63.286-63.286-63.286zM617.488 639.84c-2.872 0-5.21-2.338-5.21-5.21v-34.76c0-2.874 2.338-5.212 5.21-5.212h205.486c2.874 0 5.212 2.338 5.212 5.212v34.76c0 2.872-2.338 5.21-5.212 5.21h-205.486z" />
<glyph unicode="&#xe9e5;" d="M406.514 668.876h-51.116v51.116c0 18.914-15.334 34.248-34.248 34.248h-34.758c-18.914 0-34.25-15.334-34.25-34.248v-51.116h-51.114c-18.914 0-34.248-15.334-34.248-34.248v-34.76c0-18.914 15.334-34.25 34.248-34.25h51.116v-51.116c0-18.914 15.334-34.248 34.248-34.248h34.76c18.914 0 34.248 15.334 34.248 34.248v51.12h51.116c18.914 0 34.248 15.334 34.248 34.248v34.76c0 18.914-15.334 34.246-34.25 34.246z" />
<glyph unicode="&#xe9e6;" d="M321.152 451.222h-34.76c-34.896 0-63.282 28.39-63.282 63.282v22.080h-22.080c-34.896 0-63.286 28.39-63.286 63.286v34.76c0 34.896 28.39 63.282 63.286 63.282h22.080v22.080c0 34.896 28.39 63.286 63.282 63.286h34.76c34.896 0 63.286-28.39 63.286-63.286v-22.080h22.080c34.896 0 63.282-28.39 63.282-63.282v-34.76c0-34.896-28.39-63.286-63.282-63.286h-22.080v-22.080c0-34.892-28.392-63.282-63.286-63.282zM201.030 639.84c-2.874 0-5.212-2.338-5.212-5.21v-34.76c0-2.874 2.338-5.212 5.212-5.212h80.154v-80.154c0-2.872 2.338-5.21 5.21-5.21h34.76c2.874 0 5.212 2.338 5.212 5.21v80.154h80.154c2.872 0 5.21 2.338 5.21 5.212v34.76c0 2.872-2.338 5.21-5.21 5.21h-80.154v80.154c0 2.874-2.338 5.212-5.212 5.212h-34.76c-2.872 0-5.21-2.338-5.21-5.212v-80.154c-0.002 0-80.154 0-80.154 0z" />
<glyph unicode="&#xe9e7;" d="M829.388 224.804l-36.146 36.146 36.146 36.146c13.374 13.374 13.374 35.060 0 48.434l-24.58 24.58c-13.374 13.374-35.060 13.374-48.434 0l-36.146-36.146-36.146 36.146c-13.374 13.374-35.060 13.374-48.434 0l-24.58-24.58c-13.374-13.374-13.374-35.060 0-48.434l36.146-36.146-36.146-36.146c-13.374-13.374-13.374-35.060 0-48.434l24.58-24.58c13.374-13.374 35.060-13.374 48.434 0l36.146 36.146 36.146-36.146c13.374-13.374 35.060-13.374 48.434 0l24.58 24.58c13.374 13.374 13.374 35.056 0 48.434z" />
<glyph unicode="&#xe9e8;" d="M780.594 112.722c-16.902 0-32.794 6.582-44.748 18.534l-15.614 15.614-15.61-15.614c-11.954-11.952-27.846-18.534-44.752-18.534-16.902 0-32.794 6.582-44.748 18.534l-24.576 24.58c-11.952 11.952-18.538 27.844-18.538 44.748s6.586 32.798 18.538 44.752l15.61 15.61-15.61 15.614c-11.952 11.952-18.538 27.844-18.538 44.748 0 16.906 6.586 32.798 18.538 44.748l24.576 24.576c11.954 11.954 27.846 18.538 44.748 18.538 16.906 0 32.798-6.582 44.752-18.534l15.61-15.614 15.61 15.614c11.954 11.952 27.846 18.534 44.748 18.534s32.794-6.582 44.748-18.534l24.58-24.58c24.676-24.676 24.676-64.824 0-89.5l-15.614-15.61 15.61-15.61c24.676-24.678 24.676-64.824 0-89.498l-24.58-24.58c-11.946-11.954-27.838-18.536-44.74-18.536zM720.232 228.996l56.678-56.678c1.26-1.264 2.7-1.528 3.684-1.528s2.422 0.264 3.684 1.528l24.576 24.58c2.032 2.030 2.032 5.336 0 7.37l-56.678 56.674 56.678 56.678c2.032 2.032 2.032 5.336 0 7.37l-24.58 24.58c-1.26 1.264-2.7 1.528-3.684 1.528s-2.422-0.264-3.684-1.528l-56.678-56.678-56.678 56.678c-1.26 1.264-2.7 1.528-3.684 1.528s-2.422-0.264-3.684-1.524l-24.576-24.58c-1.264-1.264-1.528-2.7-1.528-3.684s0.264-2.422 1.528-3.684l56.678-56.678-56.674-56.678c-1.264-1.264-1.528-2.7-1.528-3.684s0.264-2.422 1.528-3.684l24.58-24.58c1.26-1.26 2.7-1.524 3.684-1.524s2.424 0.264 3.688 1.528l56.67 56.67z" />
<glyph unicode="&#xe9e9;" d="M178.924 338.64h249.718v-58.074h-249.718v58.074z" />
<glyph unicode="&#xe9ea;" d="M178.924 241.308h249.718v-58.074h-249.718v58.074z" />
<glyph unicode="&#xe9eb;" d="M819.912-64h-615.824c-53.72 0-97.422 43.702-97.422 97.422v829.156c0 53.72 43.702 97.422 97.422 97.422h615.822c53.72 0 97.422-43.702 97.422-97.422v-829.156c0.002-53.72-43.7-97.422-97.42-97.422zM204.088 903.112c-22.348 0-40.534-18.184-40.534-40.534v-829.156c0-22.348 18.184-40.534 40.534-40.534h615.822c22.348 0 40.534 18.184 40.534 40.534v829.156c0 22.348-18.184 40.534-40.534 40.534h-615.822z" />
<glyph unicode="&#xe9ec;" d="M736.712 647.112h-449.424c-17.28 0-31.288 14.008-31.288 31.288v108.088c0 17.28 14.008 31.288 31.288 31.288h449.422c17.28 0 31.288-14.008 31.288-31.288v-108.088c0.002-17.28-14.006-31.288-31.286-31.288z" />
<glyph unicode="&#xe9ed;" d="M736.712 618.666h-449.424c-32.938 0-59.734 26.794-59.734 59.734v108.088c0 32.938 26.794 59.734 59.734 59.734h449.422c32.938 0 59.734-26.794 59.734-59.734v-108.088c0-32.938-26.794-59.734-59.732-59.734zM287.288 789.334c-1.568 0-2.844-1.278-2.844-2.844v-108.090c0-1.568 1.278-2.844 2.844-2.844h449.422c1.568 0 2.844 1.278 2.844 2.844v108.088c0 1.568-1.278 2.844-2.844 2.844h-449.422z" />
<glyph unicode="&#xe9ee;" d="M739.556 78.222h-455.112c-15.71 0-28.444 12.734-28.444 28.444v369.778c0 15.71 12.734 28.444 28.444 28.444h455.112c15.71 0 28.444-12.734 28.444-28.444v-369.778c0-15.71-12.734-28.444-28.444-28.444z" />
<glyph unicode="&#xe9ef;" d="M739.556 49.778h-455.112c-31.368 0-56.888 25.52-56.888 56.888v369.778c0 31.368 25.52 56.888 56.888 56.888h455.112c31.368 0 56.888-25.52 56.888-56.888v-369.778c0-31.368-25.52-56.888-56.888-56.888zM284.444 476.444v-369.778h455.112c0.026 0 0.036 0 0.036 0l-0.036 369.778h-455.112z" />
<glyph unicode="&#xe9f0;" d="M398.222 504.888h56.888v-435.2h-56.888v435.2z" />
<glyph unicode="&#xe9f1;" d="M568.888 504.888h56.888v-435.2h-56.888v435.2z" />
<glyph unicode="&#xe9f2;" d="M256 391.112h512v-56.888h-512v56.888z" />
<glyph unicode="&#xe9f3;" d="M256 248.888h341.334v-56.888h-341.334v56.888z" />
<glyph unicode="&#xe9f4;" d="M901.354-19.384h-778.71c-67.626 0-122.644 55.014-122.644 122.642v573.626c0 67.624 55.018 122.644 122.644 122.644h778.714c67.624 0 122.644-55.018 122.644-122.644v-573.626c-0.004-67.628-55.020-122.642-122.648-122.642zM122.644 740.106c-34.862 0-63.222-28.358-63.222-63.222v-573.626c0-34.86 28.358-63.222 63.222-63.222h778.714c34.86 0 63.222 28.358 63.222 63.222v573.626c0 34.86-28.36 63.222-63.222 63.222h-778.714z" />
<glyph unicode="&#xe9f5;" d="M215.276 684.408h-34.504c-22.232 0-40.252 18.022-40.252 40.252v120.762c0 22.232 18.022 40.252 40.252 40.252h34.504c22.232 0 40.252-18.022 40.252-40.252v-120.762c0-22.23-18.022-40.252-40.252-40.252z" />
<glyph unicode="&#xe9f6;" d="M215.276 654.696h-34.504c-38.576 0-69.962 31.386-69.962 69.962v120.764c0 38.576 31.386 69.962 69.962 69.962h34.504c38.576 0 69.962-31.386 69.962-69.962v-120.76c0-38.58-31.386-69.966-69.962-69.966zM180.772 855.964c-5.814 0-10.542-4.73-10.542-10.542v-120.76c0-5.814 4.73-10.542 10.542-10.542h34.504c5.814 0 10.542 4.73 10.542 10.542v120.76c0 5.814-4.73 10.542-10.542 10.542h-34.504z" />
<glyph unicode="&#xe9f7;" d="M843.224 684.408h-34.504c-22.232 0-40.252 18.022-40.252 40.252v120.762c0 22.232 18.022 40.252 40.252 40.252h34.504c22.232 0 40.252-18.022 40.252-40.252v-120.762c0.004-22.23-18.018-40.252-40.252-40.252z" />
<glyph unicode="&#xe9f8;" d="M843.228 654.696h-34.504c-38.576 0-69.964 31.386-69.964 69.962v120.764c0 38.576 31.386 69.962 69.964 69.962h34.504c38.576 0 69.962-31.386 69.962-69.962v-120.76c0-38.58-31.386-69.966-69.962-69.966zM808.724 855.964c-5.814 0-10.542-4.73-10.542-10.542v-120.76c0-5.814 4.73-10.542 10.542-10.542h34.504c5.814 0 10.542 4.73 10.542 10.542v120.76c0 5.814-4.73 10.542-10.542 10.542h-34.504z" />
<glyph unicode="&#xe9f9;" d="M529.25 684.408h-34.504c-22.232 0-40.252 18.022-40.252 40.252v120.762c0 22.232 18.022 40.252 40.252 40.252h34.504c22.232 0 40.252-18.022 40.252-40.252v-120.762c0-22.23-18.020-40.252-40.252-40.252z" />
<glyph unicode="&#xe9fa;" d="M529.25 654.696h-34.504c-38.576 0-69.962 31.386-69.962 69.962v120.764c0 38.576 31.386 69.962 69.962 69.962h34.504c38.576 0 69.964-31.386 69.964-69.962v-120.76c0.002-38.58-31.384-69.966-69.964-69.966zM494.746 855.964c-5.814 0-10.542-4.73-10.542-10.542v-120.76c0-5.814 4.73-10.542 10.542-10.542h34.504c5.814 0 10.542 4.73 10.542 10.542v120.76c0 5.814-4.73 10.542-10.542 10.542h-34.504z" />
<glyph unicode="&#xe9fb;" d="M994.286 562.578v114.31c0 51.326-41.606 92.932-92.932 92.932h-778.71c-51.326-0.002-92.932-41.61-92.932-92.932v-114.31h964.574z" />
<glyph unicode="&#xe9fc;" d="M1023.998 532.868h-1023.998v144.018c0 67.624 55.018 122.644 122.644 122.644h778.714c67.624 0 122.644-55.018 122.644-122.644l-0.004-144.018zM59.422 592.288h905.154v84.596c0 34.86-28.358 63.222-63.222 63.222h-778.71c-34.862 0-63.222-28.358-63.222-63.222v-84.596z" />
<glyph unicode="&#xe9fd;" d="M188.152 331.952h-59.422v86.498c0 25.206 20.51 45.716 45.716 45.716h102.838v-59.422h-89.132c0-0.002 0-72.792 0-72.792z" />
<glyph unicode="&#xe9fe;" d="M395.136 331.952h-59.422v86.498c0 25.206 20.51 45.716 45.716 45.716h102.838v-59.422h-89.132v-72.792z" />
<glyph unicode="&#xe9ff;" d="M602.122 331.952h-59.422v86.498c0 25.206 20.506 45.716 45.716 45.716h102.838v-59.422h-89.132v-72.792z" />
<glyph unicode="&#xea00;" d="M809.108 331.952h-59.422v86.498c0 25.206 20.51 45.716 45.716 45.716h102.838v-59.422h-89.132v-72.792z" />
<glyph unicode="&#xea01;" d="M188.152 118.034h-59.422v86.498c0 25.206 20.51 45.716 45.716 45.716h102.838v-59.422h-89.132c0 0 0-72.792 0-72.792z" />
<glyph unicode="&#xea02;" d="M395.136 118.034h-59.422v86.498c0 25.206 20.51 45.716 45.716 45.716h102.838v-59.422h-89.132v-72.792z" />
<glyph unicode="&#xea03;" d="M602.122 118.034h-59.422v86.498c0 25.206 20.506 45.716 45.716 45.716h102.838v-59.422h-89.132v-72.792z" />
<glyph unicode="&#xea04;" d="M809.108 118.034h-59.422v86.498c0 25.206 20.51 45.716 45.716 45.716h102.838v-59.422h-89.132v-72.792z" />
<glyph unicode="&#xea05;" d="M131.48 72.106c-22.936 0-43.082 15.448-48.99 37.562l-16.28 60.936h-15.598c-27.906-0.002-50.612 22.7-50.612 50.61v387.296c0 27.906 22.706 50.612 50.612 50.612h531.824c27.906 0 50.612-22.706 50.612-50.612v-387.294c0-27.906-22.706-50.612-50.612-50.612h-331.478l-83.812-83.688c-9.56-9.552-22.23-14.81-35.666-14.81zM54.924 225.524h53.464l25.238-94.466 94.606 94.466h349.89v378.672h-523.198v-378.672z" />
<glyph unicode="&#xea06;" d="M973.388 796.43h-531.824c-12.786 0-23.15-10.364-23.15-23.15v-387.29c0-12.786 10.364-23.15 23.15-23.15h342.842l91.852-91.718c12.61-12.592 34.122-6.81 38.722 10.406l21.722 81.312h36.686c12.786 0 23.15 10.364 23.15 23.15v387.292c0 12.784-10.364 23.148-23.15 23.148z" />
<glyph unicode="&#xea07;" d="M892.52 236.878c-13.438 0-26.106 5.26-35.668 14.814l-83.812 83.688h-331.476c-27.906 0-50.612 22.706-50.612 50.612v387.29c0 27.906 22.706 50.612 50.612 50.612h531.824c27.906 0 50.612-22.706 50.612-50.612v-387.294c0-27.906-22.706-50.612-50.612-50.612h-15.602l-16.28-60.936c-5.906-22.114-26.050-37.562-48.986-37.562zM445.876 390.3h349.89l94.606-94.466 25.238 94.466h53.462v378.668h-523.196v-378.668z" />
<glyph unicode="&#xea08;" d="M642.41-51.448h-260.822v266.374h260.824v-266.374zM437.082 4.048h149.834v155.384h-149.834v-155.384z" />
<glyph unicode="&#xea09;" d="M909.806 104.226h-795.612c-62.964 0-114.19 51.226-114.19 114.194v614.836c0 62.964 51.226 114.19 114.19 114.19h795.61c62.964 0 114.19-51.226 114.19-114.19v-614.838c0.004-62.966-51.224-114.192-114.188-114.192zM114.194 891.956c-32.364 0-58.696-26.33-58.696-58.696v-614.838c0-32.368 26.332-58.7 58.696-58.7h795.61c32.364 0 58.696 26.332 58.696 58.7v614.834c0 32.368-26.332 58.696-58.696 58.696l-795.61 0.004z" />
<glyph unicode="&#xea0a;" d="M815.678 215.214h-607.358c-53.668 0-97.332 43.662-97.332 97.332v426.582c0 53.668 43.662 97.332 97.332 97.332h607.358c53.668 0 97.332-43.662 97.332-97.332h-55.494c0 23.068-18.768 41.838-41.838 41.838h-607.358c-23.068 0.002-41.838-18.766-41.838-41.838v-426.582c0-23.068 18.768-41.838 41.838-41.838h607.358c23.068 0 41.838 18.768 41.838 41.838v238.12h55.494v-238.12c-0.002-53.67-43.664-97.332-97.332-97.332z" />
<glyph unicode="&#xea0b;" d="M27.748 348.112v-129.692c0-47.742 38.702-86.444 86.446-86.444h795.614c47.742 0 86.446 38.702 86.446 86.444v129.692h-968.506z" />
<glyph unicode="&#xea0c;" d="M909.806 104.228h-795.612c-62.968 0-114.194 51.226-114.194 114.19v157.438h1024v-157.438c0-62.964-51.226-114.19-114.194-114.19zM55.494 320.364v-101.942c0-32.368 26.332-58.696 58.7-58.696h795.61c32.368 0 58.7 26.33 58.7 58.696v101.942h-913.010z" />
<glyph unicode="&#xea0d;" d="M462.046 267.792h99.89v-55.494h-99.89v55.494z" />
<glyph unicode="&#xea0e;" d="M291.4 4.056h441.18v-55.494h-441.18v55.494z" />
<glyph unicode="&#xea0f;" d="M113.862 435.054h775.318v-59.912h-775.318v59.912z" />
<glyph unicode="&#xea10;" d="M113.862 738.764h775.318v-59.912h-775.318v59.912z" />
<glyph unicode="&#xea11;" d="M342.75 637.412h-59.912c-13.234 0-23.964 10.73-23.964 23.964v94.862c0 13.234 10.73 23.964 23.964 23.964h59.912c13.234 0 23.964-10.73 23.964-23.964v-94.862c0-13.234-10.73-23.964-23.964-23.964z" />
<glyph unicode="&#xea12;" d="M342.75 607.456h-59.912c-29.732 0-53.92 24.19-53.92 53.92v94.862c0 29.732 24.19 53.92 53.92 53.92h59.912c29.732 0 53.92-24.19 53.92-53.92v-94.862c0-29.728-24.19-53.92-53.92-53.92zM288.828 667.366h47.93v82.878h-47.93v-82.878z" />
<glyph unicode="&#xea13;" d="M537.462 637.412h-59.912c-13.234 0-23.964 10.73-23.964 23.964v94.862c0 13.234 10.73 23.964 23.964 23.964h59.912c13.234 0 23.964-10.73 23.964-23.964v-94.862c0.002-13.234-10.728-23.964-23.964-23.964z" />
<glyph unicode="&#xea14;" d="M537.462 607.456h-59.912c-29.732 0-53.92 24.19-53.92 53.92v94.862c0 29.732 24.19 53.92 53.92 53.92h59.912c29.732 0 53.92-24.19 53.92-53.92v-94.862c0.002-29.728-24.188-53.92-53.92-53.92zM483.542 667.366h47.93v82.878h-47.93v-82.878z" />
<glyph unicode="&#xea15;" d="M555.436 333.698h-59.912c-13.234 0-23.964 10.73-23.964 23.964v94.862c0 13.234 10.73 23.964 23.964 23.964h59.912c13.234 0 23.964-10.73 23.964-23.964v-94.862c0-13.238-10.73-23.964-23.964-23.964z" />
<glyph unicode="&#xea16;" d="M555.436 303.742h-59.912c-29.732 0-53.92 24.19-53.92 53.92v94.862c0 29.732 24.19 53.92 53.92 53.92h59.912c29.732 0 53.92-24.19 53.92-53.92v-94.862c0-29.732-24.188-53.92-53.92-53.92zM501.516 363.654h47.93v82.878h-47.93v-82.878z" />
<glyph unicode="&#xea17;" d="M750.15 333.698h-59.912c-13.234 0-23.964 10.73-23.964 23.964v94.862c0 13.234 10.73 23.964 23.964 23.964h59.912c13.234 0 23.964-10.73 23.964-23.964v-94.862c0-13.238-10.73-23.964-23.964-23.964z" />
<glyph unicode="&#xea18;" d="M750.15 303.742h-59.912c-29.732 0-53.92 24.19-53.92 53.92v94.862c0 29.732 24.19 53.92 53.92 53.92h59.912c29.732 0 53.92-24.19 53.92-53.92v-94.862c0-29.732-24.19-53.92-53.92-53.92zM696.228 363.654h47.93v82.878h-47.93v-82.878z" />
<glyph unicode="&#xea19;" d="M1024 104.486h-172.24v718.856c0 47.046 38.272 85.32 85.318 85.32h1.602c47.046 0 85.318-38.274 85.318-85.32v-114.554h-59.912v114.554c0 14.014-11.398 25.408-25.406 25.408h-1.602c-14.010 0-25.406-11.398-25.406-25.408v-658.942h52.416v436.364h59.912v-496.278z" />
<glyph unicode="&#xea1a;" d="M172.24 104.486h-172.24v718.856c0 47.046 38.272 85.32 85.318 85.32h1.602c47.046 0 85.318-38.274 85.318-85.32l0.002-718.856zM59.912 164.398h52.416v658.944c0 14.014-11.398 25.408-25.406 25.408h-1.602c-14.010 0-25.406-11.398-25.406-25.408v-658.942h-0.002z" />
<glyph unicode="&#xea1b;" d="M959.966 17.294h-895.936c-18.822 0-34.078 15.256-34.078 34.078v87.744h964.092v-87.744c0-18.822-15.256-34.078-34.078-34.078z" />
<glyph unicode="&#xea1c;" d="M959.97-12.662h-895.94c-35.306 0-64.030 28.726-64.030 64.034v117.7h1024v-117.7c0-35.308-28.724-64.034-64.030-64.034zM59.912 109.16v-57.788c0-2.274 1.848-4.122 4.118-4.122h895.938c2.27 0 4.118 1.848 4.118 4.122v57.788h-904.174z" />
<glyph unicode="&#xea1d;" d="M512 556.014c10.682 0 20.862-2.168 30.118-6.086v370.51h-60.236v-370.51c9.256 3.918 19.436 6.086 30.118 6.086z" />
<glyph unicode="&#xea1e;" d="M512 401.412c-10.682 0-20.862 2.168-30.118 6.086v-258.072h60.236v258.072c-9.256-3.918-19.436-6.086-30.118-6.086z" />
<glyph unicode="&#xea1f;" d="M512 371.294c-59.232 0-107.42 48.188-107.42 107.418 0 59.232 48.188 107.42 107.42 107.42s107.42-48.188 107.42-107.42c0-59.23-48.188-107.418-107.42-107.418zM512 525.896c-26.018 0-47.186-21.166-47.186-47.186s21.166-47.182 47.186-47.182 47.186 21.164 47.186 47.182-21.168 47.186-47.186 47.186z" />
<glyph unicode="&#xea20;" d="M197.27 556.014c10.682 0 20.862-2.168 30.118-6.086v370.51h-60.236v-370.51c9.256 3.918 19.436 6.086 30.118 6.086z" />
<glyph unicode="&#xea21;" d="M197.27 401.412c-10.682 0-20.862 2.168-30.118 6.086v-258.072h60.236v258.072c-9.254-3.918-19.434-6.086-30.118-6.086z" />
<glyph unicode="&#xea22;" d="M197.27 371.294c-59.232 0-107.42 48.188-107.42 107.418 0 59.232 48.188 107.42 107.42 107.42s107.42-48.188 107.42-107.42c0.002-59.23-48.188-107.418-107.42-107.418zM197.27 525.896c-26.018 0-47.186-21.166-47.186-47.186s21.166-47.182 47.186-47.182 47.186 21.164 47.186 47.182-21.166 47.186-47.186 47.186z" />
<glyph unicode="&#xea23;" d="M943.086-24.45h-862.172c-44.616 0-80.914 36.298-80.914 80.914v54.212c0 44.616 36.298 80.914 80.914 80.914h862.172c44.616 0 80.914-36.298 80.914-80.914v-54.212c0-44.616-36.298-80.914-80.914-80.914zM80.914 131.356c-11.402 0-20.678-9.276-20.678-20.678v-54.212c0-11.402 9.276-20.678 20.678-20.678h862.172c11.402 0 20.678 9.276 20.678 20.678v54.212c0 11.402-9.276 20.678-20.678 20.678h-862.172z" />
<glyph unicode="&#xea24;" d="M274.572 673.484c0-42.693-34.609-77.302-77.302-77.302s-77.302 34.609-77.302 77.302c0 42.693 34.609 77.302 77.302 77.302s77.302-34.609 77.302-77.302z" />
<glyph unicode="&#xea25;" d="M197.27 566.052c-59.232 0-107.42 48.188-107.42 107.42s48.188 107.42 107.42 107.42 107.42-48.188 107.42-107.42-48.188-107.42-107.42-107.42zM197.27 720.658c-26.018 0-47.186-21.166-47.186-47.186 0-26.018 21.166-47.186 47.186-47.186s47.186 21.166 47.186 47.186c0 26.020-21.166 47.186-47.186 47.186z" />
<glyph unicode="&#xea26;" d="M274.572 283.944c0-42.693-34.609-77.302-77.302-77.302s-77.302 34.609-77.302 77.302c0 42.693 34.609 77.302 77.302 77.302s77.302-34.609 77.302-77.302z" />
<glyph unicode="&#xea27;" d="M197.27 176.532c-59.232 0-107.42 48.188-107.42 107.42 0 59.23 48.188 107.418 107.42 107.418s107.42-48.188 107.42-107.418c0.002-59.232-48.188-107.42-107.42-107.42zM197.27 331.134c-26.018 0-47.186-21.164-47.186-47.182s21.166-47.186 47.186-47.186 47.186 21.166 47.186 47.186-21.166 47.182-47.186 47.182z" />
<glyph unicode="&#xea28;" d="M589.302 283.944c0-42.693-34.609-77.302-77.302-77.302s-77.302 34.609-77.302 77.302c0 42.693 34.609 77.302 77.302 77.302s77.302-34.609 77.302-77.302z" />
<glyph unicode="&#xea29;" d="M512 176.532c-59.232 0-107.42 48.188-107.42 107.42 0 59.23 48.188 107.418 107.42 107.418s107.42-48.188 107.42-107.418c0-59.232-48.188-107.42-107.42-107.42zM512 331.134c-26.018 0-47.186-21.164-47.186-47.182s21.166-47.186 47.186-47.186 47.186 21.166 47.186 47.186-21.168 47.182-47.186 47.182z" />
<glyph unicode="&#xea2a;" d="M796.612 920.45h60.236v-771.012h-60.236v771.012z" />
<glyph unicode="&#xea2b;" d="M904.032 283.944c0-42.693-34.609-77.302-77.302-77.302s-77.302 34.609-77.302 77.302c0 42.693 34.609 77.302 77.302 77.302s77.302-34.609 77.302-77.302z" />
<glyph unicode="&#xea2c;" d="M826.73 176.532c-59.232 0-107.42 48.188-107.42 107.42 0 59.23 48.188 107.418 107.42 107.418s107.42-48.188 107.42-107.418c0-59.232-48.188-107.42-107.42-107.42zM826.73 331.134c-26.018 0-47.186-21.164-47.186-47.182s21.166-47.186 47.186-47.186 47.186 21.166 47.186 47.186-21.168 47.182-47.186 47.182z" />
<glyph unicode="&#xea2d;" d="M815.888 99.944h-736.81c-43.604 0-79.078 35.476-79.078 79.076v673.646c0 43.604 35.474 79.078 79.078 79.078h851.882c43.604 0 79.078-35.474 79.078-79.078v-558.568l-194.15-194.154zM79.078 872.328c-10.84 0-19.664-8.822-19.664-19.664v-673.642c0-10.84 8.82-19.664 19.664-19.664h712.198l159.348 159.348v533.96c0 10.84-8.82 19.664-19.664 19.664 0-0.002-851.882-0.002-851.882-0.002z" />
<glyph unicode="&#xea2e;" d="M888.14-35.742c-5.074 0-10.012 1.052-14.67 3.12l-73.302 32.58-73.3-32.576c-4.656-2.070-9.592-3.122-14.666-3.122-9.424 0-18.346 3.618-25.132 10.186-6.978 6.756-10.98 16.208-10.98 25.934v229.562h248.16v-229.564c0.002-19.916-16.2-36.12-36.11-36.12zM800.17 61.566c5.088 0 10.026-1.052 14.676-3.12l49.99-22.218v134.296h-129.332v-134.296l50 22.218c4.642 2.070 9.58 3.12 14.666 3.12z" />
</font>
</defs>
</svg>
