<svg id="Layer_1" data-name="Layer 1" xmlns="http://www.w3.org/2000/svg" viewBox="0 0 411.33 412.44"><defs><style>.cls-1{fill:#e4572e;}</style></defs><path class="cls-1" d="M76.78,220.4v-5.48L43.87,195.33v-14.1c0-3.92-2.35-13.32-5.48-13.32s-5.49,9.4-5.49,13.32v14.1L0,214.92v5.48l32.9-7.05,1.81,19.26L25.07,240v4.7l13.32-3.14,13.32,3.14V240l-9.64-7.38,1.8-19.26Z"/><path class="cls-1" d="M192.62,76.93h5.48L217.69,44h14.1c3.91,0,13.32-2.35,13.32-5.48s-9.41-5.49-13.32-5.49h-14.1L198.1.15h-5.48l7,32.9L180.4,34.86,173,25.22h-4.7l3.13,13.32-3.13,13.32H173l7.37-9.64L199.67,44Z"/><path class="cls-1" d="M334.56,192.2v5.48l32.9,19.59v14.1c0,3.91,2.35,13.32,5.48,13.32s5.49-9.41,5.49-13.32v-14.1l32.9-19.59V192.2l-32.9,7.05L376.62,180l9.64-7.37v-4.7L372.94,171l-13.31-3.13v4.7l9.64,7.37-1.81,19.27Z"/><path class="cls-1" d="M221.23,335.67h-5.48l-19.59,32.9h-14.1c-3.92,0-13.32,2.35-13.32,5.49s9.4,5.48,13.32,5.48h14.1l19.59,32.9h5.48l-7-32.9,19.27-1.81,7.37,9.64h4.7l-3.13-13.31,3.13-13.32h-4.7l-7.37,9.64-19.27-1.81Z"/><path class="cls-1" d="M104.56,125.13l3.87-3.88L99,84.14l10-10c2.77-2.77,7.75-11.08,5.54-13.29s-10.53,2.77-13.3,5.54l-10,10L54.14,67l-3.87,3.88L78.52,89.12,66.17,104l-12-1.6-3.32,3.32,11.63,7.2,7.21,11.64L73,121.25l-1.6-12,14.9-12.34Z"/><path class="cls-1" d="M287.92,105.59l3.87,3.88,37.12-9.42,10,10c2.77,2.77,11.08,7.76,13.3,5.54s-2.77-10.52-5.54-13.29l-10-10,9.41-37.11-3.87-3.88L323.92,79.55,309,67.21l1.6-12-3.32-3.33L300.1,63.49l-11.63,7.2L291.79,74l12-1.6,12.35,14.9Z"/><path class="cls-1" d="M306.78,287.46l-3.88,3.88,9.42,37.12-10,10c-2.77,2.77-7.75,11.08-5.54,13.3s10.53-2.77,13.3-5.54l10-10,37.12,9.42,3.88-3.88-28.26-18.28,12.35-14.9,12,1.61,3.32-3.33-11.63-7.2L341.68,288l-3.33,3.32,1.61,12-14.9,12.35Z"/><path class="cls-1" d="M125.2,308.78l-3.88-3.88L84.2,314.32l-10-10c-2.77-2.77-11.08-7.76-13.3-5.54s2.77,10.53,5.54,13.3l10,10L67,359.19l3.88,3.88,18.28-28.25,14.9,12.35-1.61,12,3.33,3.33,7.2-11.63,11.63-7.21-3.32-3.32-12,1.6-12.35-14.9Z"/></svg>