<svg width="1116" height="129" viewBox="0 0 1116 129" fill="none" xmlns="http://www.w3.org/2000/svg">
<path d="M1020.9 16.86L1098.39 84.972L1099.71 99.624L1022.35 31.512L1020.9 16.86ZM1021.43 89.856V97.908H1011.66V96.588C1011.66 96.588 1012.01 96.588 1012.72 96.588C1013.42 96.588 1013.77 96.588 1013.77 96.588C1015.8 96.588 1017.51 95.972 1018.92 94.74C1020.33 93.42 1021.03 91.792 1021.03 89.856H1021.43ZM1039.12 89.856C1039.21 91.792 1039.95 93.42 1041.36 94.74C1042.77 95.972 1044.44 96.588 1046.38 96.588C1046.38 96.588 1046.73 96.588 1047.43 96.588C1048.23 96.588 1048.62 96.588 1048.62 96.588V97.908H1038.85V89.856H1039.12ZM1020.9 16.86L1039.12 36.66V97.908H1021.03V31.908C1021.03 27.42 1020.81 23.812 1020.37 21.084C1019.93 18.268 1019.71 16.86 1019.71 16.86H1020.9ZM1099.57 18.708V84.18C1099.57 87.26 1099.66 89.988 1099.84 92.364C1100.1 94.652 1100.32 96.456 1100.5 97.776C1100.76 99.008 1100.89 99.624 1100.89 99.624H1099.71L1081.49 78.636V18.708H1099.57ZM1099.18 26.76V18.708H1109.08V20.028C1109.08 20.028 1108.68 20.028 1107.89 20.028C1107.19 20.028 1106.83 20.028 1106.83 20.028C1104.9 20.028 1103.18 20.688 1101.69 22.008C1100.28 23.24 1099.57 24.824 1099.57 26.76H1099.18ZM1081.49 26.76C1081.4 24.824 1080.65 23.24 1079.25 22.008C1077.93 20.688 1076.25 20.028 1074.23 20.028C1074.23 20.028 1073.83 20.028 1073.04 20.028C1072.34 20.028 1071.99 20.028 1071.99 20.028V18.708H1081.75V26.76H1081.49Z" fill="#494949"/>
<path d="M958.786 16.9919C965.826 16.9919 972.206 17.9599 977.926 19.8959C983.646 21.7439 988.574 24.4719 992.71 28.0799C996.846 31.6879 1000.01 36.0439 1002.21 41.1479C1004.5 46.2519 1005.65 52.0159 1005.65 58.4399C1005.65 64.7759 1004.5 70.4959 1002.21 75.5999C1000.01 80.616 996.846 84.9279 992.71 88.5359C988.574 92.1439 983.646 94.9159 977.926 96.8519C972.206 98.6999 965.826 99.6239 958.786 99.6239C951.834 99.6239 945.498 98.6999 939.778 96.8519C934.058 94.9159 929.13 92.1439 924.994 88.5359C920.858 84.9279 917.69 80.616 915.49 75.5999C913.29 70.4959 912.19 64.7759 912.19 58.4399C912.19 52.0159 913.29 46.2519 915.49 41.1479C917.69 36.0439 920.858 31.6879 924.994 28.0799C929.13 24.4719 934.058 21.7439 939.778 19.8959C945.498 17.9599 951.834 16.9919 958.786 16.9919ZM958.786 94.476C964.154 94.476 968.818 93.0239 972.778 90.1199C976.826 87.1279 979.906 82.9479 982.018 77.5799C984.218 72.2119 985.318 65.8319 985.318 58.4399C985.318 50.9599 984.218 44.5359 982.018 39.1679C979.906 33.7119 976.826 29.5319 972.778 26.6279C968.818 23.6359 964.154 22.1399 958.786 22.1399C953.506 22.1399 948.886 23.6359 944.926 26.6279C940.966 29.5319 937.886 33.7119 935.686 39.1679C933.486 44.5359 932.386 50.9599 932.386 58.4399C932.386 65.8319 933.486 72.2119 935.686 77.5799C937.886 82.9479 940.966 87.1279 944.926 90.1199C948.886 93.0239 953.506 94.476 958.786 94.476Z" fill="#494949"/>
<path d="M878.815 19.104V97.908H859.675V19.104H878.815ZM907.591 18.576V23.8559H831.031V18.576H907.591ZM907.591 23.46V37.452H906.139V36.264C906.227 32.48 905.171 29.488 902.971 27.288C900.859 25.088 897.911 23.944 894.127 23.8559V23.46H907.591ZM907.591 16.5959V19.896L893.599 18.576C895.271 18.576 897.075 18.488 899.011 18.312C900.947 18.048 902.707 17.784 904.291 17.52C905.875 17.168 906.975 16.8599 907.591 16.5959ZM859.939 89.5919V97.908H851.095V96.588C851.095 96.588 851.315 96.588 851.755 96.588C852.283 96.588 852.547 96.588 852.547 96.588C854.483 96.588 856.111 95.928 857.431 94.608C858.839 93.2 859.587 91.5279 859.675 89.5919H859.939ZM878.419 89.5919H878.815C878.815 91.5279 879.519 93.2 880.927 94.608C882.335 95.928 884.051 96.588 886.075 96.588C886.075 96.588 886.295 96.588 886.735 96.588C887.263 96.588 887.527 96.588 887.527 96.588V97.908H878.419V89.5919ZM844.495 23.46V23.8559C840.623 23.944 837.631 25.088 835.519 27.288C833.495 29.488 832.483 32.48 832.483 36.264V37.452H831.031V23.46H844.495ZM831.031 16.5959C831.823 16.772 832.967 17.036 834.463 17.388C836.047 17.74 837.763 18.048 839.611 18.312C841.547 18.488 843.307 18.576 844.891 18.576L831.031 19.896V16.5959Z" fill="#494949"/>
<path d="M777.218 18.708H791.474C795.082 18.708 798.602 19.104 802.034 19.896C805.466 20.6 808.546 21.788 811.274 23.46C814.002 25.044 816.158 27.244 817.742 30.06C819.414 32.788 820.25 36.22 820.25 40.356C820.25 43.436 819.59 46.516 818.27 49.596C817.038 52.588 815.058 55.184 812.33 57.384C809.69 59.584 806.214 61.036 801.902 61.74C804.454 62.532 806.874 64.072 809.162 66.36C811.538 68.648 813.386 70.804 814.706 72.828C815.058 73.532 815.674 74.676 816.554 76.26C817.434 77.756 818.534 79.516 819.854 81.54C821.262 83.476 822.714 85.5 824.21 87.612C825.97 89.988 827.51 91.836 828.83 93.156C830.15 94.388 831.514 95.268 832.922 95.796C834.33 96.324 835.958 96.588 837.806 96.588V97.908H826.718C821.966 97.908 817.918 97.556 814.574 96.852C811.318 96.148 808.458 94.872 805.994 93.024C803.618 91.088 801.418 88.492 799.394 85.236C798.602 84.092 797.766 82.728 796.886 81.144C796.006 79.472 795.126 77.8 794.246 76.128C793.366 74.456 792.574 72.828 791.87 71.244C791.254 69.66 790.814 68.34 790.55 67.284C789.406 64.468 788.086 62.444 786.59 61.212C785.182 59.892 783.862 59.232 782.63 59.232V58.044C782.63 58.044 782.938 58.044 783.554 58.044C784.17 58.044 784.962 58.044 785.93 58.044C787.778 58.044 789.582 57.736 791.342 57.12C793.19 56.416 794.862 55.14 796.358 53.292C797.854 51.356 798.954 48.54 799.658 44.844C799.834 44.316 799.966 43.568 800.054 42.6C800.23 41.632 800.274 40.532 800.186 39.3C800.01 36.044 799.394 33.448 798.338 31.512C797.37 29.488 796.138 27.992 794.642 27.024C793.146 25.968 791.606 25.264 790.022 24.912C788.526 24.472 787.206 24.252 786.062 24.252C784.39 24.164 782.85 24.164 781.442 24.252C780.122 24.252 779.11 24.208 778.406 24.12C778.318 24.12 778.186 23.68 778.01 22.8C777.834 21.832 777.658 20.908 777.482 20.028C777.306 19.148 777.218 18.708 777.218 18.708ZM778.538 18.708V97.908H759.398V18.708H778.538ZM759.794 89.592L760.322 97.908H750.818V96.588C750.906 96.588 751.126 96.588 751.478 96.588C751.918 96.588 752.226 96.588 752.402 96.588C754.338 96.588 755.966 95.928 757.286 94.608C758.694 93.2 759.442 91.528 759.53 89.592H759.794ZM759.794 26.892H759.53C759.442 24.868 758.694 23.24 757.286 22.008C755.966 20.688 754.382 20.028 752.534 20.028C752.27 20.028 751.918 20.028 751.478 20.028C751.126 20.028 750.906 20.028 750.818 20.028V18.708H760.322L759.794 26.892ZM778.274 89.592H778.538C778.538 91.792 779.286 93.508 780.782 94.74C782.366 95.972 784.038 96.588 785.798 96.588C785.798 96.588 785.974 96.588 786.326 96.588C786.678 96.588 786.942 96.588 787.118 96.588V97.908H777.614L778.274 89.592Z" fill="#494949"/>
<path d="M695.56 16.9919C702.6 16.9919 708.98 17.9599 714.7 19.8959C720.42 21.7439 725.348 24.4719 729.484 28.0799C733.62 31.6879 736.788 36.0439 738.988 41.1479C741.276 46.2519 742.42 52.0159 742.42 58.4399C742.42 64.7759 741.276 70.4959 738.988 75.5999C736.788 80.616 733.62 84.9279 729.484 88.5359C725.348 92.1439 720.42 94.9159 714.7 96.8519C708.98 98.6999 702.6 99.6239 695.56 99.6239C688.608 99.6239 682.272 98.6999 676.552 96.8519C670.832 94.9159 665.904 92.1439 661.768 88.5359C657.632 84.9279 654.464 80.616 652.264 75.5999C650.064 70.4959 648.964 64.7759 648.964 58.4399C648.964 52.0159 650.064 46.2519 652.264 41.1479C654.464 36.0439 657.632 31.6879 661.768 28.0799C665.904 24.4719 670.832 21.7439 676.552 19.8959C682.272 17.9599 688.608 16.9919 695.56 16.9919ZM695.56 94.476C700.928 94.476 705.592 93.0239 709.552 90.1199C713.6 87.1279 716.68 82.9479 718.792 77.5799C720.992 72.2119 722.092 65.8319 722.092 58.4399C722.092 50.9599 720.992 44.5359 718.792 39.1679C716.68 33.7119 713.6 29.5319 709.552 26.6279C705.592 23.6359 700.928 22.1399 695.56 22.1399C690.28 22.1399 685.66 23.6359 681.7 26.6279C677.74 29.5319 674.66 33.7119 672.46 39.1679C670.26 44.5359 669.16 50.9599 669.16 58.4399C669.16 65.8319 670.26 72.2119 672.46 77.5799C674.66 82.9479 677.74 87.1279 681.7 90.1199C685.66 93.0239 690.28 94.476 695.56 94.476Z" fill="#494949"/>
<path d="M546.967 3.52795L631.183 83.784L632.767 99.756L548.551 19.632L546.967 3.52795ZM547.627 88.536V97.908H536.671V96.588C536.671 96.588 537.067 96.588 537.859 96.588C538.651 96.588 539.091 96.588 539.179 96.588C541.379 96.588 543.271 95.796 544.855 94.212C546.439 92.628 547.231 90.736 547.231 88.536H547.627ZM566.107 88.536C566.107 90.736 566.899 92.628 568.483 94.212C570.067 95.796 571.959 96.588 574.159 96.588C574.247 96.588 574.687 96.588 575.479 96.588C576.271 96.588 576.667 96.588 576.667 96.588V97.908H565.711V88.536H566.107ZM546.967 3.52795L565.975 23.724L566.107 97.908H547.231V20.028C547.231 15.1 546.967 11.14 546.439 8.14796C545.911 5.06795 545.647 3.52795 545.647 3.52795H546.967ZM632.371 5.50795V82.86C632.371 86.116 632.503 89.064 632.767 91.704C633.031 94.256 633.295 96.236 633.559 97.644C633.823 99.052 633.955 99.756 633.955 99.756H632.767L613.627 78.372V5.50795H632.371ZM642.931 5.50795V6.82795C642.931 6.82795 642.535 6.82795 641.743 6.82795C640.951 6.82795 640.555 6.82795 640.555 6.82795C638.355 6.82795 636.463 7.61995 634.879 9.20395C633.295 10.7 632.459 12.592 632.371 14.88H631.975V5.50795H642.931ZM602.935 5.50795H613.891V14.88H613.627C613.539 12.592 612.703 10.7 611.119 9.20395C609.623 7.61995 607.731 6.82795 605.443 6.82795C605.443 6.82795 605.047 6.82795 604.255 6.82795C603.463 6.82795 603.023 6.82795 602.935 6.82795V5.50795Z" fill="#494949"/>
<path d="M484.826 5.50793V93.9479C484.826 98.7879 483.858 103.144 481.922 107.016C479.986 110.976 477.346 114.32 474.002 117.048C470.746 119.776 467.006 121.756 462.782 122.988C458.558 124.308 454.158 124.748 449.582 124.308V123.12C453.278 121.536 456.27 119.16 458.558 115.992C460.846 112.912 462.474 109.392 463.442 105.432C464.498 101.56 465.026 97.5999 465.026 93.5519V5.50793H484.826ZM465.422 15.1439H465.026C464.938 12.8559 464.058 10.9199 462.386 9.33594C460.802 7.66394 458.866 6.82793 456.578 6.82793C456.578 6.82793 456.27 6.82793 455.654 6.82793C455.126 6.82793 454.862 6.82793 454.862 6.82793V5.50793H465.422V15.1439ZM484.43 15.1439V5.50793H494.99V6.82793C494.99 6.82793 494.682 6.82793 494.066 6.82793C493.538 6.82793 493.274 6.82793 493.274 6.82793C490.986 6.82793 489.006 7.66394 487.334 9.33594C485.75 10.9199 484.914 12.8559 484.826 15.1439H484.43Z" fill="#494949"/>
<path d="M360.851 18.708H375.107C378.715 18.708 382.235 19.104 385.667 19.896C389.099 20.6 392.179 21.788 394.907 23.46C397.635 25.044 399.791 27.244 401.375 30.06C403.047 32.788 403.883 36.22 403.883 40.356C403.883 43.436 403.223 46.516 401.903 49.596C400.671 52.588 398.691 55.184 395.963 57.384C393.323 59.584 389.847 61.036 385.535 61.74C388.087 62.532 390.507 64.072 392.795 66.36C395.171 68.648 397.019 70.804 398.339 72.828C398.691 73.532 399.307 74.676 400.187 76.26C401.067 77.756 402.167 79.516 403.487 81.54C404.895 83.476 406.347 85.5 407.843 87.612C409.603 89.988 411.143 91.836 412.463 93.156C413.783 94.388 415.147 95.268 416.555 95.796C417.963 96.324 419.591 96.588 421.439 96.588V97.908H410.351C405.599 97.908 401.551 97.556 398.207 96.852C394.951 96.148 392.091 94.872 389.627 93.024C387.251 91.088 385.051 88.492 383.027 85.236C382.235 84.092 381.399 82.728 380.519 81.144C379.639 79.472 378.759 77.8 377.879 76.128C376.999 74.456 376.207 72.828 375.503 71.244C374.887 69.66 374.447 68.34 374.183 67.284C373.039 64.468 371.719 62.444 370.223 61.212C368.815 59.892 367.495 59.232 366.263 59.232V58.044C366.263 58.044 366.571 58.044 367.187 58.044C367.803 58.044 368.595 58.044 369.563 58.044C371.411 58.044 373.215 57.736 374.975 57.12C376.823 56.416 378.495 55.14 379.991 53.292C381.487 51.356 382.587 48.54 383.291 44.844C383.467 44.316 383.599 43.568 383.687 42.6C383.863 41.632 383.907 40.532 383.819 39.3C383.643 36.044 383.027 33.448 381.971 31.512C381.003 29.488 379.771 27.992 378.275 27.024C376.779 25.968 375.239 25.264 373.655 24.912C372.159 24.472 370.839 24.252 369.695 24.252C368.023 24.164 366.483 24.164 365.075 24.252C363.755 24.252 362.743 24.208 362.039 24.12C361.951 24.12 361.819 23.68 361.643 22.8C361.467 21.832 361.291 20.908 361.115 20.028C360.939 19.148 360.851 18.708 360.851 18.708ZM362.171 18.708V97.908H343.031V18.708H362.171ZM343.427 89.592L343.955 97.908H334.451V96.588C334.539 96.588 334.759 96.588 335.111 96.588C335.551 96.588 335.859 96.588 336.035 96.588C337.971 96.588 339.599 95.928 340.919 94.608C342.327 93.2 343.075 91.528 343.163 89.592H343.427ZM343.427 26.892H343.163C343.075 24.868 342.327 23.24 340.919 22.008C339.599 20.688 338.015 20.028 336.167 20.028C335.903 20.028 335.551 20.028 335.111 20.028C334.759 20.028 334.539 20.028 334.451 20.028V18.708H343.955L343.427 26.892ZM361.907 89.592H362.171C362.171 91.792 362.919 93.508 364.415 94.74C365.999 95.972 367.671 96.588 369.431 96.588C369.431 96.588 369.607 96.588 369.959 96.588C370.311 96.588 370.575 96.588 370.751 96.588V97.908H361.247L361.907 89.592Z" fill="#494949"/>
<path d="M287.387 18.7079V97.9079H268.379V18.7079H287.387ZM318.275 92.6279L321.311 97.9079H287.123V92.6279H318.275ZM313.787 56.0639V61.3439H287.123V56.0639H313.787ZM319.727 18.7079V23.9879H287.123V18.7079H319.727ZM326.723 73.6199L321.707 97.9079H298.871L302.963 92.6279C306.747 92.6279 310.091 91.8799 312.995 90.3839C315.987 88.7999 318.539 86.5999 320.651 83.7839C322.763 80.8799 324.391 77.4919 325.535 73.6199H326.723ZM313.787 61.0799V72.6959H312.467V71.6399C312.467 68.7359 311.543 66.3159 309.695 64.3799C307.935 62.4439 305.515 61.4319 302.435 61.3439V61.0799H313.787ZM313.787 44.7119V56.3279H302.435V56.0639C305.515 55.9759 307.935 54.9639 309.695 53.0279C311.543 51.0039 312.467 48.5399 312.467 45.6359V44.7119H313.787ZM319.727 23.7239V37.7159H318.407V36.5279C318.407 32.6559 317.351 29.6199 315.239 27.4199C313.215 25.2199 310.267 24.0759 306.395 23.9879V23.7239H319.727ZM319.727 16.7279V19.8959L305.867 18.7079C308.419 18.7079 311.103 18.4879 313.919 18.0479C316.735 17.5199 318.671 17.0799 319.727 16.7279ZM268.643 89.5919L269.303 97.9079H259.535V96.5879C259.535 96.5879 259.799 96.5879 260.327 96.5879C260.855 96.5879 261.163 96.5879 261.251 96.5879C263.187 96.5879 264.815 95.9279 266.135 94.6079C267.543 93.1999 268.291 91.5279 268.379 89.5919H268.643ZM268.643 27.0239H268.379C268.291 24.9999 267.543 23.3279 266.135 22.0079C264.815 20.6879 263.187 20.0279 261.251 20.0279C261.163 20.0279 260.855 20.0279 260.327 20.0279C259.799 20.0279 259.535 20.0279 259.535 20.0279V18.7079H269.303L268.643 27.0239Z" fill="#494949"/>
<path d="M216.231 18.708V97.908H197.223V18.708H216.231ZM246.987 92.628L250.155 97.908H215.967V92.628H246.987ZM255.699 73.62L250.551 97.908H227.715L231.807 92.628C235.591 92.628 238.935 91.88 241.839 90.384C244.831 88.8 247.383 86.6 249.495 83.784C251.607 80.88 253.235 77.492 254.379 73.62H255.699ZM197.487 89.592L198.147 97.908H188.379V96.588C188.379 96.588 188.643 96.588 189.171 96.588C189.699 96.588 190.007 96.588 190.095 96.588C192.031 96.588 193.659 95.928 194.979 94.608C196.387 93.2 197.135 91.528 197.223 89.592H197.487ZM215.967 27.024V18.708H225.075V20.028C224.987 20.028 224.679 20.028 224.151 20.028C223.711 20.028 223.491 20.028 223.491 20.028C221.555 20.028 219.883 20.688 218.475 22.008C217.067 23.328 216.319 25 216.231 27.024H215.967ZM197.487 27.024H197.223C197.135 25 196.387 23.328 194.979 22.008C193.571 20.688 191.899 20.028 189.963 20.028C189.875 20.028 189.567 20.028 189.039 20.028C188.599 20.028 188.379 20.028 188.379 20.028V18.708H197.487V27.024Z" fill="#494949"/>
<path d="M124.684 18.84L149.5 61.74L131.944 63.72L103.036 18.84H124.684ZM150.292 62.004V97.908H131.284V62.268L150.292 62.004ZM169.036 18.84H178.804L148.972 64.644L142.768 63.456L169.036 18.84ZM164.284 26.892C165.252 25.22 165.252 23.68 164.284 22.272C163.316 20.776 161.996 20.028 160.324 20.028C160.324 20.028 160.06 20.028 159.532 20.028C159.004 20.028 158.74 20.028 158.74 20.028V18.708H187.12V20.028H185.404C183.028 20.028 180.784 20.688 178.672 22.008C176.648 23.24 175.02 24.736 173.788 26.496L164.284 26.892ZM129.304 26.892L107.92 26.496C106.688 24.648 105.06 23.108 103.036 21.876C101.012 20.644 98.7685 20.028 96.3045 20.028H94.7205V18.708H134.848V20.028C134.848 20.028 134.584 20.028 134.056 20.028C133.616 20.028 133.396 20.028 133.396 20.028C131.636 20.028 130.272 20.776 129.304 22.272C128.424 23.768 128.424 25.308 129.304 26.892ZM131.68 89.592V97.908H122.308V96.588C122.396 96.588 122.66 96.588 123.1 96.588C123.628 96.588 123.892 96.588 123.892 96.588C125.916 96.588 127.632 95.928 129.04 94.608C130.448 93.2 131.196 91.528 131.284 89.592H131.68ZM150.028 89.592H150.292C150.38 91.528 151.128 93.2 152.536 94.608C154.032 95.928 155.748 96.588 157.684 96.588C157.684 96.588 157.948 96.588 158.476 96.588C159.004 96.588 159.268 96.588 159.268 96.588V97.908H150.028V89.592Z" fill="#494949"/>
<path d="M59.9879 5.904V97.908H40.1879V5.904H59.9879ZM92.3279 5.376V10.92H7.8479V5.376H92.3279ZM92.3279 10.524V26.1L91.0079 25.968V24.516C91.0079 20.38 89.7759 17.124 87.3119 14.748C84.9359 12.284 81.6799 11.008 77.5439 10.92V10.524H92.3279ZM92.3279 3V6.828L76.2239 5.376C78.1599 5.376 80.1839 5.244 82.2959 4.98C84.4959 4.716 86.5199 4.408 88.3679 4.056C90.2159 3.704 91.5359 3.352 92.3279 3ZM40.5839 88.272V97.908H30.0239V96.588C30.0239 96.588 30.2879 96.588 30.8159 96.588C31.4319 96.588 31.7399 96.588 31.7399 96.588C34.0279 96.588 35.9639 95.796 37.5479 94.212C39.2199 92.54 40.0999 90.56 40.1879 88.272H40.5839ZM59.5919 88.272H59.9879C60.0759 90.56 60.9119 92.54 62.4959 94.212C64.1679 95.796 66.1479 96.588 68.4359 96.588C68.4359 96.588 68.6999 96.588 69.2279 96.588C69.8439 96.588 70.1519 96.588 70.1519 96.588V97.908H59.5919V88.272ZM22.4999 10.524V10.92C18.4519 11.008 15.1959 12.284 12.7319 14.748C10.3559 17.124 9.1679 20.38 9.1679 24.516V25.968L7.8479 26.1V10.524H22.4999ZM7.8479 3C8.7279 3.352 10.0479 3.704 11.8079 4.056C13.6559 4.408 15.6799 4.716 17.8799 4.98C20.0799 5.244 22.1039 5.376 23.9519 5.376L7.8479 6.828V3Z" fill="#494949"/>
</svg>
