<svg width="87" height="87" viewBox="0 0 87 87" fill="#F17100" xmlns="http://www.w3.org/2000/svg">
<path d="M11.6251 41.18L3 39.6433L3.51676 36.7148C3.63674 36.0349 3.85695 35.5009 4.17738 35.1128C4.49551 34.7213 4.87935 34.458 5.32891 34.3228C5.77848 34.1875 6.25736 34.1652 6.76554 34.2557C7.27373 34.3463 7.71715 34.5329 8.09585 34.8158C8.47503 35.0957 8.75008 35.4736 8.92098 35.9492C9.08908 36.4244 9.11364 36.9991 8.99465 37.6734L8.62426 39.7724L7.69773 39.6073L8.06216 37.5422C8.1443 37.0767 8.13024 36.6886 8.01999 36.378C7.90974 36.0673 7.72965 35.8243 7.47971 35.6488C7.22746 35.47 6.92867 35.3498 6.58333 35.2883C6.23799 35.2268 5.9177 35.2366 5.62245 35.3179C5.32771 35.3963 5.07798 35.5642 4.87328 35.8217C4.66577 36.0786 4.52045 36.4426 4.43731 36.9138L4.11172 38.7589L11.8103 40.1305L11.6251 41.18Z" fill="#F17100"/>
<path d="M13.1961 33.6214L5.14161 30.1614L7.21972 25.2769L8.08495 25.6486L6.4238 29.553L9.14533 30.7221L10.6989 27.0706L11.5641 27.4422L10.0106 31.0938L12.7478 32.2697L14.4359 28.302L15.3011 28.6736L13.1961 33.6214Z" fill="#F17100"/>
<path d="M17.1865 18.4013C17.9199 18.9659 18.4522 19.5869 18.7834 20.2643C19.1147 20.9416 19.2483 21.6239 19.1842 22.3109C19.1202 22.9978 18.8609 23.6394 18.4066 24.2352C17.9522 24.8311 17.4033 25.2495 16.7597 25.4904C16.1163 25.7313 15.4259 25.7792 14.6889 25.6341C13.9518 25.4889 13.2166 25.134 12.4832 24.5694C11.7499 24.0048 11.2176 23.3838 10.8863 22.7064C10.5551 22.0291 10.4215 21.3468 10.4855 20.6598C10.5496 19.9728 10.8088 19.3313 11.2632 18.7355C11.7176 18.1396 12.2665 17.7211 12.91 17.4803C13.5535 17.2394 14.2438 17.1915 14.9809 17.3366C15.718 17.4818 16.4532 17.8367 17.1865 18.4013ZM16.5622 19.22C15.9601 18.7565 15.3748 18.4665 14.8063 18.35C14.2394 18.2313 13.7187 18.2617 13.2441 18.4413C12.7712 18.6187 12.3734 18.9189 12.0509 19.3419C11.7283 19.7649 11.5425 20.2301 11.4933 20.7373C11.446 21.2423 11.5522 21.7554 11.8121 22.2767C12.0737 22.7957 12.5055 23.287 13.1076 23.7506C13.7097 24.2141 14.2941 24.5053 14.8609 24.624C15.4295 24.7405 15.9502 24.7101 16.4231 24.5328C16.8977 24.3532 17.2963 24.0518 17.6189 23.6288C17.9414 23.2058 18.1264 22.7417 18.1738 22.2368C18.2229 21.7296 18.1167 21.2164 17.8551 20.6974C17.5952 20.1761 17.1643 19.6836 16.5622 19.22Z" fill="#F17100"/>
<path d="M22.0602 19.8504L16.7638 12.8395L19.1213 11.0413C19.6687 10.6238 20.191 10.3818 20.6886 10.3153C21.1866 10.2447 21.6464 10.3131 22.0679 10.5204C22.4894 10.7277 22.8561 11.0379 23.1682 11.451C23.4803 11.864 23.6798 12.3035 23.767 12.7695C23.8563 13.2337 23.8031 13.6988 23.6073 14.1647C23.4099 14.6282 23.0397 15.0671 22.4969 15.4811L20.8071 16.7701L20.2381 16.017L21.9007 14.7488C22.2754 14.463 22.5273 14.1683 22.656 13.8651C22.7849 13.5617 22.8168 13.2604 22.7518 12.9611C22.6873 12.6577 22.5491 12.3657 22.337 12.085C22.1249 11.8043 21.883 11.5931 21.6113 11.4514C21.3419 11.308 21.045 11.261 20.7208 11.3105C20.3949 11.3576 20.0423 11.5259 19.663 11.8152L18.1777 12.9482L22.9051 19.2059L22.0602 19.8504Z" fill="#F17100"/>
<path d="M28.3213 15.3799L24.715 7.35843L25.6817 6.91964L28.9005 14.0794L32.6113 12.395L32.9987 13.2567L28.3213 15.3799Z" fill="#F17100"/>
<path d="M34.5936 12.7177L32.7632 4.10998L37.9331 3L38.1297 3.92466L33.9972 4.81192L34.6156 7.72038L38.4805 6.89058L38.6771 7.81524L34.8122 8.64504L35.4343 11.5703L39.6337 10.6687L39.8303 11.5933L34.5936 12.7177Z" fill="#F17100"/>
<path d="M49.1511 6.88023L49.0681 7.82208L45.2507 7.4825L45.3337 6.54065L49.1511 6.88023Z" fill="#F17100"/>
<path d="M53.9581 12.8865L57.4063 4.79514L60.127 5.96586C60.7588 6.2377 61.2263 6.57445 61.5297 6.97618C61.8369 7.37639 62.0049 7.81184 62.0339 8.28247C62.0628 8.75311 61.9757 9.2268 61.7725 9.70353C61.5694 10.1803 61.2878 10.5718 60.9277 10.8782C60.5702 11.1857 60.1416 11.369 59.6417 11.4282C59.1431 11.4848 58.5804 11.3783 57.954 11.1088L56.0038 10.2696L56.3742 9.40039L58.293 10.226C58.7254 10.4121 59.1047 10.4865 59.4308 10.4491C59.7569 10.4118 60.0334 10.2908 60.2602 10.086C60.4908 9.8798 60.6752 9.61472 60.8132 9.29075C60.9513 8.96678 61.0144 8.65109 61.0027 8.34371C60.9937 8.03748 60.8876 7.75496 60.6847 7.49619C60.4827 7.23475 60.163 7.0099 59.7252 6.82151L58.0109 6.08389L54.9331 13.306L53.9581 12.8865Z" fill="#F17100"/>
<path d="M60.9519 16.107L66.2349 9.08607L68.5959 10.8798C69.1417 11.2945 69.5193 11.7287 69.7286 12.1822C69.9395 12.6335 70.0071 13.0853 69.9312 13.5377C69.8553 13.9901 69.6617 14.4231 69.3504 14.8368C69.0391 15.2505 68.679 15.5534 68.2699 15.7455C67.8609 15.9376 67.4135 15.9928 66.9279 15.9112C66.4441 15.8274 65.9315 15.5799 65.3902 15.1686L63.4796 13.717L64.0575 12.9491L65.9407 14.38C66.3138 14.6634 66.6553 14.8366 66.9653 14.8997C67.2775 14.9645 67.5605 14.9353 67.8141 14.8119C68.0718 14.688 68.3064 14.4854 68.5179 14.2043C68.7295 13.9232 68.8621 13.6378 68.9156 13.348C68.9692 13.0583 68.9241 12.769 68.7804 12.4802C68.6384 12.1891 68.3786 11.9001 68.0011 11.6133L66.5136 10.4832L61.7981 16.7499L60.9519 16.107ZM66.6141 15.4519L65.9603 19.9122L64.9778 19.1658L65.6588 14.7261L66.6141 15.4519Z" fill="#F17100"/>
<path d="M75.0868 23.9904C74.3639 24.5685 73.6354 24.9369 72.901 25.0957C72.1668 25.2544 71.4757 25.2193 70.8279 24.9904C70.1801 24.7614 69.6236 24.3532 69.1584 23.7658C68.6932 23.1785 68.4222 22.5419 68.3456 21.8562C68.269 21.1705 68.39 20.4859 68.7088 19.8025C69.0276 19.1191 69.5484 18.4884 70.2713 17.9103C70.9942 17.3322 71.7228 16.9638 72.4571 16.8051C73.1914 16.6463 73.8825 16.6814 74.5302 16.9104C75.178 17.1393 75.7346 17.5475 76.1998 18.1349C76.665 18.7223 76.9359 19.3588 77.0126 20.0446C77.0892 20.7303 76.9681 21.4148 76.6493 22.0982C76.3305 22.7816 75.8097 23.4123 75.0868 23.9904ZM74.4476 23.1833C75.041 22.7087 75.4629 22.2084 75.7132 21.6824C75.9652 21.1586 76.0621 20.6435 76.0037 20.1373C75.9471 19.6333 75.7536 19.1728 75.4233 18.7558C75.0931 18.3388 74.689 18.0449 74.2112 17.8741C73.7351 17.7055 73.2139 17.6847 72.6476 17.8116C72.083 17.9409 71.504 18.2428 70.9105 18.7174C70.317 19.192 69.8943 19.6912 69.6422 20.215C69.392 20.7411 69.2952 21.2561 69.3518 21.7601C69.4102 22.2663 69.6045 22.728 69.9348 23.1449C70.2651 23.5619 70.6682 23.8547 71.1443 24.0233C71.6221 24.1941 72.1433 24.2149 72.7079 24.0857C73.2742 23.9587 73.8541 23.6579 74.4476 23.1833Z" fill="#F17100"/>
<path d="M80.8017 32.6042L80.3959 31.6194C80.6538 31.4439 80.8594 31.2389 81.0128 31.0044C81.1673 30.7727 81.2744 30.5234 81.3342 30.2567C81.3978 29.9915 81.4152 29.7191 81.3864 29.4395C81.3576 29.16 81.2875 28.8852 81.1763 28.6152C80.9734 28.1228 80.6657 27.7283 80.2533 27.4316C79.8421 27.1376 79.3468 26.973 78.7676 26.9381C78.1895 26.9057 77.5501 27.0353 76.8493 27.3269C76.1485 27.6185 75.6051 27.9811 75.219 28.4147C74.8339 28.8508 74.5994 29.319 74.5154 29.8191C74.4325 30.3219 74.4925 30.8195 74.6954 31.3119C74.8067 31.5819 74.9505 31.826 75.1268 32.0441C75.3031 32.2623 75.5057 32.4432 75.7346 32.5867C75.9672 32.7318 76.2197 32.8314 76.492 32.8855C76.768 32.9413 77.0577 32.9402 77.361 32.8822L77.7668 33.867C77.3226 33.9649 76.8968 33.9839 76.4894 33.924C76.082 33.864 75.7037 33.7361 75.3545 33.5403C75.0079 33.3434 74.7006 33.0883 74.4326 32.7749C74.1657 32.4642 73.9477 32.1038 73.7786 31.6934C73.4928 30.9998 73.4072 30.3129 73.5219 29.6325C73.6365 28.9522 73.9409 28.3277 74.435 27.7593C74.9291 27.1908 75.6029 26.729 76.4565 26.3739C77.3101 26.0187 78.1116 25.8666 78.861 25.9177C79.6104 25.9687 80.2649 26.1941 80.8247 26.5938C81.3845 26.9935 81.8073 27.5402 82.0931 28.2337C82.2622 28.6441 82.3616 29.0539 82.3915 29.4633C82.4224 29.8753 82.3832 30.2745 82.274 30.6611C82.1674 31.0465 81.9912 31.4052 81.7452 31.737C81.5019 32.0677 81.1874 32.3568 80.8017 32.6042Z" fill="#F17100"/>
<path d="M75.5828 36.6727L84.255 35.4323L85 40.6914L84.0684 40.8247L83.4729 36.6207L80.5426 37.0399L81.0996 40.9714L80.168 41.1047L79.611 37.1731L76.6638 37.5947L77.269 41.8667L76.3374 42L75.5828 36.6727Z" fill="#F17100"/>
<path d="M78.2925 60.4107C78.7077 60.5338 79.0961 60.4765 79.4578 60.2389C79.8195 60.0012 80.1045 59.6415 80.3129 59.1599C80.4653 58.8077 80.5415 58.475 80.5414 58.1617C80.5402 57.851 80.4716 57.5789 80.3353 57.3453C80.198 57.1143 80.002 56.9441 79.7473 56.8347C79.5342 56.7431 79.3292 56.7149 79.1322 56.75C78.9366 56.7889 78.7535 56.8668 78.5827 56.9838C78.4145 57.1019 78.2598 57.2351 78.1186 57.3832C77.9801 57.5325 77.8594 57.6726 77.7565 57.8035L77.1887 58.5176C77.0445 58.7013 76.8694 58.8994 76.6634 59.1119C76.4564 59.3269 76.2193 59.5153 75.9521 59.6769C75.6864 59.8422 75.3919 59.946 75.0686 59.9882C74.7452 60.0304 74.3964 59.9712 74.0222 59.8104C73.5909 59.625 73.2499 59.3449 72.9991 58.97C72.7473 58.5976 72.6117 58.1525 72.5924 57.6344C72.572 57.1189 72.694 56.5555 72.9584 55.9445C73.2049 55.3748 73.5106 54.9211 73.8755 54.5834C74.2393 54.2484 74.6377 54.0326 75.0708 53.9362C75.5028 53.8423 75.9438 53.8737 76.3938 54.0302L75.9635 55.0246C75.6509 54.921 75.3577 54.9148 75.084 55.006C74.8118 55.1009 74.5688 55.2637 74.3551 55.4943C74.1427 55.7285 73.9682 56.0037 73.8315 56.3196C73.6724 56.6873 73.5894 57.0432 73.5823 57.3871C73.5778 57.7323 73.6464 58.0366 73.7882 58.3002C73.9325 58.5649 74.1501 58.7598 74.4412 58.8849C74.7062 58.9988 74.9539 59.0176 75.184 58.9415C75.4142 58.8653 75.6334 58.7292 75.8415 58.533C76.0496 58.3369 76.2532 58.1156 76.4522 57.8694L77.1563 57.0112C77.6045 56.4668 78.0734 56.0847 78.5628 55.8651C79.0523 55.6455 79.566 55.6512 80.1039 55.8824C80.5509 56.0744 80.8885 56.3623 81.1169 56.7461C81.3468 57.1335 81.4655 57.5715 81.473 58.0599C81.4819 58.552 81.3766 59.0519 81.157 59.5594C80.9352 60.0721 80.6457 60.4883 80.2887 60.8078C79.9342 61.1284 79.5481 61.3372 79.1302 61.434C78.7112 61.5334 78.2975 61.5031 77.8891 61.343L78.2925 60.4107Z" fill="#F17100"/>
<path d="M70.1833 68.9692L69.4792 68.3579L71.9775 65.5002L72.6816 66.1115L70.1833 68.9692Z" fill="#F17100"/>
<path d="M61.8791 77.3448C62.1455 77.6851 62.4952 77.863 62.9281 77.8786C63.3612 77.8941 63.8027 77.766 64.2529 77.4943C64.5821 77.2955 64.8378 77.0686 65.0201 76.8134C65.2 76.5597 65.3026 76.2983 65.3276 76.0293C65.3503 75.7618 65.2897 75.5099 65.146 75.2735C65.0257 75.0757 64.8752 74.9342 64.6943 74.8489C64.5124 74.7674 64.3179 74.7249 64.1107 74.7215C63.9049 74.7204 63.7014 74.7394 63.5001 74.7785C63.3003 74.82 63.1205 74.8642 62.9605 74.9114L62.0823 75.1647C61.8578 75.2309 61.5999 75.291 61.3085 75.345C61.0146 75.4004 60.7118 75.4167 60.4002 75.3938C60.0875 75.3749 59.7873 75.2891 59.4993 75.1365C59.2113 74.984 58.9618 74.734 58.7506 74.3867C58.5072 73.9863 58.3926 73.561 58.4067 73.1106C58.4183 72.6618 58.5671 72.2208 58.853 71.7877C59.1366 71.356 59.5639 70.9678 60.135 70.623C60.6675 70.3015 61.1806 70.1087 61.6744 70.0447C62.1658 69.9821 62.6159 70.0368 63.0248 70.2087C63.4312 70.382 63.7722 70.6626 64.0475 71.0502L63.1182 71.6113C62.9239 71.3461 62.6887 71.1716 62.4127 71.0877C62.1357 71.0076 61.843 70.9997 61.5346 71.0639C61.2253 71.1319 60.923 71.2551 60.6277 71.4334C60.284 71.6409 60.0092 71.8826 59.8032 72.1587C59.5986 72.4372 59.4773 72.7247 59.4392 73.0214C59.4027 73.3204 59.4665 73.605 59.6308 73.8751C59.7803 74.1211 59.971 74.2797 60.2028 74.3507C60.4346 74.4218 60.6924 74.4376 60.9761 74.3982C61.2599 74.3588 61.5544 74.2964 61.8598 74.2109L62.933 73.919C63.6151 73.7348 64.2193 73.6948 64.7459 73.7989C65.2724 73.903 65.6874 74.2047 65.9909 74.704C66.2432 75.1188 66.3506 75.5486 66.3132 75.9932C66.2748 76.4417 66.1165 76.867 65.8382 77.2691C65.5589 77.6751 65.1821 78.0213 64.7077 78.3077C64.2285 78.5971 63.7505 78.7686 63.2736 78.8224C62.7983 78.8786 62.3622 78.8253 61.9655 78.6626C61.5664 78.5013 61.2472 78.2374 61.0077 77.8709L61.8791 77.3448Z" fill="#F17100"/>
<path d="M58.6694 80.3051L58.9508 81.1924L52.7341 83.1504L52.4527 82.263L55.0592 81.4421L52.7209 74.0691L53.7247 73.7529L56.0629 81.126L58.6694 80.3051Z" fill="#F17100"/>
<path d="M48.4488 75.1762L48.9406 83.8254L46.008 83.991C45.33 84.0293 44.7668 83.9453 44.3186 83.739C43.8705 83.5355 43.5306 83.2398 43.2988 82.8518C43.067 82.4638 42.9366 82.015 42.9076 81.5054C42.8787 80.9957 42.9575 80.538 43.1441 80.132C43.3308 79.726 43.6339 79.3982 44.0533 79.1485C44.4729 78.9017 45.0189 78.7593 45.6913 78.7213L48.0646 78.5873L48.1184 79.5333L45.779 79.6654C45.3157 79.6916 44.9466 79.7802 44.6717 79.9313C44.3941 80.0826 44.1987 80.2857 44.0857 80.5406C43.97 80.7985 43.9219 81.1007 43.9416 81.447C43.9613 81.7933 44.0436 82.0923 44.1883 82.344C44.3329 82.5956 44.552 82.7838 44.8453 82.9085C45.1388 83.036 45.5201 83.0865 45.9891 83.06L47.8368 82.9556L47.3978 75.2355L48.4488 75.1762ZM44.5844 79.2923L42.2276 75.5275L43.4481 75.4585L45.7711 79.2252L44.5844 79.2923Z" fill="#F17100"/>
<path d="M40.4058 75.3607L41.4921 75.5553L36.812 83.5188L35.7426 83.3272L34.1393 74.2379L35.2254 74.4325L36.4873 82.0681L36.5541 82.0801L40.4058 75.3607ZM39.4039 78.6195L35.0256 77.835L35.1909 76.9191L39.5691 77.7035L39.4039 78.6195Z" fill="#F17100"/>
<path d="M31.2619 81.3565L30.9052 82.2166L24.8796 79.735L25.2363 78.8749L27.7627 79.9154L30.7263 72.7691L31.6992 73.1698L28.7356 80.3161L31.2619 81.3565Z" fill="#F17100"/>
<path d="M26.7656 70.8493L21.6645 77.8642L17.4163 74.7962L17.9643 74.0427L21.3601 76.4951L23.0837 74.1248L19.9078 71.8313L20.4558 71.0777L23.6317 73.3713L25.3653 70.9873L21.9144 68.4952L22.4624 67.7417L26.7656 70.8493Z" fill="#F17100"/>
<path d="M12.6188 65.8155C12.46 66.07 12.3431 66.328 12.268 66.5898C12.1889 66.8511 12.155 67.1134 12.1661 67.3765C12.1755 67.6376 12.2323 67.8957 12.3365 68.1509C12.4408 68.4062 12.5939 68.6537 12.7959 68.8933C13.1272 69.2864 13.5303 69.5585 14.0051 69.7098C14.48 69.8611 14.9958 69.8657 15.5525 69.7239C16.1092 69.582 16.6757 69.2698 17.2521 68.7874C17.8285 68.3049 18.234 67.8017 18.4685 67.2775C18.7031 66.7535 18.784 66.2421 18.711 65.7434C18.638 65.2446 18.4286 64.7901 18.0829 64.3799C17.7626 63.9998 17.3992 63.7331 16.9928 63.5797C16.5824 63.4261 16.1594 63.3934 15.724 63.4818C15.2844 63.5697 14.861 63.7842 14.4536 64.1252L14.2981 63.8355L15.9797 65.8308L15.2647 66.4293L13.1353 63.9028L13.8504 63.3043C14.3986 62.8454 14.9736 62.563 15.5754 62.4571C16.1754 62.349 16.7589 62.4055 17.3261 62.6269C17.8892 62.8478 18.3929 63.2218 18.837 63.7487C19.332 64.3361 19.6283 64.9683 19.7258 65.6452C19.8216 66.3201 19.7184 66.9956 19.4163 67.672C19.1124 68.3462 18.6094 68.9771 17.9073 69.5648C17.3807 70.0055 16.8481 70.3316 16.3094 70.5431C15.7667 70.7542 15.2378 70.8545 14.7225 70.8438C14.2073 70.8332 13.7213 70.717 13.2647 70.4952C12.808 70.2735 12.4004 69.9499 12.0418 69.5245C11.747 69.1747 11.5253 68.8042 11.3767 68.413C11.2241 68.0214 11.1441 67.6262 11.1368 67.2273C11.1254 66.828 11.1857 66.4369 11.3176 66.054C11.4472 65.6729 11.648 65.317 11.9199 64.9863L12.6188 65.8155Z" fill="#F17100"/>
<path d="M8.15004 64.1096L7.63233 63.0247L10.2615 59.1182L10.2178 59.0265L5.5177 58.5934L4.99995 57.5084L10.9643 58.1481L14.1996 56.6149L14.6517 57.5622L11.4164 59.0955L8.15004 64.1096Z" fill="#F17100"/>
<path d="M6.55426 46.1808L7.4803 46.0608L7.97069 49.8193L7.04465 49.9393L6.55426 46.1808Z" fill="#F17100"/>
<path d="M81.3418 50.954C81.7735 50.989 82.1417 50.8531 82.4463 50.5461C82.7509 50.2392 82.9552 49.8286 83.0593 49.3145C83.1353 48.9385 83.1409 48.5973 83.0759 48.2908C83.0103 47.9871 82.8867 47.7349 82.705 47.5344C82.5227 47.3366 82.2956 47.2104 82.0238 47.1557C81.7963 47.11 81.5898 47.1245 81.4044 47.1994C81.2211 47.2776 81.058 47.3915 80.9152 47.5412C80.7751 47.6913 80.6513 47.8534 80.544 48.0275C80.4394 48.202 80.3503 48.3639 80.2768 48.5131L79.8693 49.3287C79.7663 49.5381 79.636 49.768 79.4786 50.0182C79.3206 50.2712 79.1276 50.5043 78.8998 50.7174C78.6741 50.9338 78.4075 51.0959 78.0998 51.2037C77.7922 51.3116 77.4387 51.3253 77.0392 51.245C76.5787 51.1524 76.187 50.9484 75.8639 50.6332C75.5403 50.3207 75.3154 49.9129 75.1891 49.41C75.0622 48.9098 75.0648 48.3335 75.1968 47.6811C75.3199 47.073 75.5249 46.5662 75.8119 46.1608C76.0984 45.7581 76.4435 45.4651 76.8472 45.2816C77.2504 45.1009 77.6884 45.0409 78.1611 45.1014L77.9463 46.1629C77.6189 46.1258 77.3308 46.1801 77.082 46.3256C76.8353 46.4745 76.6313 46.6838 76.47 46.9534C76.3108 47.2263 76.1971 47.5314 76.1289 47.8686C76.0494 48.2612 76.0419 48.6264 76.1063 48.9645C76.1735 49.3031 76.3037 49.5867 76.4971 49.8155C76.6932 50.0448 76.9465 50.1907 77.2572 50.2532C77.5402 50.3101 77.7864 50.2776 77.9958 50.1558C78.2052 50.0339 78.3914 49.8556 78.5544 49.6209C78.7173 49.3861 78.8706 49.1278 79.0143 48.846L79.5253 47.8614C79.8509 47.2365 80.2305 46.7662 80.6638 46.4506C81.0972 46.1351 81.601 46.035 82.1752 46.1505C82.6523 46.2465 83.0424 46.4587 83.3455 46.7872C83.6507 47.1191 83.8577 47.5232 83.9662 47.9995C84.077 48.4792 84.0776 48.99 83.968 49.5318C83.8572 50.0791 83.6603 50.5458 83.3772 50.9319C83.0969 51.3185 82.7623 51.6022 82.3736 51.7829C81.9842 51.9664 81.5732 52.0218 81.1404 51.9491L81.3418 50.954Z" fill="#F17100"/>
</svg>
