<svg width="133" height="28" viewBox="0 0 133 28" fill="none" xmlns="http://www.w3.org/2000/svg">
<g clip-path="url(#clip0_61_2)">
<path d="M133 28.2816H126.885V0H133V28.2816Z" fill="#F17100"/>
<path d="M110.496 27.4268C111.608 27.8479 112.79 28.0593 114.043 28.0611C115.301 28.061 116.488 27.8496 117.605 27.4268C118.708 26.9911 119.676 26.4016 120.511 25.6583C121.331 24.9022 121.981 24.0244 122.462 23.0248C122.929 22.0125 123.162 20.936 123.162 19.7955V0.111755H117.075V19.7955C117.075 20.1799 116.997 20.5452 116.842 20.8912C116.686 21.2243 116.474 21.5191 116.205 21.7754C115.923 22.0189 115.597 22.2111 115.23 22.3521C114.864 22.4921 114.471 22.5626 114.05 22.5635C113.629 22.5626 113.236 22.4921 112.871 22.3521C112.503 22.2111 112.178 22.0189 111.895 21.7754C111.627 21.5191 111.415 21.2243 111.259 20.8912C111.104 20.5452 111.026 20.1799 111.026 19.7955V0.111755H104.939V19.7955C104.939 20.936 105.172 22.0125 105.639 23.0248C106.119 24.0244 106.77 24.9022 107.59 25.6583C108.424 26.4016 109.393 26.9911 110.496 27.4268Z" fill="#F17100"/>
<path d="M101.87 27.6094H82.9437V0H101.87V5.52573H88.4694V11.0515H97.5378V16.5772H88.4694V22.0837H101.87V27.6094Z" fill="#F2F2F2"/>
<path d="M77.803 27.6094H72.2773V0H77.803V27.6094Z" fill="#F2F2F2"/>
<path d="M69.6203 0L60.552 27.6094H55.0263L45.9964 0H52.273L57.7795 18.4255L63.3052 0H69.6203Z" fill="#F2F2F2"/>
<path d="M44.6487 27.6094H25.7226V0H44.6487V5.52573H31.2483V11.0515H40.3166V16.5772H31.2483V22.0837H44.6487V27.6094Z" fill="#F2F2F2"/>
<path d="M5.52573 5.52573V16.5772H11.0515C11.8088 16.5772 12.5211 16.436 13.1886 16.1536C13.856 15.8584 14.4401 15.4605 14.9406 14.9599C15.4412 14.4593 15.8327 13.8753 16.1151 13.2078C16.4103 12.5276 16.5579 11.8088 16.5579 11.0515C16.5579 10.2942 16.4103 9.58178 16.1151 8.91433C15.8327 8.23404 15.4412 7.6436 14.9406 7.14302C14.4401 6.64243 13.856 6.25094 13.1886 5.96856C12.5211 5.67334 11.8088 5.52573 11.0515 5.52573H5.52573ZM5.52573 27.6094H0V0H11.0515C12.0655 0 13.041 0.134774 13.978 0.404322C14.915 0.661034 15.7878 1.03327 16.5964 1.52102C17.4179 1.99594 18.1624 2.57354 18.8298 3.25383C19.5101 3.92128 20.0877 4.66574 20.5626 5.48722C21.0504 6.3087 21.4226 7.18794 21.6793 8.12494C21.9489 9.06194 22.0837 10.0374 22.0837 11.0515C22.0837 12.0013 21.9617 12.9255 21.7178 13.824C21.4868 14.7224 21.1467 15.576 20.6974 16.3847C20.261 17.1933 19.7219 17.9378 19.0801 18.6181C18.4384 19.2983 17.7196 19.8888 16.9237 20.3894L19.985 27.6094H14.1128L11.7061 22.0452L5.52573 22.0837V27.6094Z" fill="#F2F2F2"/>
</g>
<defs>
<clipPath id="clip0_61_2">
<rect width="133" height="28" fill="white"/>
</clipPath>
</defs>
</svg>
