<?xml version="1.0" encoding="utf-8"?>
<svg width="801px" height="1771px" viewBox="0 0 801 1771" version="1.1" xmlns:xlink="http://www.w3.org/1999/xlink" xmlns="http://www.w3.org/2000/svg">
  <desc>Created with Lunacy</desc>
  <defs>
    <linearGradient x1="0" y1="0" x2="1.02" y2="1.01" id="gradient_1">
      <stop offset="0" stop-color="#36F9FF" />
      <stop offset="1" stop-color="#AD0BC8" />
    </linearGradient>
    <filter filterUnits="userSpaceOnUse" color-interpolation-filters="sRGB" id="filter_1">
      <feFlood flood-opacity="0" result="BackgroundImageFix" />
      <feColorMatrix in="SourceAlpha" type="matrix" values="0 0 0 0 0 0 0 0 0 0 0 0 0 0 0 0 0 0 127 0" />
      <feOffset dx="2" dy="2" />
      <feGaussianBlur stdDeviation="2" />
      <feColorMatrix type="matrix" values="0 0 0 0 0 0 0 0 0 0 0 0 0 0 0 0 0 0 0.5019608 0" />
      <feBlend mode="normal" in2="BackgroundImageFix" result="effect0_dropShadow" />
      <feBlend mode="normal" in="SourceGraphic" in2="effect0_dropShadow" result="shape" />
    </filter>
    <rect width="801" height="1771" id="artboard_1" />
    <clipPath id="clip_1">
      <use xlink:href="#artboard_1" clip-rule="evenodd" />
    </clipPath>
  </defs>
  <g id="Artboard" clip-path="url(#clip_1)">
    <use xlink:href="#artboard_1" stroke="none" fill="#FFFFFF" />
    <g id="Logo" transform="translate(35 305.1667)">
      <path d="M32.9167 65.8333C51.096 65.8333 65.8333 51.096 65.8333 32.9167C65.8333 14.7373 51.096 0 32.9167 0C14.7373 0 0 14.7373 0 32.9167C0 51.096 14.7373 65.8333 32.9167 65.8333Z" id="Oval" fill="url(#gradient_1)" stroke="none" />
      <g filter="url(#filter_1)">
        <path d="M13.0366 33.3333C13.0366 33.3333 25.8501 6.95193 25.8333 6.92775C22.926 2.73253 18.1776 0 12.8134 0C7.57441 0 2.92279 2.60651 7.6729e-05 6.63652C-0.0316273 6.68023 13.0366 33.3333 13.0366 33.3333Z" transform="translate(20 15.83334)" id="Oval" fill="#FDFFFC" stroke="none" />
      </g>
    </g>
    <g id="Logo" transform="translate(137.8571 305.1667)">
      <path d="M32.9167 65.8333C51.096 65.8333 65.8333 51.096 65.8333 32.9167C65.8333 14.7373 51.096 0 32.9167 0C14.7373 0 0 14.7373 0 32.9167C0 51.096 14.7373 65.8333 32.9167 65.8333Z" id="Oval" fill="#1876D2" stroke="none" />
      <path d="M13.0366 33.3333C13.0366 33.3333 25.8501 6.95193 25.8333 6.92775C22.926 2.73253 18.1776 0 12.8134 0C7.57441 0 2.92279 2.60651 7.6729e-05 6.63652C-0.0316273 6.68023 13.0366 33.3333 13.0366 33.3333Z" transform="translate(20 15.83334)" id="Oval" fill="#FFFFFF" stroke="none" />
    </g>
    <g id="Logo" transform="translate(35 203)">
      <path d="M32.9167 65.8333C51.096 65.8333 65.8333 51.096 65.8333 32.9167C65.8333 14.7373 51.096 0 32.9167 0C14.7373 0 0 14.7373 0 32.9167C0 51.096 14.7373 65.8333 32.9167 65.8333Z" id="Oval" fill="url(#gradient_1)" stroke="none" />
      <g filter="url(#filter_1)">
        <path d="M13.0366 33.3333C13.0366 33.3333 25.8501 6.95193 25.8333 6.92775C22.926 2.73253 18.1776 0 12.8135 0C7.57442 0 2.9228 2.60651 7.6729e-05 6.63652C-0.0316273 6.68023 13.0366 33.3333 13.0366 33.3333Z" transform="translate(20 15.83333)" id="Oval" fill="#FDFFFC" stroke="none" />
      </g>
      <path d="M28.5494 0C29.2193 0 29.7675 0.225328 30.1938 0.675991C30.6202 1.12665 30.8333 1.7094 30.8333 2.42424L30.8333 31.049C30.8333 31.7638 30.643 32.3232 30.2623 32.7273C29.8817 33.1313 29.3564 33.3333 28.6864 33.3333C28.0469 33.3333 27.5444 33.1313 27.179 32.7273C26.8136 32.3232 26.6309 31.7638 26.6309 31.049L26.6309 9.37063L17.6778 26.7599C17.0992 27.8477 16.3531 28.3916 15.4395 28.3916C14.5259 28.3916 13.7798 27.8477 13.2012 26.7599L4.20247 9.55711L4.20247 31.049C4.20247 31.7638 4.01975 32.3232 3.65432 32.7273C3.28889 33.1313 2.7712 33.3333 2.10123 33.3333C1.46173 33.3333 0.951648 33.1235 0.570988 32.704C0.190327 32.2844 0 31.7327 0 31.049L0 2.42424C0 1.7094 0.213167 1.12665 0.639506 0.675991C1.06585 0.225328 1.61399 0 2.28395 0C3.22799 0 3.9893 0.559435 4.5679 1.67832L15.4852 22.9837L26.3111 1.67832C26.8897 0.559435 27.6358 0 28.5494 0Z" transform="translate(82.5 15.83333)" id="M" fill="#0E0A20" stroke="none" />
      <path d="M1.8616 33.3333C1.28647 33.3333 0.832424 33.1546 0.499453 32.7972C0.166483 32.4398 0 31.9658 0 31.3753L0 1.95804C0 1.36752 0.166483 0.893553 0.499453 0.536131C0.832424 0.178708 1.28647 0 1.8616 0C2.43673 0 2.89077 0.178708 3.22374 0.536131C3.55671 0.893553 3.7232 1.36752 3.7232 1.95804L3.7232 31.3753C3.7232 31.9658 3.55671 32.4398 3.22374 32.7972C2.89077 33.1546 2.43673 33.3333 1.8616 33.3333ZM123.335 0.536131C123.027 0.178708 122.597 0 122.043 0C121.49 0 121.052 0.178708 120.729 0.536131C120.406 0.893553 120.244 1.36752 120.244 1.95804L120.244 26.6667L101.147 0.792541C100.717 0.264178 100.194 0 99.579 0C98.9947 0 98.5411 0.178708 98.2182 0.536131C97.8953 0.893553 97.7339 1.36752 97.7339 1.95804L97.7339 31.3753C97.7339 31.9658 97.8877 32.4398 98.1952 32.7972C98.5027 33.1546 98.9332 33.3333 99.4868 33.3333C100.04 33.3333 100.479 33.1546 100.801 32.7972C101.124 32.4398 101.286 31.9658 101.286 31.3753L101.286 6.66667L120.429 32.5408C120.859 33.0692 121.367 33.3333 121.951 33.3333C122.535 33.3333 122.989 33.1546 123.312 32.7972C123.635 32.4398 123.796 31.9658 123.796 31.3753L123.796 1.95804C123.796 1.36752 123.643 0.893553 123.335 0.536131ZM64.1321 30.6797C64.3493 31.0211 64.4578 31.378 64.4578 31.7505C64.4578 32.216 64.2794 32.5962 63.9226 32.8911C63.5658 33.1859 63.1547 33.3333 62.6893 33.3333C61.9757 33.3333 61.4172 33.023 61.0139 32.4022L54.7775 22.5327C53.9708 21.2602 53.1331 20.3834 52.2644 19.9024C51.3956 19.4213 50.2166 19.1808 48.7273 19.1808L42.8633 19.1808L42.8633 31.3315C42.8633 31.9212 42.6927 32.3945 42.3514 32.7514C42.0101 33.1083 41.5602 33.2868 41.0017 33.2868C40.4122 33.2868 39.9468 33.1083 39.6055 32.7514C39.2642 32.3945 39.0936 31.9212 39.0936 31.3315L39.0936 2.09528C39.0936 1.53662 39.272 1.0866 39.6288 0.745195C39.9856 0.403794 40.4587 0.233096 41.0482 0.233096L52.5902 0.233096C56.1582 0.233096 58.8808 1.02451 60.7579 2.60737C62.635 4.19023 63.5736 6.51793 63.5736 9.59055C63.5736 12.1976 62.8212 14.2925 61.3164 15.8754C59.8116 17.4583 57.663 18.4204 54.8706 18.7618C55.6463 19.0101 56.3444 19.4135 56.9649 19.9722C57.5854 20.5308 58.206 21.3068 58.8265 22.2999L64.1321 30.6797ZM72.9109 33.1002Q72.0344 33.1002 71.5039 32.5874C71.1502 32.2455 70.9734 31.7949 70.9734 31.2354L70.9734 2.0979C70.9734 1.53845 71.1502 1.0878 71.5039 0.745917C71.8576 0.404035 72.3266 0.233096 72.9109 0.233096L90.1635 0.233096C90.717 0.233096 91.1476 0.372955 91.4551 0.652677C91.7626 0.932398 91.9164 1.32089 91.9164 1.81818C91.9164 2.31546 91.7626 2.70396 91.4551 2.98368C91.1476 3.2634 90.717 3.40326 90.1635 3.40326L74.7099 3.40326L74.7099 14.8252L89.2409 14.8252C89.7944 14.8252 90.225 14.965 90.5325 15.2448C90.84 15.5245 90.9938 15.913 90.9938 16.4103C90.9938 16.9075 90.84 17.296 90.5325 17.5758C90.225 17.8555 89.7944 17.9953 89.2409 17.9953L74.7099 17.9953L74.7099 29.9301L90.1635 29.9301C90.717 29.9301 91.1476 30.0622 91.4551 30.3263C91.7626 30.5905 91.9164 30.9868 91.9164 31.5151C91.9164 32.0124 91.7626 32.4009 91.4551 32.6806C91.1476 32.9604 90.717 33.1002 90.1635 33.1002L72.9109 33.1002ZM133.876 33.1002C133.292 33.1002 132.824 32.9293 132.471 32.5874C132.117 32.2455 131.941 31.7949 131.941 31.2354L131.941 2.0979C131.941 1.53845 132.117 1.0878 132.471 0.745917C132.824 0.404035 133.292 0.233096 133.876 0.233096L142.859 0.233096C148.049 0.233096 152.065 1.65499 154.905 4.49883C157.746 7.34267 159.167 11.3908 159.167 16.6434C159.167 21.8959 157.739 25.9518 154.882 28.8112C152.026 31.6706 148.018 33.1002 142.859 33.1002L133.876 33.1002ZM19.9053 32.7972C20.2597 33.1546 20.7296 33.3333 21.3151 33.3333C21.9006 33.3333 22.3629 33.1546 22.7019 32.7972C23.0408 32.4398 23.2103 31.9658 23.2103 31.3753L23.2103 3.4965L33.1485 3.4965C33.7031 3.4965 34.1346 3.35664 34.4427 3.07692C34.7509 2.7972 34.905 2.39316 34.905 1.8648C34.905 1.33643 34.7509 0.932398 34.4427 0.652677C34.1346 0.372955 33.7031 0.233096 33.1485 0.233096L9.4356 0.233096C8.88091 0.233096 8.44949 0.372955 8.14133 0.652677C7.83317 0.932398 7.67909 1.33643 7.67909 1.8648C7.67909 2.39316 7.83317 2.7972 8.14133 3.07692C8.44949 3.35664 8.88091 3.4965 9.4356 3.4965L19.3737 3.4965L19.3737 31.3753C19.3737 31.9658 19.5509 32.4398 19.9053 32.7972ZM155.211 16.6434C155.211 25.439 151 29.8368 142.579 29.8368L135.664 29.8368L135.664 3.4965L142.579 3.4965C151 3.4965 155.211 7.87874 155.211 16.6434ZM57.919 14.5047C56.6624 15.5575 54.762 16.0839 52.2178 16.0839L42.8168 16.0839L42.8168 3.4965L52.2178 3.4965C54.7931 3.4965 56.7012 4.00742 57.9423 5.02929C59.1833 6.05115 59.8039 7.61488 59.8039 9.72054C59.8039 11.8572 59.1756 13.4519 57.919 14.5047Z" transform="translate(120.8333 15.83333)" id="ITREND" fill="#0E0A20" fill-rule="evenodd" stroke="none" />
    </g>
    <g id="Text-Field" fill="#B8B8B8" transform="translate(26 429)">
      <path d="M235.2 25.42L246.24 25.42L246.24 35.26L235.2 35.26L235.2 25.42ZM19.36 82.7L19.36 34.78L0.96 34.78L0.96 26.3L48.08 26.3L48.08 34.78L29.68 34.78L29.68 82.7L19.36 82.7ZM191.36 26.3L191.36 82.7L201.52 82.7L201.52 58.14L226.72 58.14L226.72 49.9L201.52 49.9L201.52 34.54L228.32 34.54L228.32 26.3L191.36 26.3ZM298.56 82.7L298.56 26.3L308.56 26.3L308.56 82.7L298.56 82.7ZM356.64 82.7L356.64 26.3L346.64 26.3L346.64 49.34Q344.88 46.14 341.6 44.38Q338.32 42.62 334.08 42.62Q328.96 42.62 325.04 45.1Q321.12 47.58 318.92 52.14Q316.72 56.7 316.72 62.78Q316.72 68.86 318.92 73.54Q321.12 78.22 325.08 80.78Q329.04 83.34 334.08 83.34Q338.32 83.34 341.64 81.5Q344.96 79.66 346.72 76.38L346.72 82.7L356.64 82.7ZM159.28 75.82Q161.04 75.82 162.96 75.58L162.48 83.02Q160.08 83.26 158.08 83.26Q149.84 83.26 145.92 79.46Q142 75.66 142 68.14L142 51.1L134.48 51.1L134.48 43.58L142 43.58L142 31.9L152 31.9L152 43.58L162.32 43.58L162.32 51.1L152 51.1L152 67.98Q152 75.82 159.28 75.82ZM88.56 64.94L61.92 64.94Q62.4 70.38 65.2 73.02Q68 75.66 73.2 75.66Q79.68 75.66 85.04 71.5L87.92 78.38Q85.2 80.62 81.08 81.98Q76.96 83.34 72.8 83.34Q63.2 83.34 57.64 77.9Q52.08 72.46 52.08 63.02Q52.08 57.02 54.48 52.38Q56.88 47.74 61.24 45.18Q65.6 42.62 71.12 42.62Q79.2 42.62 83.88 47.82Q88.56 53.02 88.56 62.14L88.56 64.94ZM263.76 64.94L290.4 64.94L290.4 62.14Q290.4 53.02 285.72 47.82Q281.04 42.62 272.96 42.62Q267.44 42.62 263.08 45.18Q258.72 47.74 256.32 52.38Q253.92 57.02 253.92 63.02Q253.92 72.46 259.48 77.9Q265.04 83.34 274.64 83.34Q278.8 83.34 282.92 81.98Q287.04 80.62 289.76 78.38L286.88 71.5Q281.52 75.66 275.04 75.66Q269.84 75.66 267.04 73.02Q264.24 70.38 263.76 64.94ZM135.04 82.7L118.56 62.54L134.08 43.58L122.16 43.58L112.8 55.5L103.44 43.58L91.52 43.58L107.04 62.54L90.64 82.7L102.48 82.7L112.8 69.66L123.2 82.7L135.04 82.7ZM235.76 82.7L235.76 43.58L245.76 43.58L245.76 82.7L235.76 82.7ZM71.36 49.66Q67.36 49.66 64.92 52.22Q62.48 54.78 61.92 59.58L80 59.58Q79.84 54.7 77.6 52.18Q75.36 49.66 71.36 49.66ZM266.76 52.22Q269.2 49.66 273.2 49.66Q277.2 49.66 279.44 52.18Q281.68 54.7 281.84 59.58L263.76 59.58Q264.32 54.78 266.76 52.22ZM344.12 72.3Q341.52 75.58 336.72 75.58Q332 75.58 329.36 72.22Q326.72 68.86 326.72 62.78Q326.72 56.78 329.36 53.58Q332 50.38 336.8 50.38Q341.52 50.38 344.12 53.62Q346.72 56.86 346.72 62.94Q346.72 69.02 344.12 72.3Z" />
    </g>
    <g id="Nav.-Icons" fill="#B8B8B8" transform="translate(25.99995 840)">
      <path d="M44 26.3L53.68 26.3L53.68 82.7L45.92 82.7L15.68 43.34L15.68 82.7L6.08 82.7L6.08 26.3L13.76 26.3L44 65.58L44 26.3ZM192.64 26.3L192.64 82.7L202.96 82.7L202.96 26.3L192.64 26.3ZM81.76 42.62Q90 42.62 94 46.62Q98 50.62 98 58.94L98 82.7L88.48 82.7L88.48 76.7Q87.12 79.82 84.2 81.58Q81.28 83.34 77.44 83.34Q73.52 83.34 70.32 81.74Q67.12 80.14 65.28 77.34Q63.44 74.54 63.44 71.1Q63.44 66.78 65.64 64.3Q67.84 61.82 72.8 60.7Q77.76 59.58 86.48 59.58L88.48 59.58L88.48 57.74Q88.48 53.74 86.76 51.98Q85.04 50.22 81.04 50.22Q77.92 50.22 74.52 51.3Q71.12 52.38 67.84 54.3L65.04 47.42Q68.32 45.34 72.96 43.98Q77.6 42.62 81.76 42.62ZM232.08 83.34Q225.92 83.34 221.4 80.86Q216.88 78.38 214.48 73.82Q212.08 69.26 212.08 63.18Q212.08 57.1 214.6 52.42Q217.12 47.74 221.76 45.18Q226.4 42.62 232.48 42.62Q236.64 42.62 240.6 43.94Q244.56 45.26 246.96 47.5L244.08 54.54Q241.6 52.54 238.84 51.5Q236.08 50.46 233.36 50.46Q228.16 50.46 225.28 53.7Q222.4 56.94 222.4 63.02Q222.4 69.02 225.28 72.26Q228.16 75.5 233.36 75.5Q236.08 75.5 238.84 74.46Q241.6 73.42 244.08 71.42L246.96 78.38Q244.4 80.7 240.4 82.02Q236.4 83.34 232.08 83.34ZM260.6 80.86Q265.12 83.34 271.12 83.34Q277.12 83.34 281.64 80.86Q286.16 78.38 288.6 73.74Q291.04 69.1 291.04 62.94Q291.04 56.78 288.6 52.18Q286.16 47.58 281.64 45.1Q277.12 42.62 271.12 42.62Q265.12 42.62 260.6 45.1Q256.08 47.58 253.6 52.18Q251.12 56.78 251.12 62.94Q251.12 69.1 253.6 73.74Q256.08 78.38 260.6 80.86ZM322 42.62Q329.04 42.62 332.48 46.62Q335.92 50.62 335.92 58.7L335.92 82.7L325.92 82.7L325.92 59.26Q325.92 54.7 324.2 52.62Q322.48 50.54 318.8 50.54Q314.48 50.54 311.88 53.26Q309.28 55.98 309.28 60.54L309.28 82.7L299.28 82.7L299.28 43.58L309.04 43.58L309.04 49.42Q311.04 46.14 314.4 44.38Q317.76 42.62 322 42.62ZM350.92 82.06Q355.28 83.34 360.48 83.34Q368 83.34 372.4 80.14Q376.8 76.94 376.8 71.5Q376.8 67.02 374.08 64.26Q371.36 61.5 365.52 60.22L358.88 58.7Q356.32 58.14 355.16 57.1Q354 56.06 354 54.46Q354 52.3 355.84 51.1Q357.68 49.9 360.96 49.9Q367.04 49.9 373.12 54.3L375.92 47.5Q372.96 45.18 369.08 43.9Q365.2 42.62 361.04 42.62Q356.24 42.62 352.6 44.14Q348.96 45.66 346.92 48.42Q344.88 51.18 344.88 54.78Q344.88 59.1 347.52 61.82Q350.16 64.54 355.6 65.74L362 67.18Q365.2 67.98 366.44 68.94Q367.68 69.9 367.68 71.66Q367.68 73.74 365.88 74.86Q364.08 75.98 360.64 75.98Q352.56 75.98 346.32 71.42L343.52 78.38Q346.56 80.78 350.92 82.06ZM145.44 43.66L135.6 43.66L124.24 71.26L113.2 43.66L102.64 43.66L119.6 82.7L128.32 82.7L145.44 43.66ZM278.48 72.38Q275.92 75.58 271.04 75.58Q266.24 75.58 263.68 72.38Q261.12 69.18 261.12 62.94Q261.12 56.78 263.72 53.54Q266.32 50.3 271.12 50.3Q275.92 50.3 278.48 53.54Q281.04 56.78 281.04 62.94Q281.04 69.18 278.48 72.38ZM79.44 76.14Q83.44 76.14 85.96 73.46Q88.48 70.78 88.48 66.54L88.48 64.86L87.04 64.86Q81.68 64.86 78.72 65.34Q75.76 65.82 74.48 67.02Q73.2 68.22 73.2 70.3Q73.2 72.86 74.96 74.5Q76.72 76.14 79.44 76.14ZM149.36 71.66L160.56 71.66L160.56 82.7L149.36 82.7L149.36 71.66Z" />
    </g>
  </g>
</svg>