<svg id="Layer_1" data-name="Layer 1" xmlns="http://www.w3.org/2000/svg" viewBox="0 0 408.06 408.06"><defs><style>.cls-1{fill:#042642;}</style></defs><path class="cls-1" d="M69.3,82.73l5-5-12-47.38L75,17.68c3.54-3.54,9.9-14.15,7.07-17s-13.43,3.54-17,7.08L52.33,20.5,5,8.48,0,13.43,36.06,36.77l-15.76,19L5,53.74.71,58l14.85,9.19L24.75,82,29,77.78l-2-15.36L46,46.67Z"/><path class="cls-1" d="M286.57,82.73l4.95-5-12-47.38,12.72-12.72c3.54-3.54,9.9-14.15,7.08-17s-13.44,3.54-17,7.08L269.6,20.5l-47.38-12-4.95,4.95,36.06,23.34-15.75,19-15.36-2L218,58l14.85,9.19L242,82l4.24-4.24-2-15.36,19-15.75Z"/><path class="cls-1" d="M177.24,192.08l4.95-5-12-47.37L182.89,127c3.54-3.53,9.9-14.14,7.08-17s-13.44,3.54-17,7.07l-12.72,12.73-47.38-12-5,5L144,146.12l-15.75,19-15.36-2-4.24,4.25,14.85,9.19,9.19,14.85,4.24-4.25-2.05-15.35,19-15.76Z"/><path class="cls-1" d="M286.57,300l4.95-4.95-12-47.38L292.22,235c3.54-3.54,9.9-14.15,7.08-17s-13.44,3.53-17,7.07L269.6,237.77l-47.38-12-4.95,4.95L253.33,254l-15.75,19L222.22,271,218,275.25l14.85,9.19L242,299.29l4.24-4.24-2-15.36,19-15.75Z"/><path class="cls-1" d="M69.3,300l5-4.95-12-47.38L75,235c3.54-3.54,9.9-14.15,7.07-17s-13.43,3.53-17,7.07L52.33,237.77,5,225.75,0,230.7,36.06,254l-15.76,19L5,271,.71,275.25l14.85,9.19,9.19,14.85L29,295.05l-2-15.36,19-15.75Z"/><path class="cls-1" d="M394.51,192.8l4.95-5-12-47.37,12.73-12.73c3.53-3.53,9.89-14.14,7.07-17s-13.44,3.54-17,7.07l-12.73,12.73-47.38-12-5,5,36.06,23.33-15.75,19-15.36-2.05-4.24,4.25,14.85,9.19L350,192.1l4.24-4.25-2-15.35,19-15.76Z"/><path class="cls-1" d="M177.24,409.36l4.95-4.95-12-47.38,12.72-12.73c3.54-3.53,9.9-14.14,7.08-17s-13.44,3.54-17,7.07l-12.72,12.73-47.38-12-5,4.95L144,363.39l-15.75,19-15.36-2.05-4.24,4.25,14.85,9.19,9.19,14.85,4.24-4.24-2.05-15.36,19-15.76Z"/><path class="cls-1" d="M394.51,410.08l4.95-4.95-12-47.38L400.17,345c3.53-3.53,9.89-14.14,7.07-17s-13.44,3.54-17,7.07l-12.73,12.73-47.38-12-5,4.95,36.06,23.33-15.75,19-15.36-2.05-4.24,4.25,14.85,9.19L350,409.37l4.24-4.24-2-15.36,19-15.76Z"/></svg>