<svg id="Layer_1" data-name="Layer 1" xmlns="http://www.w3.org/2000/svg" viewBox="0 0 278.74 278.74"><defs><style>.cls-1{fill:#042642;}</style></defs><path class="cls-1" d="M131.12,256.1V223.85h7.41a13.38,13.38,0,0,1,3.8.47A6.63,6.63,0,0,1,145,225.8a5.83,5.83,0,0,1,1.59,2.53,11.12,11.12,0,0,1,.52,3.6,10.36,10.36,0,0,1-.5,3.44,4.88,4.88,0,0,1-1.51,2.29,5.25,5.25,0,0,1-2.61,1.08,7,7,0,0,1,3.15,1.49,6.38,6.38,0,0,1,1.77,2.71,12.16,12.16,0,0,1,.58,4,14.09,14.09,0,0,1-.48,3.79,7.6,7.6,0,0,1-1.49,2.9,6.64,6.64,0,0,1-2.59,1.85,9.6,9.6,0,0,1-3.73.66Zm4.5-18.79h2.67a6.77,6.77,0,0,0,3-.54,3,3,0,0,0,1.51-1.73,9.29,9.29,0,0,0,.44-3.11,5.93,5.93,0,0,0-.68-3.23,3.06,3.06,0,0,0-2.11-1.25,22,22,0,0,0-3.74-.26h-1.08Zm0,15.57h3c2,0,3.36-.47,4-1.42a7.92,7.92,0,0,0,1-4.56,9.32,9.32,0,0,0-.54-3.4,4,4,0,0,0-1.71-2.07,6.16,6.16,0,0,0-3.17-.7h-2.67Z"/><path class="cls-1" d="M163.52,254.17a9.37,9.37,0,0,1-5.37-.25,7,7,0,0,1-3.43-3,16.76,16.76,0,0,1-1.89-5.29l-2.34-12a15.54,15.54,0,0,1-.21-5.54,6.81,6.81,0,0,1,2.07-4,9.56,9.56,0,0,1,4.86-2.19,9.38,9.38,0,0,1,5.32.22,6.92,6.92,0,0,1,3.39,2.91,15.46,15.46,0,0,1,1.89,5.19l2.35,12a16.1,16.1,0,0,1,.21,5.56,7.23,7.23,0,0,1-2,4.11A9.1,9.1,0,0,1,163.52,254.17Zm-.68-3.48a4.28,4.28,0,0,0,2.52-1.24,3.67,3.67,0,0,0,.81-2.27,13.44,13.44,0,0,0-.29-3.13l-2.71-13.87a12.77,12.77,0,0,0-.9-3,3.4,3.4,0,0,0-1.59-1.72,4.42,4.42,0,0,0-2.79-.16,4.58,4.58,0,0,0-2.55,1.2,3.47,3.47,0,0,0-.85,2.2,13.15,13.15,0,0,0,.28,3.09l2.71,13.87a13.44,13.44,0,0,0,.91,3,3.59,3.59,0,0,0,1.63,1.79A4.29,4.29,0,0,0,162.84,250.69Z"/><path class="cls-1" d="M187.94,246.57a8.37,8.37,0,0,1-4.74.71,7.52,7.52,0,0,1-3.88-1.95,13.61,13.61,0,0,1-2.93-4.07l3.24-2.54a18.1,18.1,0,0,0,1.79,2.83,6,6,0,0,0,2.28,1.87,3.52,3.52,0,0,0,2.85-.11,3.41,3.41,0,0,0,2.06-1.93,4,4,0,0,0-.27-2.94,5.74,5.74,0,0,0-2.29-2.85,18.8,18.8,0,0,0-3.36-1.5l-6.85-2.29a9,9,0,0,1-3.35-1.89,9.75,9.75,0,0,1-2.29-3.46,7.26,7.26,0,0,1-.27-5.85,7.64,7.64,0,0,1,4.33-4,10.52,10.52,0,0,1,3.3-.85,5.94,5.94,0,0,1,2.83.46,7.51,7.51,0,0,1,2.45,1.8,14.53,14.53,0,0,1,2.15,3.09l-3.12,2.44a15.61,15.61,0,0,0-1.58-2.51,4.38,4.38,0,0,0-2-1.49,3.72,3.72,0,0,0-2.69.25,3.64,3.64,0,0,0-2.05,1.85,3.52,3.52,0,0,0,.17,2.8,5.3,5.3,0,0,0,1.41,2,7,7,0,0,0,2.25,1.17l6.88,2.27a17.13,17.13,0,0,1,4.46,2.24,9.63,9.63,0,0,1,3.32,4.28,8.17,8.17,0,0,1,.69,4.19,6.66,6.66,0,0,1-1.48,3.5A8.41,8.41,0,0,1,187.94,246.57Z"/><path class="cls-1" d="M205.82,235.58l-16.61-23.66-4.46,3.13-1.93-2.73,12.49-8.77,1.92,2.74-4.34,3L209.5,233Z"/><path class="cls-1" d="M226.23,218.15A9.48,9.48,0,0,1,221.7,221a6.92,6.92,0,0,1-4.56-.52,16.57,16.57,0,0,1-4.59-3.24l-8.82-8.46a15.76,15.76,0,0,1-3.36-4.41,6.79,6.79,0,0,1-.6-4.44,9.67,9.67,0,0,1,2.72-4.59A9.47,9.47,0,0,1,207,192.5a6.93,6.93,0,0,1,4.44.43,15.32,15.32,0,0,1,4.53,3.16l8.85,8.49a16,16,0,0,1,3.37,4.42,7.23,7.23,0,0,1,.72,4.52A9.15,9.15,0,0,1,226.23,218.15Zm-2.56-2.45a4.17,4.17,0,0,0,1.34-2.46,3.61,3.61,0,0,0-.64-2.33,13.12,13.12,0,0,0-2-2.39l-10.2-9.79a13.47,13.47,0,0,0-2.45-1.91,3.44,3.44,0,0,0-2.29-.48,4.45,4.45,0,0,0-2.38,1.47,4.53,4.53,0,0,0-1.39,2.45,3.46,3.46,0,0,0,.57,2.28,13.49,13.49,0,0,0,2,2.37l10.2,9.79a13.64,13.64,0,0,0,2.48,1.93,3.61,3.61,0,0,0,2.36.53A4.35,4.35,0,0,0,223.67,215.7Z"/><path class="cls-1" d="M237.47,203.55l-28-16.08,1.53-2.65,23.14,2.73L215.6,176.88l1.86-3.25,28,16.08L244,192.19l-23.72-2.93,19.09,11Z"/><path class="cls-1" d="M249.38,180.15,219,169.21l1.49-4.16L250.88,176Z"/><path class="cls-1" d="M253.86,167.29l-31.28-10.44.48-4.31,32.83-3.22-.48,4.24-8.24.55-.74,6.53,7.9,2.45Zm-10.56-7.61.6-5.34-14.75,1Z"/><path class="cls-1" d="M256.09,143.79H223.84v-3.07l21.42-9.16H223.84v-3.74h32.25v2.86l-22,9.28h22Z"/><path class="cls-1" d="M188.7,150.59l.16-7-41.39-26,.43-18c.12-5-2.6-17.07-6.6-17.16S134,94.28,133.9,99.28l-.43,18-42.58,24-.16,7,42.2-8,1.72,24.63L122.12,174l-.14,6,17.09-3.6,16.9,4.41.14-6L144,165.13l2.88-24.53Z"/><path class="cls-1" d="M54.9,140.84H26v5.45H22.64V131H26v5.3H54.9Z"/><path class="cls-1" d="M54.71,130,23.3,122.68l1.48-6.32a14.46,14.46,0,0,1,2-5,6,6,0,0,1,3.39-2.42,10.46,10.46,0,0,1,5.06.15,13.38,13.38,0,0,1,3.22,1.16,6.48,6.48,0,0,1,2.23,1.83,5,5,0,0,1,1,2.6l16.79-.77-1,4.22-15.7.66L41,122.2l14.73,3.45Zm-16.85-8.57.39-1.67a8.43,8.43,0,0,0,.24-3.13,3.19,3.19,0,0,0-1.19-2.08,7.58,7.58,0,0,0-3-1.28,6.41,6.41,0,0,0-4.21.08c-1,.48-1.69,1.72-2.16,3.71L27.47,119Z"/><path class="cls-1" d="M59.18,111.8l-26.26-20,1.85-3.92,32.12,7.51L65.07,99.3l-8-2.13-2.8,5.94L61,108Zm-7.55-10.6,2.29-4.87-14.3-3.74Z"/><path class="cls-1" d="M70.35,90.68,40.24,77l2.54-3.37L64.84,83.89,48.77,65.71l2.47-3.28,21.48,25.1Z"/><path class="cls-1" d="M78.77,80.35,57.29,56.29,66.61,48l2.23,2.5-6,5.33,7.11,8,4.84-4.33,2.12,2.38L72.1,66.12,80,75l6-5.39L88.15,72Z"/><path class="cls-1" d="M92.56,69l-16-28,3.91-2.23L94.87,64,102,59.9l1.6,2.81Z"/><path class="cls-1" d="M107.18,61.38,95.93,31.15l4.15-1.54,11.24,30.23Z"/><path class="cls-1" d="M114.75,58.4l-6.47-31.6,3-.62,13.27,19.16-4.3-21,3.67-.75,6.47,31.6-2.81.57-13.5-19.71,4.41,21.57Z"/><path class="cls-1" d="M141.85,55.57a8.11,8.11,0,0,1-4.84-1.3,7.24,7.24,0,0,1-2.63-3.76,19.14,19.14,0,0,1-.81-5.93V33.78a21.53,21.53,0,0,1,.73-6,6.77,6.77,0,0,1,2.63-3.8,9.12,9.12,0,0,1,5.28-1.32,10.14,10.14,0,0,1,4.88,1,5.9,5.9,0,0,1,2.68,3.1,14.32,14.32,0,0,1,.84,5.28v1.2h-4.22v-1a17,17,0,0,0-.28-3.44,3.28,3.28,0,0,0-1.13-2,4.51,4.51,0,0,0-2.69-.65,3.91,3.91,0,0,0-2.89.91,4.3,4.3,0,0,0-1.12,2.49,27.23,27.23,0,0,0-.21,3.57V45.05a19.1,19.1,0,0,0,.33,3.87,3.92,3.92,0,0,0,1.3,2.31,4.31,4.31,0,0,0,2.71.75,4,4,0,0,0,2.7-.83,4.43,4.43,0,0,0,1.32-2.47,19.26,19.26,0,0,0,.36-4.06V42.39h-4.1V39.2h8.16v16H148l-.44-3.71a6.73,6.73,0,0,1-2,2.95A5.58,5.58,0,0,1,141.85,55.57Z"/><path class="cls-1" d="M238,120.16a100.34,100.34,0,0,0-81.85-79.55l.66-4a104.34,104.34,0,0,1,85.12,82.74Z"/><path class="cls-1" d="M121.6,242.31A104.19,104.19,0,0,1,36,152.08l4-.48a100.35,100.35,0,0,0,82.32,86.77Z"/></svg>