<svg id="Layer_1" data-name="Layer 1" xmlns="http://www.w3.org/2000/svg" viewBox="0 0 773.05 360.88"><defs><style>.cls-1{fill:#e7ecee;}.cls-2{fill:#272932;}.cls-3{fill:#f15e5e;}</style></defs><rect class="cls-1" x="385.92" width="387.13" height="360.88"/><path class="cls-2" d="M444.39,263.21h2l3.52,16.07h-2l-.92-4.23h-3.19l-.92,4.23h-2Zm2.16,9.92-1.17-5.38-1.17,5.38Z"/><path class="cls-2" d="M451.75,278.32V264.17a1,1,0,0,1,1-1h6a1,1,0,0,1,1,1v2.76H457.7v-1.5a.31.31,0,0,0-.3-.3H454a.31.31,0,0,0-.3.3v11.62a.31.31,0,0,0,.3.3h3.42a.31.31,0,0,0,.3-.3v-1.49h1.93v2.76a1,1,0,0,1-1,1h-6A1,1,0,0,1,451.75,278.32Z"/><path class="cls-3" d="M465.14,256.13h-5.51v-2.44a.26.26,0,0,0-.27-.26h-1.57a.26.26,0,0,0-.27.26v2.44H443v-2.54a.26.26,0,0,0-.26-.26h-1.57a.27.27,0,0,0-.27.26v2.54h-5a1.09,1.09,0,0,0-1.09,1.09v28a1.09,1.09,0,0,0,1.09,1.1h29.28a1.1,1.1,0,0,0,1.1-1.1v-28A1.09,1.09,0,0,0,465.14,256.13Zm-1,27.86a.26.26,0,0,1-.27.26H437.13a.26.26,0,0,1-.26-.26v-25.5a.26.26,0,0,1,.26-.26h3.72V260a.27.27,0,0,0,.27.26h1.57A.26.26,0,0,0,443,260v-1.75h14.57v1.84a.26.26,0,0,0,.27.26h1.57a.26.26,0,0,0,.27-.26v-1.84h4.24a.27.27,0,0,1,.27.26Z"/><path class="cls-2" d="M483,257.29h3.35l6,27.32h-3.4l-1.56-7.18h-5.43l-1.56,7.18H477Zm3.67,16.86-2-9.13-2,9.13Z"/><path class="cls-2" d="M497.56,261h-5v-3.71h13.39V261h-5.08v23.65h-3.27Z"/><path class="cls-2" d="M510.2,257.25h3.28v27.36H510.2Zm2.3,12h9.14v3.28H512.5Zm7.81-12h3.28v27.36h-3.28Z"/><path class="cls-2" d="M528.86,257.29h3.27v24h10.11v3.28H528.86Z"/><path class="cls-2" d="M545.56,257.29H559v3.28H548.84v8.74h6.83v3.28h-6.83v8.74H559v3.28H545.56Z"/><path class="cls-2" d="M568.27,261h-5v-3.71h13.39V261h-5.08v23.65h-3.28Z"/><path class="cls-2" d="M580.92,257.29h3.32v27.32h-3.32Z"/><path class="cls-2" d="M589.5,283v-24a1.65,1.65,0,0,1,1.64-1.64h10.11a1.65,1.65,0,0,1,1.64,1.64v4.68h-3.28v-2.54a.51.51,0,0,0-.5-.5h-5.82a.52.52,0,0,0-.51.5v19.75a.52.52,0,0,0,.51.51h5.82a.51.51,0,0,0,.5-.51v-2.53h3.28V283a1.65,1.65,0,0,1-1.64,1.64H591.14A1.65,1.65,0,0,1,589.5,283Z"/><path class="cls-2" d="M613.19,257.29h3.36l6,27.32h-3.39l-1.56-7.18h-5.43l-1.56,7.18h-3.4Zm3.67,16.86-2-9.13-2,9.13Z"/><path class="cls-2" d="M625.84,257.29h3.28v24h10.11v3.28H625.84Z"/><path class="cls-2" d="M642.54,257.29h13.39v3.28H645.82v8.74h6.83v3.28h-6.83v8.74h10.11v3.28H642.54Z"/><path class="cls-2" d="M661.2,257.29h4.64l5.47,22.17V257.29h3.31v27.32H669.2l-4.68-19v19H661.2Z"/><path class="cls-2" d="M679.89,257.29h11.75a1.66,1.66,0,0,1,1.68,1.64v24a1.66,1.66,0,0,1-1.68,1.64H679.89Zm9.6,24a.51.51,0,0,0,.51-.51V261.07a.51.51,0,0,0-.51-.5h-6.28v20.76Z"/><path class="cls-2" d="M703.23,257.29h3.36l6,27.32h-3.4l-1.56-7.18h-5.42l-1.56,7.18h-3.4Zm3.67,16.86-2-9.13-2,9.13Z"/><path class="cls-2" d="M715.88,257.33h11.71a1.65,1.65,0,0,1,1.67,1.64v10.42a1.66,1.66,0,0,1-1.63,1.6,1.65,1.65,0,0,1,1.63,1.56v12.06H726v-12h-6.83v12h-3.28Zm10.11,12v-8.2a.53.53,0,0,0-.55-.5h-6.28v8.7Z"/><rect class="cls-2" x="579.76" width="193.3" height="180.44"/><path class="cls-3" d="M658.7,69.06h5.21l9.27,42.42h-5.27l-2.43-11.15h-8.42l-2.43,11.15h-5.27Zm5.69,26.18L661.3,81.06l-3.09,14.18Z"/><path class="cls-3" d="M678.12,108.93V71.6a2.56,2.56,0,0,1,2.54-2.54h15.7a2.56,2.56,0,0,1,2.55,2.54v7.27h-5.09V74.93a.8.8,0,0,0-.79-.78h-9a.8.8,0,0,0-.79.78V105.6a.8.8,0,0,0,.79.79h9a.8.8,0,0,0,.79-.79v-3.94h5.09v7.27a2.56,2.56,0,0,1-2.55,2.55h-15.7A2.56,2.56,0,0,1,678.12,108.93Z"/><path class="cls-3" d="M713.47,50.38H698.91V43.94a.69.69,0,0,0-.7-.69h-4.16a.69.69,0,0,0-.69.69v6.44H654.91V43.69a.69.69,0,0,0-.69-.69h-4.16a.69.69,0,0,0-.7.69v6.69H636.19a2.89,2.89,0,0,0-2.89,2.89v74a2.89,2.89,0,0,0,2.89,2.89h77.28a2.9,2.9,0,0,0,2.89-2.89v-74A2.89,2.89,0,0,0,713.47,50.38Zm-2.66,73.54a.69.69,0,0,1-.69.69H639.54a.69.69,0,0,1-.69-.69V56.62a.69.69,0,0,1,.69-.69h9.82v4.6a.7.7,0,0,0,.7.7h4.16a.7.7,0,0,0,.69-.7v-4.6h38.45v4.85a.69.69,0,0,0,.69.69h4.16a.69.69,0,0,0,.7-.69V55.93h11.21a.69.69,0,0,1,.69.69Z"/><path class="cls-3" d="M468,69.79h5.21l9.27,42.42h-5.27l-2.43-11.15h-8.42l-2.43,11.15h-5.27ZM473.7,96l-3.09-14.18L467.52,96Z"/><path class="cls-3" d="M487.43,109.67V72.33A2.56,2.56,0,0,1,490,69.79h15.7a2.56,2.56,0,0,1,2.55,2.54v7.28h-5.09V75.67a.8.8,0,0,0-.79-.79h-9a.8.8,0,0,0-.79.79v30.66a.8.8,0,0,0,.79.79h9a.8.8,0,0,0,.79-.79v-3.94h5.09v7.28a2.56,2.56,0,0,1-2.55,2.54H490A2.56,2.56,0,0,1,487.43,109.67Z"/><path class="cls-3" d="M522.78,51.11H508.22V44.67a.69.69,0,0,0-.7-.69h-4.16a.69.69,0,0,0-.69.69v6.44H464.22V44.42a.69.69,0,0,0-.69-.69h-4.16a.69.69,0,0,0-.7.69v6.69H445.5A2.89,2.89,0,0,0,442.61,54v74a2.89,2.89,0,0,0,2.89,2.89h77.28a2.89,2.89,0,0,0,2.89-2.89V54A2.9,2.9,0,0,0,522.78,51.11Zm-2.66,73.54a.69.69,0,0,1-.69.69H448.85a.69.69,0,0,1-.69-.69V57.35a.69.69,0,0,1,.69-.69h9.82v4.6a.7.7,0,0,0,.7.7h4.16a.69.69,0,0,0,.69-.7v-4.6h38.45v4.85a.69.69,0,0,0,.69.7h4.16a.7.7,0,0,0,.7-.7V56.66h11.21a.69.69,0,0,1,.69.69Z"/><rect class="cls-2" width="386.59" height="360.88"/><path class="cls-1" d="M68.09,173H70l3.41,15.62H71.48l-.89-4.11h-3.1l-.9,4.11H64.65Zm2.1,9.64-1.14-5.22-1.14,5.22Z"/><path class="cls-1" d="M75.24,187.72V174a.94.94,0,0,1,.94-.94H82a.94.94,0,0,1,.94.94v2.67H81V175.2a.3.3,0,0,0-.29-.29H77.4a.3.3,0,0,0-.29.29v11.29a.3.3,0,0,0,.29.29h3.33a.3.3,0,0,0,.29-.29V185h1.87v2.68a1,1,0,0,1-.94.94H76.18A1,1,0,0,1,75.24,187.72Z"/><path class="cls-3" d="M88.25,166.16H82.89v-2.37a.25.25,0,0,0-.25-.25H81.11a.25.25,0,0,0-.26.25v2.37H66.69V163.7a.25.25,0,0,0-.25-.25H64.91a.26.26,0,0,0-.26.25v2.46H59.8a1.06,1.06,0,0,0-1.06,1.07v27.24a1.05,1.05,0,0,0,1.06,1.06H88.25a1.06,1.06,0,0,0,1.07-1.06V167.23A1.07,1.07,0,0,0,88.25,166.16Zm-1,27.08a.25.25,0,0,1-.25.25H61a.25.25,0,0,1-.26-.25V168.46a.25.25,0,0,1,.26-.25h3.61v1.69a.26.26,0,0,0,.26.26h1.53a.26.26,0,0,0,.25-.26v-1.69H80.85V170a.26.26,0,0,0,.26.26h1.53a.26.26,0,0,0,.25-.26v-1.78H87a.25.25,0,0,1,.25.25Z"/><path class="cls-1" d="M105.6,167.29h3.26l5.8,26.55h-3.29l-1.52-7h-5.27l-1.52,7h-3.3Zm3.57,16.38-1.94-8.87-1.93,8.87Z"/><path class="cls-1" d="M119.75,170.85h-4.9v-3.6h13v3.6h-4.93v23h-3.18Z"/><path class="cls-1" d="M132,167.25h3.19v26.59H132Zm2.24,11.68h8.87v3.19h-8.87Zm7.58-11.68H145v26.59h-3.19Z"/><path class="cls-1" d="M150.16,167.29h3.18v23.36h9.83v3.19h-13Z"/><path class="cls-1" d="M166.39,167.29h13v3.18h-9.83V179h6.64v3.18h-6.64v8.5h9.83v3.19h-13Z"/><path class="cls-1" d="M188.46,170.85h-4.89v-3.6h13v3.6h-4.93v23h-3.18Z"/><path class="cls-1" d="M200.74,167.29H204v26.55h-3.23Z"/><path class="cls-1" d="M209.09,192.24V168.88a1.6,1.6,0,0,1,1.59-1.59h9.82a1.6,1.6,0,0,1,1.59,1.59v4.55h-3.18V171a.51.51,0,0,0-.49-.5h-5.66a.51.51,0,0,0-.49.5v19.19a.5.5,0,0,0,.49.49h5.66a.5.5,0,0,0,.49-.49v-2.47h3.18v4.55a1.61,1.61,0,0,1-1.59,1.6h-9.82A1.61,1.61,0,0,1,209.09,192.24Z"/><path class="cls-1" d="M232.1,167.29h3.27l5.8,26.55h-3.3l-1.52-7h-5.27l-1.52,7h-3.3Zm3.57,16.38-1.93-8.87-1.94,8.87Z"/><path class="cls-1" d="M244.39,167.29h3.19v23.36h9.82v3.19h-13Z"/><path class="cls-1" d="M260.62,167.29h13v3.18h-9.82V179h6.63v3.18h-6.63v8.5h9.82v3.19h-13Z"/><path class="cls-1" d="M278.75,167.29h4.51l5.31,21.54V167.29h3.22v26.55h-5.27L282,175.37v18.47h-3.22Z"/><path class="cls-1" d="M296.91,167.29h11.42a1.61,1.61,0,0,1,1.63,1.59v23.36a1.62,1.62,0,0,1-1.63,1.6H296.91Zm9.33,23.36a.5.5,0,0,0,.49-.49V171a.5.5,0,0,0-.49-.5h-6.1v20.18Z"/><path class="cls-1" d="M319.59,167.29h3.26l5.8,26.55h-3.3l-1.51-7h-5.27l-1.52,7h-3.3Zm3.56,16.38-1.93-8.87-1.93,8.87Z"/><path class="cls-1" d="M331.88,167.33h11.37a1.61,1.61,0,0,1,1.63,1.59v10.13a1.62,1.62,0,0,1-1.59,1.55,1.61,1.61,0,0,1,1.59,1.52v11.72H341.7V182.19h-6.64v11.65h-3.18ZM341.7,179v-8a.51.51,0,0,0-.53-.5h-6.11V179Z"/></svg>